<?xml version="1.0" encoding="us-ascii" standalone="no"?><svg xmlns="http://www.w3.org/2000/svg" xmlns:xlink="http://www.w3.org/1999/xlink" contentStyleType="text/css" height="961px" preserveAspectRatio="none" style="width:1461px;height:961px;background:#FFFFFF;" version="1.1" viewBox="0 0 1461 961" width="1461px" zoomAndPan="magnify"><defs/><g><!--class Language--><g id="elem_Language"><rect codeLine="3" fill="#F1F1F1" height="96.8906" id="Language" rx="2.5" ry="2.5" style="stroke:#181818;stroke-width:0.5;" width="100" x="7" y="809"/><ellipse cx="22" cy="825" fill="#EB937F" rx="11" ry="11" style="stroke:#181818;stroke-width:1.0;"/><path d="M20.7969,825.875 L22.25,825.875 L22.25,825.9844 C22.25,826.3906 22.2813,826.5469 22.3594,826.7031 C22.5156,826.9531 22.7969,827.1094 23.0938,827.1094 C23.3438,827.1094 23.6094,826.9688 23.7656,826.75 C23.8906,826.5938 23.9219,826.4375 23.9219,825.9844 L23.9219,824.0625 C23.9219,823.9063 23.9219,823.8594 23.9063,823.7031 C23.8438,823.2344 23.5313,822.9219 23.0781,822.9219 C22.8281,822.9219 22.5625,823.0625 22.3906,823.2813 C22.2813,823.4531 22.25,823.6094 22.25,824.0625 L22.25,824.1875 L20.7969,824.1875 L20.7969,821.7813 L24.7813,821.7813 L24.7813,822.6406 C24.7813,823.0469 24.8125,823.2188 24.8906,823.375 C25.0625,823.625 25.3438,823.7813 25.625,823.7813 C25.8906,823.7813 26.1563,823.6406 26.3281,823.4219 C26.4375,823.25 26.4688,823.1094 26.4688,822.6406 L26.4688,820.0938 L18.8438,820.0938 C18.4063,820.0938 18.2813,820.1094 18.125,820.2031 C17.875,820.3594 17.7188,820.6563 17.7188,820.9375 C17.7188,821.2188 17.8594,821.4688 18.0781,821.6406 C18.2344,821.75 18.4219,821.7813 18.8438,821.7813 L19.0938,821.7813 L19.0938,828.2969 L18.8438,828.2969 C18.4375,828.2969 18.2813,828.3125 18.125,828.4219 C17.875,828.5938 17.7188,828.8594 17.7188,829.1563 C17.7188,829.4219 17.8594,829.6719 18.0781,829.8281 C18.2188,829.9531 18.4531,830 18.8438,830 L26.8438,830 L26.8438,827.4219 C26.8438,826.9844 26.8125,826.8438 26.7344,826.6875 C26.5625,826.4375 26.2813,826.2813 26,826.2813 C25.7344,826.2813 25.4688,826.3906 25.2969,826.6406 C25.1875,826.7969 25.1563,826.9375 25.1563,827.4219 L25.1563,828.2969 L20.7969,828.2969 L20.7969,825.875 Z " fill="#000000"/><text fill="#000000" font-family="sans-serif" font-size="14" lengthAdjust="spacing" textLength="68" x="36" y="829.8467">Language</text><line style="stroke:#181818;stroke-width:0.5;" x1="8" x2="106" y1="841" y2="841"/><text fill="#000000" font-family="sans-serif" font-size="14" lengthAdjust="spacing" textLength="20" x="13" y="857.9951">DE</text><text fill="#000000" font-family="sans-serif" font-size="14" lengthAdjust="spacing" textLength="18" x="13" y="874.292">FR</text><text fill="#000000" font-family="sans-serif" font-size="14" lengthAdjust="spacing" textLength="13" x="13" y="890.5889">IT</text><line style="stroke:#181818;stroke-width:0.5;" x1="8" x2="106" y1="897.8906" y2="897.8906"/></g><!--class ExpressionGender--><g id="elem_ExpressionGender"><rect codeLine="9" fill="#F1F1F1" height="96.8906" id="ExpressionGender" rx="2.5" ry="2.5" style="stroke:#181818;stroke-width:0.5;" width="163" x="142.5" y="809"/><ellipse cx="157.5" cy="825" fill="#EB937F" rx="11" ry="11" style="stroke:#181818;stroke-width:1.0;"/><path d="M156.2969,825.875 L157.75,825.875 L157.75,825.9844 C157.75,826.3906 157.7813,826.5469 157.8594,826.7031 C158.0156,826.9531 158.2969,827.1094 158.5938,827.1094 C158.8438,827.1094 159.1094,826.9688 159.2656,826.75 C159.3906,826.5938 159.4219,826.4375 159.4219,825.9844 L159.4219,824.0625 C159.4219,823.9063 159.4219,823.8594 159.4063,823.7031 C159.3438,823.2344 159.0313,822.9219 158.5781,822.9219 C158.3281,822.9219 158.0625,823.0625 157.8906,823.2813 C157.7813,823.4531 157.75,823.6094 157.75,824.0625 L157.75,824.1875 L156.2969,824.1875 L156.2969,821.7813 L160.2813,821.7813 L160.2813,822.6406 C160.2813,823.0469 160.3125,823.2188 160.3906,823.375 C160.5625,823.625 160.8438,823.7813 161.125,823.7813 C161.3906,823.7813 161.6563,823.6406 161.8281,823.4219 C161.9375,823.25 161.9688,823.1094 161.9688,822.6406 L161.9688,820.0938 L154.3438,820.0938 C153.9063,820.0938 153.7813,820.1094 153.625,820.2031 C153.375,820.3594 153.2188,820.6563 153.2188,820.9375 C153.2188,821.2188 153.3594,821.4688 153.5781,821.6406 C153.7344,821.75 153.9219,821.7813 154.3438,821.7813 L154.5938,821.7813 L154.5938,828.2969 L154.3438,828.2969 C153.9375,828.2969 153.7813,828.3125 153.625,828.4219 C153.375,828.5938 153.2188,828.8594 153.2188,829.1563 C153.2188,829.4219 153.3594,829.6719 153.5781,829.8281 C153.7188,829.9531 153.9531,830 154.3438,830 L162.3438,830 L162.3438,827.4219 C162.3438,826.9844 162.3125,826.8438 162.2344,826.6875 C162.0625,826.4375 161.7813,826.2813 161.5,826.2813 C161.2344,826.2813 160.9688,826.3906 160.7969,826.6406 C160.6875,826.7969 160.6563,826.9375 160.6563,827.4219 L160.6563,828.2969 L156.2969,828.2969 L156.2969,825.875 Z " fill="#000000"/><text fill="#000000" font-family="sans-serif" font-size="14" lengthAdjust="spacing" textLength="131" x="171.5" y="829.8467">ExpressionGender</text><line style="stroke:#181818;stroke-width:0.5;" x1="143.5" x2="304.5" y1="841" y2="841"/><text fill="#000000" font-family="sans-serif" font-size="14" lengthAdjust="spacing" textLength="12" x="148.5" y="857.9951">M</text><text fill="#000000" font-family="sans-serif" font-size="14" lengthAdjust="spacing" textLength="8" x="148.5" y="874.292">F</text><text fill="#000000" font-family="sans-serif" font-size="14" lengthAdjust="spacing" textLength="10" x="148.5" y="890.5889">N</text><line style="stroke:#181818;stroke-width:0.5;" x1="143.5" x2="304.5" y1="897.8906" y2="897.8906"/></g><!--class ExpressionType--><g id="elem_ExpressionType"><rect codeLine="15" fill="#F1F1F1" height="194.6719" id="ExpressionType" rx="2.5" ry="2.5" style="stroke:#181818;stroke-width:0.5;" width="146" x="341" y="760"/><ellipse cx="356" cy="776" fill="#EB937F" rx="11" ry="11" style="stroke:#181818;stroke-width:1.0;"/><path d="M354.7969,776.875 L356.25,776.875 L356.25,776.9844 C356.25,777.3906 356.2813,777.5469 356.3594,777.7031 C356.5156,777.9531 356.7969,778.1094 357.0938,778.1094 C357.3438,778.1094 357.6094,777.9688 357.7656,777.75 C357.8906,777.5938 357.9219,777.4375 357.9219,776.9844 L357.9219,775.0625 C357.9219,774.9063 357.9219,774.8594 357.9063,774.7031 C357.8438,774.2344 357.5313,773.9219 357.0781,773.9219 C356.8281,773.9219 356.5625,774.0625 356.3906,774.2813 C356.2813,774.4531 356.25,774.6094 356.25,775.0625 L356.25,775.1875 L354.7969,775.1875 L354.7969,772.7813 L358.7813,772.7813 L358.7813,773.6406 C358.7813,774.0469 358.8125,774.2188 358.8906,774.375 C359.0625,774.625 359.3438,774.7813 359.625,774.7813 C359.8906,774.7813 360.1563,774.6406 360.3281,774.4219 C360.4375,774.25 360.4688,774.1094 360.4688,773.6406 L360.4688,771.0938 L352.8438,771.0938 C352.4063,771.0938 352.2813,771.1094 352.125,771.2031 C351.875,771.3594 351.7188,771.6563 351.7188,771.9375 C351.7188,772.2188 351.8594,772.4688 352.0781,772.6406 C352.2344,772.75 352.4219,772.7813 352.8438,772.7813 L353.0938,772.7813 L353.0938,779.2969 L352.8438,779.2969 C352.4375,779.2969 352.2813,779.3125 352.125,779.4219 C351.875,779.5938 351.7188,779.8594 351.7188,780.1563 C351.7188,780.4219 351.8594,780.6719 352.0781,780.8281 C352.2188,780.9531 352.4531,781 352.8438,781 L360.8438,781 L360.8438,778.4219 C360.8438,777.9844 360.8125,777.8438 360.7344,777.6875 C360.5625,777.4375 360.2813,777.2813 360,777.2813 C359.7344,777.2813 359.4688,777.3906 359.2969,777.6406 C359.1875,777.7969 359.1563,777.9375 359.1563,778.4219 L359.1563,779.2969 L354.7969,779.2969 L354.7969,776.875 Z " fill="#000000"/><text fill="#000000" font-family="sans-serif" font-size="14" lengthAdjust="spacing" textLength="114" x="370" y="780.8467">ExpressionType</text><line style="stroke:#181818;stroke-width:0.5;" x1="342" x2="486" y1="792" y2="792"/><text fill="#000000" font-family="sans-serif" font-size="14" lengthAdjust="spacing" textLength="40" x="347" y="808.9951">NOUN</text><text fill="#000000" font-family="sans-serif" font-size="14" lengthAdjust="spacing" textLength="39" x="347" y="825.292">VERB</text><text fill="#000000" font-family="sans-serif" font-size="14" lengthAdjust="spacing" textLength="76" x="347" y="841.5889">ADJECTIVE</text><text fill="#000000" font-family="sans-serif" font-size="14" lengthAdjust="spacing" textLength="60" x="347" y="857.8857">ADVERB</text><text fill="#000000" font-family="sans-serif" font-size="14" lengthAdjust="spacing" textLength="70" x="347" y="874.1826">PRONOUN</text><text fill="#000000" font-family="sans-serif" font-size="14" lengthAdjust="spacing" textLength="95" x="347" y="890.4795">PREPOSITION</text><text fill="#000000" font-family="sans-serif" font-size="14" lengthAdjust="spacing" textLength="98" x="347" y="906.7764">CONJUNCTION</text><text fill="#000000" font-family="sans-serif" font-size="14" lengthAdjust="spacing" textLength="99" x="347" y="923.0732">INTERJECTION</text><text fill="#000000" font-family="sans-serif" font-size="14" lengthAdjust="spacing" textLength="69" x="347" y="939.3701">PARTICLE</text><line style="stroke:#181818;stroke-width:0.5;" x1="342" x2="486" y1="946.6719" y2="946.6719"/></g><!--class Role--><g id="elem_Role"><rect codeLine="27" fill="#F1F1F1" height="80.5938" id="Role" rx="2.5" ry="2.5" style="stroke:#181818;stroke-width:0.5;" width="64" x="978" y="817"/><ellipse cx="993" cy="833" fill="#EB937F" rx="11" ry="11" style="stroke:#181818;stroke-width:1.0;"/><path d="M991.7969,833.875 L993.25,833.875 L993.25,833.9844 C993.25,834.3906 993.2813,834.5469 993.3594,834.7031 C993.5156,834.9531 993.7969,835.1094 994.0938,835.1094 C994.3438,835.1094 994.6094,834.9688 994.7656,834.75 C994.8906,834.5938 994.9219,834.4375 994.9219,833.9844 L994.9219,832.0625 C994.9219,831.9063 994.9219,831.8594 994.9063,831.7031 C994.8438,831.2344 994.5313,830.9219 994.0781,830.9219 C993.8281,830.9219 993.5625,831.0625 993.3906,831.2813 C993.2813,831.4531 993.25,831.6094 993.25,832.0625 L993.25,832.1875 L991.7969,832.1875 L991.7969,829.7813 L995.7813,829.7813 L995.7813,830.6406 C995.7813,831.0469 995.8125,831.2188 995.8906,831.375 C996.0625,831.625 996.3438,831.7813 996.625,831.7813 C996.8906,831.7813 997.1563,831.6406 997.3281,831.4219 C997.4375,831.25 997.4688,831.1094 997.4688,830.6406 L997.4688,828.0938 L989.8438,828.0938 C989.4063,828.0938 989.2813,828.1094 989.125,828.2031 C988.875,828.3594 988.7188,828.6563 988.7188,828.9375 C988.7188,829.2188 988.8594,829.4688 989.0781,829.6406 C989.2344,829.75 989.4219,829.7813 989.8438,829.7813 L990.0938,829.7813 L990.0938,836.2969 L989.8438,836.2969 C989.4375,836.2969 989.2813,836.3125 989.125,836.4219 C988.875,836.5938 988.7188,836.8594 988.7188,837.1563 C988.7188,837.4219 988.8594,837.6719 989.0781,837.8281 C989.2188,837.9531 989.4531,838 989.8438,838 L997.8438,838 L997.8438,835.4219 C997.8438,834.9844 997.8125,834.8438 997.7344,834.6875 C997.5625,834.4375 997.2813,834.2813 997,834.2813 C996.7344,834.2813 996.4688,834.3906 996.2969,834.6406 C996.1875,834.7969 996.1563,834.9375 996.1563,835.4219 L996.1563,836.2969 L991.7969,836.2969 L991.7969,833.875 Z " fill="#000000"/><text fill="#000000" font-family="sans-serif" font-size="14" lengthAdjust="spacing" textLength="32" x="1007" y="837.8467">Role</text><line style="stroke:#181818;stroke-width:0.5;" x1="979" x2="1041" y1="849" y2="849"/><text fill="#000000" font-family="sans-serif" font-size="14" lengthAdjust="spacing" textLength="37" x="984" y="865.9951">USER</text><text fill="#000000" font-family="sans-serif" font-size="14" lengthAdjust="spacing" textLength="47" x="984" y="882.292">ADMIN</text><line style="stroke:#181818;stroke-width:0.5;" x1="979" x2="1041" y1="889.5938" y2="889.5938"/></g><!--class Like--><g id="elem_Like"><rect codeLine="32" fill="#F1F1F1" height="145.7813" id="Like" rx="2.5" ry="2.5" style="stroke:#181818;stroke-width:0.5;" width="191" x="575.5" y="80"/><ellipse cx="651.75" cy="96" fill="#ADD1B2" rx="11" ry="11" style="stroke:#181818;stroke-width:1.0;"/><path d="M650.5469,96.875 L652,96.875 L652,96.9844 C652,97.3906 652.0313,97.5469 652.1094,97.7031 C652.2656,97.9531 652.5469,98.1094 652.8438,98.1094 C653.0938,98.1094 653.3594,97.9688 653.5156,97.75 C653.6406,97.5938 653.6719,97.4375 653.6719,96.9844 L653.6719,95.0625 C653.6719,94.9063 653.6719,94.8594 653.6563,94.7031 C653.5938,94.2344 653.2813,93.9219 652.8281,93.9219 C652.5781,93.9219 652.3125,94.0625 652.1406,94.2813 C652.0313,94.4531 652,94.6094 652,95.0625 L652,95.1875 L650.5469,95.1875 L650.5469,92.7813 L654.5313,92.7813 L654.5313,93.6406 C654.5313,94.0469 654.5625,94.2188 654.6406,94.375 C654.8125,94.625 655.0938,94.7813 655.375,94.7813 C655.6406,94.7813 655.9063,94.6406 656.0781,94.4219 C656.1875,94.25 656.2188,94.1094 656.2188,93.6406 L656.2188,91.0938 L648.5938,91.0938 C648.1563,91.0938 648.0313,91.1094 647.875,91.2031 C647.625,91.3594 647.4688,91.6563 647.4688,91.9375 C647.4688,92.2188 647.6094,92.4688 647.8281,92.6406 C647.9844,92.75 648.1719,92.7813 648.5938,92.7813 L648.8438,92.7813 L648.8438,99.2969 L648.5938,99.2969 C648.1875,99.2969 648.0313,99.3125 647.875,99.4219 C647.625,99.5938 647.4688,99.8594 647.4688,100.1563 C647.4688,100.4219 647.6094,100.6719 647.8281,100.8281 C647.9688,100.9531 648.2031,101 648.5938,101 L656.5938,101 L656.5938,98.4219 C656.5938,97.9844 656.5625,97.8438 656.4844,97.6875 C656.3125,97.4375 656.0313,97.2813 655.75,97.2813 C655.4844,97.2813 655.2188,97.3906 655.0469,97.6406 C654.9375,97.7969 654.9063,97.9375 654.9063,98.4219 L654.9063,99.2969 L650.5469,99.2969 L650.5469,96.875 Z " fill="#000000"/><text fill="#000000" font-family="sans-serif" font-size="14" lengthAdjust="spacing" textLength="30" x="672.25" y="100.8467">Like</text><line style="stroke:#181818;stroke-width:0.5;" x1="576.5" x2="765.5" y1="112" y2="112"/><ellipse cx="586.5" cy="125.6484" fill="#000000" rx="3" ry="3" style="stroke:#000000;stroke-width:1.0;"/><text fill="#000000" font-family="sans-serif" font-size="14" lengthAdjust="spacing" textLength="165" x="595.5" y="128.9951">expression: Expression</text><ellipse cx="586.5" cy="141.9453" fill="#000000" rx="3" ry="3" style="stroke:#000000;stroke-width:1.0;"/><text fill="#000000" font-family="sans-serif" font-size="14" lengthAdjust="spacing" textLength="144" x="595.5" y="145.292">expressionId: String</text><ellipse cx="586.5" cy="158.2422" fill="#000000" rx="3" ry="3" style="stroke:#000000;stroke-width:1.0;"/><text fill="#000000" font-family="sans-serif" font-size="14" lengthAdjust="spacing" textLength="87" x="595.5" y="161.5889">author: User</text><ellipse cx="586.5" cy="174.5391" fill="#000000" rx="3" ry="3" style="stroke:#000000;stroke-width:1.0;"/><text fill="#000000" font-family="sans-serif" font-size="14" lengthAdjust="spacing" textLength="113" x="595.5" y="177.8857">authorId: String</text><ellipse cx="586.5" cy="190.8359" fill="#000000" rx="3" ry="3" style="stroke:#000000;stroke-width:1.0;"/><text fill="#000000" font-family="sans-serif" font-size="14" lengthAdjust="spacing" textLength="153" x="595.5" y="194.1826">createdAt: DateTime</text><text fill="#000000" font-family="sans-serif" font-size="14" lengthAdjust="spacing" textLength="164" x="595.5" y="210.4795">updatedAt: DateTime?</text><line style="stroke:#181818;stroke-width:0.5;" x1="576.5" x2="765.5" y1="217.7813" y2="217.7813"/></g><!--class Dislike--><g id="elem_Dislike"><rect codeLine="41" fill="#F1F1F1" height="145.7813" id="Dislike" rx="2.5" ry="2.5" style="stroke:#181818;stroke-width:0.5;" width="191" x="123.5" y="80"/><ellipse cx="190.75" cy="96" fill="#ADD1B2" rx="11" ry="11" style="stroke:#181818;stroke-width:1.0;"/><path d="M189.5469,96.875 L191,96.875 L191,96.9844 C191,97.3906 191.0313,97.5469 191.1094,97.7031 C191.2656,97.9531 191.5469,98.1094 191.8438,98.1094 C192.0938,98.1094 192.3594,97.9688 192.5156,97.75 C192.6406,97.5938 192.6719,97.4375 192.6719,96.9844 L192.6719,95.0625 C192.6719,94.9063 192.6719,94.8594 192.6563,94.7031 C192.5938,94.2344 192.2813,93.9219 191.8281,93.9219 C191.5781,93.9219 191.3125,94.0625 191.1406,94.2813 C191.0313,94.4531 191,94.6094 191,95.0625 L191,95.1875 L189.5469,95.1875 L189.5469,92.7813 L193.5313,92.7813 L193.5313,93.6406 C193.5313,94.0469 193.5625,94.2188 193.6406,94.375 C193.8125,94.625 194.0938,94.7813 194.375,94.7813 C194.6406,94.7813 194.9063,94.6406 195.0781,94.4219 C195.1875,94.25 195.2188,94.1094 195.2188,93.6406 L195.2188,91.0938 L187.5938,91.0938 C187.1563,91.0938 187.0313,91.1094 186.875,91.2031 C186.625,91.3594 186.4688,91.6563 186.4688,91.9375 C186.4688,92.2188 186.6094,92.4688 186.8281,92.6406 C186.9844,92.75 187.1719,92.7813 187.5938,92.7813 L187.8438,92.7813 L187.8438,99.2969 L187.5938,99.2969 C187.1875,99.2969 187.0313,99.3125 186.875,99.4219 C186.625,99.5938 186.4688,99.8594 186.4688,100.1563 C186.4688,100.4219 186.6094,100.6719 186.8281,100.8281 C186.9688,100.9531 187.2031,101 187.5938,101 L195.5938,101 L195.5938,98.4219 C195.5938,97.9844 195.5625,97.8438 195.4844,97.6875 C195.3125,97.4375 195.0313,97.2813 194.75,97.2813 C194.4844,97.2813 194.2188,97.3906 194.0469,97.6406 C193.9375,97.7969 193.9063,97.9375 193.9063,98.4219 L193.9063,99.2969 L189.5469,99.2969 L189.5469,96.875 Z " fill="#000000"/><text fill="#000000" font-family="sans-serif" font-size="14" lengthAdjust="spacing" textLength="48" x="211.25" y="100.8467">Dislike</text><line style="stroke:#181818;stroke-width:0.5;" x1="124.5" x2="313.5" y1="112" y2="112"/><ellipse cx="134.5" cy="125.6484" fill="#000000" rx="3" ry="3" style="stroke:#000000;stroke-width:1.0;"/><text fill="#000000" font-family="sans-serif" font-size="14" lengthAdjust="spacing" textLength="165" x="143.5" y="128.9951">expression: Expression</text><ellipse cx="134.5" cy="141.9453" fill="#000000" rx="3" ry="3" style="stroke:#000000;stroke-width:1.0;"/><text fill="#000000" font-family="sans-serif" font-size="14" lengthAdjust="spacing" textLength="144" x="143.5" y="145.292">expressionId: String</text><ellipse cx="134.5" cy="158.2422" fill="#000000" rx="3" ry="3" style="stroke:#000000;stroke-width:1.0;"/><text fill="#000000" font-family="sans-serif" font-size="14" lengthAdjust="spacing" textLength="87" x="143.5" y="161.5889">author: User</text><ellipse cx="134.5" cy="174.5391" fill="#000000" rx="3" ry="3" style="stroke:#000000;stroke-width:1.0;"/><text fill="#000000" font-family="sans-serif" font-size="14" lengthAdjust="spacing" textLength="113" x="143.5" y="177.8857">authorId: String</text><ellipse cx="134.5" cy="190.8359" fill="#000000" rx="3" ry="3" style="stroke:#000000;stroke-width:1.0;"/><text fill="#000000" font-family="sans-serif" font-size="14" lengthAdjust="spacing" textLength="153" x="143.5" y="194.1826">createdAt: DateTime</text><text fill="#000000" font-family="sans-serif" font-size="14" lengthAdjust="spacing" textLength="164" x="143.5" y="210.4795">updatedAt: DateTime?</text><line style="stroke:#181818;stroke-width:0.5;" x1="124.5" x2="313.5" y1="217.7813" y2="217.7813"/></g><!--class Flag--><g id="elem_Flag"><rect codeLine="50" fill="#F1F1F1" height="145.7813" id="Flag" rx="2.5" ry="2.5" style="stroke:#181818;stroke-width:0.5;" width="191" x="349.5" y="80"/><ellipse cx="426.25" cy="96" fill="#ADD1B2" rx="11" ry="11" style="stroke:#181818;stroke-width:1.0;"/><path d="M425.0469,96.875 L426.5,96.875 L426.5,96.9844 C426.5,97.3906 426.5313,97.5469 426.6094,97.7031 C426.7656,97.9531 427.0469,98.1094 427.3438,98.1094 C427.5938,98.1094 427.8594,97.9688 428.0156,97.75 C428.1406,97.5938 428.1719,97.4375 428.1719,96.9844 L428.1719,95.0625 C428.1719,94.9063 428.1719,94.8594 428.1563,94.7031 C428.0938,94.2344 427.7813,93.9219 427.3281,93.9219 C427.0781,93.9219 426.8125,94.0625 426.6406,94.2813 C426.5313,94.4531 426.5,94.6094 426.5,95.0625 L426.5,95.1875 L425.0469,95.1875 L425.0469,92.7813 L429.0313,92.7813 L429.0313,93.6406 C429.0313,94.0469 429.0625,94.2188 429.1406,94.375 C429.3125,94.625 429.5938,94.7813 429.875,94.7813 C430.1406,94.7813 430.4063,94.6406 430.5781,94.4219 C430.6875,94.25 430.7188,94.1094 430.7188,93.6406 L430.7188,91.0938 L423.0938,91.0938 C422.6563,91.0938 422.5313,91.1094 422.375,91.2031 C422.125,91.3594 421.9688,91.6563 421.9688,91.9375 C421.9688,92.2188 422.1094,92.4688 422.3281,92.6406 C422.4844,92.75 422.6719,92.7813 423.0938,92.7813 L423.3438,92.7813 L423.3438,99.2969 L423.0938,99.2969 C422.6875,99.2969 422.5313,99.3125 422.375,99.4219 C422.125,99.5938 421.9688,99.8594 421.9688,100.1563 C421.9688,100.4219 422.1094,100.6719 422.3281,100.8281 C422.4688,100.9531 422.7031,101 423.0938,101 L431.0938,101 L431.0938,98.4219 C431.0938,97.9844 431.0625,97.8438 430.9844,97.6875 C430.8125,97.4375 430.5313,97.2813 430.25,97.2813 C429.9844,97.2813 429.7188,97.3906 429.5469,97.6406 C429.4375,97.7969 429.4063,97.9375 429.4063,98.4219 L429.4063,99.2969 L425.0469,99.2969 L425.0469,96.875 Z " fill="#000000"/><text fill="#000000" font-family="sans-serif" font-size="14" lengthAdjust="spacing" textLength="29" x="446.75" y="100.8467">Flag</text><line style="stroke:#181818;stroke-width:0.5;" x1="350.5" x2="539.5" y1="112" y2="112"/><ellipse cx="360.5" cy="125.6484" fill="#000000" rx="3" ry="3" style="stroke:#000000;stroke-width:1.0;"/><text fill="#000000" font-family="sans-serif" font-size="14" lengthAdjust="spacing" textLength="165" x="369.5" y="128.9951">expression: Expression</text><ellipse cx="360.5" cy="141.9453" fill="#000000" rx="3" ry="3" style="stroke:#000000;stroke-width:1.0;"/><text fill="#000000" font-family="sans-serif" font-size="14" lengthAdjust="spacing" textLength="144" x="369.5" y="145.292">expressionId: String</text><ellipse cx="360.5" cy="158.2422" fill="#000000" rx="3" ry="3" style="stroke:#000000;stroke-width:1.0;"/><text fill="#000000" font-family="sans-serif" font-size="14" lengthAdjust="spacing" textLength="87" x="369.5" y="161.5889">author: User</text><ellipse cx="360.5" cy="174.5391" fill="#000000" rx="3" ry="3" style="stroke:#000000;stroke-width:1.0;"/><text fill="#000000" font-family="sans-serif" font-size="14" lengthAdjust="spacing" textLength="113" x="369.5" y="177.8857">authorId: String</text><ellipse cx="360.5" cy="190.8359" fill="#000000" rx="3" ry="3" style="stroke:#000000;stroke-width:1.0;"/><text fill="#000000" font-family="sans-serif" font-size="14" lengthAdjust="spacing" textLength="153" x="369.5" y="194.1826">createdAt: DateTime</text><text fill="#000000" font-family="sans-serif" font-size="14" lengthAdjust="spacing" textLength="164" x="369.5" y="210.4795">updatedAt: DateTime?</text><line style="stroke:#181818;stroke-width:0.5;" x1="350.5" x2="539.5" y1="217.7813" y2="217.7813"/></g><!--class Expression--><g id="elem_Expression"><rect codeLine="59" fill="#F1F1F1" height="341.3438" id="Expression" rx="2.5" ry="2.5" style="stroke:#181818;stroke-width:0.5;" width="254" x="318" y="359"/><ellipse cx="401.75" cy="375" fill="#ADD1B2" rx="11" ry="11" style="stroke:#181818;stroke-width:1.0;"/><path d="M400.5469,375.875 L402,375.875 L402,375.9844 C402,376.3906 402.0313,376.5469 402.1094,376.7031 C402.2656,376.9531 402.5469,377.1094 402.8438,377.1094 C403.0938,377.1094 403.3594,376.9688 403.5156,376.75 C403.6406,376.5938 403.6719,376.4375 403.6719,375.9844 L403.6719,374.0625 C403.6719,373.9063 403.6719,373.8594 403.6563,373.7031 C403.5938,373.2344 403.2813,372.9219 402.8281,372.9219 C402.5781,372.9219 402.3125,373.0625 402.1406,373.2813 C402.0313,373.4531 402,373.6094 402,374.0625 L402,374.1875 L400.5469,374.1875 L400.5469,371.7813 L404.5313,371.7813 L404.5313,372.6406 C404.5313,373.0469 404.5625,373.2188 404.6406,373.375 C404.8125,373.625 405.0938,373.7813 405.375,373.7813 C405.6406,373.7813 405.9063,373.6406 406.0781,373.4219 C406.1875,373.25 406.2188,373.1094 406.2188,372.6406 L406.2188,370.0938 L398.5938,370.0938 C398.1563,370.0938 398.0313,370.1094 397.875,370.2031 C397.625,370.3594 397.4688,370.6563 397.4688,370.9375 C397.4688,371.2188 397.6094,371.4688 397.8281,371.6406 C397.9844,371.75 398.1719,371.7813 398.5938,371.7813 L398.8438,371.7813 L398.8438,378.2969 L398.5938,378.2969 C398.1875,378.2969 398.0313,378.3125 397.875,378.4219 C397.625,378.5938 397.4688,378.8594 397.4688,379.1563 C397.4688,379.4219 397.6094,379.6719 397.8281,379.8281 C397.9688,379.9531 398.2031,380 398.5938,380 L406.5938,380 L406.5938,377.4219 C406.5938,376.9844 406.5625,376.8438 406.4844,376.6875 C406.3125,376.4375 406.0313,376.2813 405.75,376.2813 C405.4844,376.2813 405.2188,376.3906 405.0469,376.6406 C404.9375,376.7969 404.9063,376.9375 404.9063,377.4219 L404.9063,378.2969 L400.5469,378.2969 L400.5469,375.875 Z " fill="#000000"/><text fill="#000000" font-family="sans-serif" font-size="14" lengthAdjust="spacing" textLength="78" x="422.25" y="379.8467">Expression</text><line style="stroke:#181818;stroke-width:0.5;" x1="319" x2="571" y1="391" y2="391"/><ellipse cx="329" cy="404.6484" fill="#000000" rx="3" ry="3" style="stroke:#000000;stroke-width:1.0;"/><text fill="#000000" font-family="sans-serif" font-size="14" lengthAdjust="spacing" textLength="66" x="338" y="407.9951">id: String</text><ellipse cx="329" cy="420.9453" fill="#000000" rx="3" ry="3" style="stroke:#000000;stroke-width:1.0;"/><text fill="#000000" font-family="sans-serif" font-size="14" lengthAdjust="spacing" textLength="84" x="338" y="424.292">title: String</text><text fill="#000000" font-family="sans-serif" font-size="14" lengthAdjust="spacing" textLength="130" x="338" y="440.5889">definition: String?</text><ellipse cx="329" cy="453.5391" fill="#000000" rx="3" ry="3" style="stroke:#000000;stroke-width:1.0;"/><text fill="#000000" font-family="sans-serif" font-size="14" lengthAdjust="spacing" textLength="137" x="338" y="456.8857">published: Boolean</text><text fill="#000000" font-family="sans-serif" font-size="14" lengthAdjust="spacing" textLength="94" x="338" y="473.1826">author: User?</text><text fill="#000000" font-family="sans-serif" font-size="14" lengthAdjust="spacing" textLength="120" x="338" y="489.4795">authorId: String?</text><ellipse cx="329" cy="502.4297" fill="#000000" rx="3" ry="3" style="stroke:#000000;stroke-width:1.0;"/><text fill="#000000" font-family="sans-serif" font-size="14" lengthAdjust="spacing" textLength="82" x="338" y="505.7764">likes: Like[]</text><ellipse cx="329" cy="518.7266" fill="#000000" rx="3" ry="3" style="stroke:#000000;stroke-width:1.0;"/><text fill="#000000" font-family="sans-serif" font-size="14" lengthAdjust="spacing" textLength="120" x="338" y="522.0732">dislikes: Dislike[]</text><ellipse cx="329" cy="535.0234" fill="#000000" rx="3" ry="3" style="stroke:#000000;stroke-width:1.0;"/><text fill="#000000" font-family="sans-serif" font-size="14" lengthAdjust="spacing" textLength="153" x="338" y="538.3701">createdAt: DateTime</text><text fill="#000000" font-family="sans-serif" font-size="14" lengthAdjust="spacing" textLength="164" x="338" y="554.667">updatedAt: DateTime?</text><ellipse cx="329" cy="567.6172" fill="#000000" rx="3" ry="3" style="stroke:#000000;stroke-width:1.0;"/><text fill="#000000" font-family="sans-serif" font-size="14" lengthAdjust="spacing" textLength="102" x="338" y="570.9639">flagged: Flag[]</text><ellipse cx="329" cy="583.9141" fill="#000000" rx="3" ry="3" style="stroke:#000000;stroke-width:1.0;"/><text fill="#000000" font-family="sans-serif" font-size="14" lengthAdjust="spacing" textLength="120" x="338" y="587.2607">cantons: String[]</text><ellipse cx="329" cy="600.2109" fill="#000000" rx="3" ry="3" style="stroke:#000000;stroke-width:1.0;"/><text fill="#000000" font-family="sans-serif" font-size="14" lengthAdjust="spacing" textLength="141" x="338" y="603.5576">language: Language</text><ellipse cx="329" cy="616.5078" fill="#000000" rx="3" ry="3" style="stroke:#000000;stroke-width:1.0;"/><text fill="#000000" font-family="sans-serif" font-size="14" lengthAdjust="spacing" textLength="166" x="338" y="619.8545">synonymOf: Synonym[]</text><ellipse cx="329" cy="632.8047" fill="#000000" rx="3" ry="3" style="stroke:#000000;stroke-width:1.0;"/><text fill="#000000" font-family="sans-serif" font-size="14" lengthAdjust="spacing" textLength="156" x="338" y="636.1514">synonyms: Synonym[]</text><ellipse cx="329" cy="649.1016" fill="#000000" rx="3" ry="3" style="stroke:#000000;stroke-width:1.0;"/><text fill="#000000" font-family="sans-serif" font-size="14" lengthAdjust="spacing" textLength="228" x="338" y="652.4482">examples: ExpressionExample[]</text><text fill="#000000" font-family="sans-serif" font-size="14" lengthAdjust="spacing" textLength="198" x="338" y="668.7451">gender: ExpressionGender?</text><text fill="#000000" font-family="sans-serif" font-size="14" lengthAdjust="spacing" textLength="164" x="338" y="685.042">type: ExpressionType?</text><line style="stroke:#181818;stroke-width:0.5;" x1="319" x2="571" y1="692.3438" y2="692.3438"/></g><!--class ExpressionExample--><g id="elem_ExpressionExample"><rect codeLine="80" fill="#F1F1F1" height="194.6719" id="ExpressionExample" rx="2.5" ry="2.5" style="stroke:#181818;stroke-width:0.5;" width="191" x="522.5" y="760"/><ellipse cx="546.05" cy="776" fill="#ADD1B2" rx="11" ry="11" style="stroke:#181818;stroke-width:1.0;"/><path d="M544.8469,776.875 L546.3,776.875 L546.3,776.9844 C546.3,777.3906 546.3313,777.5469 546.4094,777.7031 C546.5656,777.9531 546.8469,778.1094 547.1438,778.1094 C547.3938,778.1094 547.6594,777.9688 547.8156,777.75 C547.9406,777.5938 547.9719,777.4375 547.9719,776.9844 L547.9719,775.0625 C547.9719,774.9063 547.9719,774.8594 547.9563,774.7031 C547.8938,774.2344 547.5813,773.9219 547.1281,773.9219 C546.8781,773.9219 546.6125,774.0625 546.4406,774.2813 C546.3313,774.4531 546.3,774.6094 546.3,775.0625 L546.3,775.1875 L544.8469,775.1875 L544.8469,772.7813 L548.8313,772.7813 L548.8313,773.6406 C548.8313,774.0469 548.8625,774.2188 548.9406,774.375 C549.1125,774.625 549.3938,774.7813 549.675,774.7813 C549.9406,774.7813 550.2063,774.6406 550.3781,774.4219 C550.4875,774.25 550.5188,774.1094 550.5188,773.6406 L550.5188,771.0938 L542.8938,771.0938 C542.4563,771.0938 542.3313,771.1094 542.175,771.2031 C541.925,771.3594 541.7688,771.6563 541.7688,771.9375 C541.7688,772.2188 541.9094,772.4688 542.1281,772.6406 C542.2844,772.75 542.4719,772.7813 542.8938,772.7813 L543.1438,772.7813 L543.1438,779.2969 L542.8938,779.2969 C542.4875,779.2969 542.3313,779.3125 542.175,779.4219 C541.925,779.5938 541.7688,779.8594 541.7688,780.1563 C541.7688,780.4219 541.9094,780.6719 542.1281,780.8281 C542.2688,780.9531 542.5031,781 542.8938,781 L550.8938,781 L550.8938,778.4219 C550.8938,777.9844 550.8625,777.8438 550.7844,777.6875 C550.6125,777.4375 550.3313,777.2813 550.05,777.2813 C549.7844,777.2813 549.5188,777.3906 549.3469,777.6406 C549.2375,777.7969 549.2063,777.9375 549.2063,778.4219 L549.2063,779.2969 L544.8469,779.2969 L544.8469,776.875 Z " fill="#000000"/><text fill="#000000" font-family="sans-serif" font-size="14" lengthAdjust="spacing" textLength="140" x="561.95" y="780.8467">ExpressionExample</text><line style="stroke:#181818;stroke-width:0.5;" x1="523.5" x2="712.5" y1="792" y2="792"/><ellipse cx="533.5" cy="805.6484" fill="#000000" rx="3" ry="3" style="stroke:#000000;stroke-width:1.0;"/><text fill="#000000" font-family="sans-serif" font-size="14" lengthAdjust="spacing" textLength="66" x="542.5" y="808.9951">id: String</text><ellipse cx="533.5" cy="821.9453" fill="#000000" rx="3" ry="3" style="stroke:#000000;stroke-width:1.0;"/><text fill="#000000" font-family="sans-serif" font-size="14" lengthAdjust="spacing" textLength="153" x="542.5" y="825.292">createdAt: DateTime</text><text fill="#000000" font-family="sans-serif" font-size="14" lengthAdjust="spacing" textLength="164" x="542.5" y="841.5889">updatedAt: DateTime?</text><ellipse cx="533.5" cy="854.5391" fill="#000000" rx="3" ry="3" style="stroke:#000000;stroke-width:1.0;"/><text fill="#000000" font-family="sans-serif" font-size="14" lengthAdjust="spacing" textLength="165" x="542.5" y="857.8857">expression: Expression</text><ellipse cx="533.5" cy="870.8359" fill="#000000" rx="3" ry="3" style="stroke:#000000;stroke-width:1.0;"/><text fill="#000000" font-family="sans-serif" font-size="14" lengthAdjust="spacing" textLength="144" x="542.5" y="874.1826">expressionId: String</text><ellipse cx="533.5" cy="887.1328" fill="#000000" rx="3" ry="3" style="stroke:#000000;stroke-width:1.0;"/><text fill="#000000" font-family="sans-serif" font-size="14" lengthAdjust="spacing" textLength="123" x="542.5" y="890.4795">definition: String</text><text fill="#000000" font-family="sans-serif" font-size="14" lengthAdjust="spacing" textLength="94" x="542.5" y="906.7764">author: User?</text><text fill="#000000" font-family="sans-serif" font-size="14" lengthAdjust="spacing" textLength="120" x="542.5" y="923.0732">authorId: String?</text><ellipse cx="533.5" cy="936.0234" fill="#000000" rx="3" ry="3" style="stroke:#000000;stroke-width:1.0;"/><text fill="#000000" font-family="sans-serif" font-size="14" lengthAdjust="spacing" textLength="120" x="542.5" y="939.3701">cantons: String[]</text><line style="stroke:#181818;stroke-width:0.5;" x1="523.5" x2="712.5" y1="946.6719" y2="946.6719"/></g><!--class Synonym--><g id="elem_Synonym"><rect codeLine="92" fill="#F1F1F1" height="113.1875" id="Synonym" rx="2.5" ry="2.5" style="stroke:#181818;stroke-width:0.5;" width="194" x="749" y="801"/><ellipse cx="808.75" cy="817" fill="#ADD1B2" rx="11" ry="11" style="stroke:#181818;stroke-width:1.0;"/><path d="M807.5469,817.875 L809,817.875 L809,817.9844 C809,818.3906 809.0313,818.5469 809.1094,818.7031 C809.2656,818.9531 809.5469,819.1094 809.8438,819.1094 C810.0938,819.1094 810.3594,818.9688 810.5156,818.75 C810.6406,818.5938 810.6719,818.4375 810.6719,817.9844 L810.6719,816.0625 C810.6719,815.9063 810.6719,815.8594 810.6563,815.7031 C810.5938,815.2344 810.2813,814.9219 809.8281,814.9219 C809.5781,814.9219 809.3125,815.0625 809.1406,815.2813 C809.0313,815.4531 809,815.6094 809,816.0625 L809,816.1875 L807.5469,816.1875 L807.5469,813.7813 L811.5313,813.7813 L811.5313,814.6406 C811.5313,815.0469 811.5625,815.2188 811.6406,815.375 C811.8125,815.625 812.0938,815.7813 812.375,815.7813 C812.6406,815.7813 812.9063,815.6406 813.0781,815.4219 C813.1875,815.25 813.2188,815.1094 813.2188,814.6406 L813.2188,812.0938 L805.5938,812.0938 C805.1563,812.0938 805.0313,812.1094 804.875,812.2031 C804.625,812.3594 804.4688,812.6563 804.4688,812.9375 C804.4688,813.2188 804.6094,813.4688 804.8281,813.6406 C804.9844,813.75 805.1719,813.7813 805.5938,813.7813 L805.8438,813.7813 L805.8438,820.2969 L805.5938,820.2969 C805.1875,820.2969 805.0313,820.3125 804.875,820.4219 C804.625,820.5938 804.4688,820.8594 804.4688,821.1563 C804.4688,821.4219 804.6094,821.6719 804.8281,821.8281 C804.9688,821.9531 805.2031,822 805.5938,822 L813.5938,822 L813.5938,819.4219 C813.5938,818.9844 813.5625,818.8438 813.4844,818.6875 C813.3125,818.4375 813.0313,818.2813 812.75,818.2813 C812.4844,818.2813 812.2188,818.3906 812.0469,818.6406 C811.9375,818.7969 811.9063,818.9375 811.9063,819.4219 L811.9063,820.2969 L807.5469,820.2969 L807.5469,817.875 Z " fill="#000000"/><text fill="#000000" font-family="sans-serif" font-size="14" lengthAdjust="spacing" textLength="66" x="829.25" y="821.8467">Synonym</text><line style="stroke:#181818;stroke-width:0.5;" x1="750" x2="942" y1="833" y2="833"/><ellipse cx="760" cy="846.6484" fill="#000000" rx="3" ry="3" style="stroke:#000000;stroke-width:1.0;"/><text fill="#000000" font-family="sans-serif" font-size="14" lengthAdjust="spacing" textLength="168" x="769" y="849.9951">synonymOf: Expression</text><ellipse cx="760" cy="862.9453" fill="#000000" rx="3" ry="3" style="stroke:#000000;stroke-width:1.0;"/><text fill="#000000" font-family="sans-serif" font-size="14" lengthAdjust="spacing" textLength="147" x="769" y="866.292">synonymOfId: String</text><ellipse cx="760" cy="879.2422" fill="#000000" rx="3" ry="3" style="stroke:#000000;stroke-width:1.0;"/><text fill="#000000" font-family="sans-serif" font-size="14" lengthAdjust="spacing" textLength="151" x="769" y="882.5889">synonym: Expression</text><ellipse cx="760" cy="895.5391" fill="#000000" rx="3" ry="3" style="stroke:#000000;stroke-width:1.0;"/><text fill="#000000" font-family="sans-serif" font-size="14" lengthAdjust="spacing" textLength="130" x="769" y="898.8857">synonymId: String</text><line style="stroke:#181818;stroke-width:0.5;" x1="750" x2="942" y1="906.1875" y2="906.1875"/></g><!--class Account--><g id="elem_Account"><rect codeLine="99" fill="#F1F1F1" height="292.4531" id="Account" rx="2.5" ry="2.5" style="stroke:#181818;stroke-width:0.5;" width="230" x="817" y="7"/><ellipse cx="898.25" cy="23" fill="#ADD1B2" rx="11" ry="11" style="stroke:#181818;stroke-width:1.0;"/><path d="M897.0469,23.875 L898.5,23.875 L898.5,23.9844 C898.5,24.3906 898.5313,24.5469 898.6094,24.7031 C898.7656,24.9531 899.0469,25.1094 899.3438,25.1094 C899.5938,25.1094 899.8594,24.9688 900.0156,24.75 C900.1406,24.5938 900.1719,24.4375 900.1719,23.9844 L900.1719,22.0625 C900.1719,21.9063 900.1719,21.8594 900.1563,21.7031 C900.0938,21.2344 899.7813,20.9219 899.3281,20.9219 C899.0781,20.9219 898.8125,21.0625 898.6406,21.2813 C898.5313,21.4531 898.5,21.6094 898.5,22.0625 L898.5,22.1875 L897.0469,22.1875 L897.0469,19.7813 L901.0313,19.7813 L901.0313,20.6406 C901.0313,21.0469 901.0625,21.2188 901.1406,21.375 C901.3125,21.625 901.5938,21.7813 901.875,21.7813 C902.1406,21.7813 902.4063,21.6406 902.5781,21.4219 C902.6875,21.25 902.7188,21.1094 902.7188,20.6406 L902.7188,18.0938 L895.0938,18.0938 C894.6563,18.0938 894.5313,18.1094 894.375,18.2031 C894.125,18.3594 893.9688,18.6563 893.9688,18.9375 C893.9688,19.2188 894.1094,19.4688 894.3281,19.6406 C894.4844,19.75 894.6719,19.7813 895.0938,19.7813 L895.3438,19.7813 L895.3438,26.2969 L895.0938,26.2969 C894.6875,26.2969 894.5313,26.3125 894.375,26.4219 C894.125,26.5938 893.9688,26.8594 893.9688,27.1563 C893.9688,27.4219 894.1094,27.6719 894.3281,27.8281 C894.4688,27.9531 894.7031,28 895.0938,28 L903.0938,28 L903.0938,25.4219 C903.0938,24.9844 903.0625,24.8438 902.9844,24.6875 C902.8125,24.4375 902.5313,24.2813 902.25,24.2813 C901.9844,24.2813 901.7188,24.3906 901.5469,24.6406 C901.4375,24.7969 901.4063,24.9375 901.4063,25.4219 L901.4063,26.2969 L897.0469,26.2969 L897.0469,23.875 Z " fill="#000000"/><text fill="#000000" font-family="sans-serif" font-size="14" lengthAdjust="spacing" textLength="59" x="918.75" y="27.8467">Account</text><line style="stroke:#181818;stroke-width:0.5;" x1="818" x2="1046" y1="39" y2="39"/><ellipse cx="828" cy="52.6484" fill="#000000" rx="3" ry="3" style="stroke:#000000;stroke-width:1.0;"/><text fill="#000000" font-family="sans-serif" font-size="14" lengthAdjust="spacing" textLength="66" x="837" y="55.9951">id: String</text><ellipse cx="828" cy="68.9453" fill="#000000" rx="3" ry="3" style="stroke:#000000;stroke-width:1.0;"/><text fill="#000000" font-family="sans-serif" font-size="14" lengthAdjust="spacing" textLength="96" x="837" y="72.292">userId: String</text><ellipse cx="828" cy="85.2422" fill="#000000" rx="3" ry="3" style="stroke:#000000;stroke-width:1.0;"/><text fill="#000000" font-family="sans-serif" font-size="14" lengthAdjust="spacing" textLength="87" x="837" y="88.5889">type: String</text><ellipse cx="828" cy="101.5391" fill="#000000" rx="3" ry="3" style="stroke:#000000;stroke-width:1.0;"/><text fill="#000000" font-family="sans-serif" font-size="14" lengthAdjust="spacing" textLength="114" x="837" y="104.8857">provider: String</text><ellipse cx="828" cy="117.8359" fill="#000000" rx="3" ry="3" style="stroke:#000000;stroke-width:1.0;"/><text fill="#000000" font-family="sans-serif" font-size="14" lengthAdjust="spacing" textLength="186" x="837" y="121.1826">providerAccountId: String</text><text fill="#000000" font-family="sans-serif" font-size="14" lengthAdjust="spacing" textLength="162" x="837" y="137.4795">refresh_token: String?</text><text fill="#000000" font-family="sans-serif" font-size="14" lengthAdjust="spacing" textLength="157" x="837" y="153.7764">access_token: String?</text><text fill="#000000" font-family="sans-serif" font-size="14" lengthAdjust="spacing" textLength="111" x="837" y="170.0732">expires_at: Int?</text><text fill="#000000" font-family="sans-serif" font-size="14" lengthAdjust="spacing" textLength="144" x="837" y="186.3701">token_type: String?</text><text fill="#000000" font-family="sans-serif" font-size="14" lengthAdjust="spacing" textLength="103" x="837" y="202.667">scope: String?</text><text fill="#000000" font-family="sans-serif" font-size="14" lengthAdjust="spacing" textLength="123" x="837" y="218.9639">id_token: String?</text><text fill="#000000" font-family="sans-serif" font-size="14" lengthAdjust="spacing" textLength="157" x="837" y="235.2607">session_state: String?</text><text fill="#000000" font-family="sans-serif" font-size="14" lengthAdjust="spacing" textLength="204" x="837" y="251.5576">oauth_token_secret: String?</text><text fill="#000000" font-family="sans-serif" font-size="14" lengthAdjust="spacing" textLength="151" x="837" y="267.8545">oauth_token: String?</text><ellipse cx="828" cy="280.8047" fill="#000000" rx="3" ry="3" style="stroke:#000000;stroke-width:1.0;"/><text fill="#000000" font-family="sans-serif" font-size="14" lengthAdjust="spacing" textLength="70" x="837" y="284.1514">user: User</text><line style="stroke:#181818;stroke-width:0.5;" x1="818" x2="1046" y1="291.4531" y2="291.4531"/></g><!--class Session--><g id="elem_Session"><rect codeLine="117" fill="#F1F1F1" height="129.4844" id="Session" rx="2.5" ry="2.5" style="stroke:#181818;stroke-width:0.5;" width="176" x="1082" y="88.5"/><ellipse cx="1138.75" cy="104.5" fill="#ADD1B2" rx="11" ry="11" style="stroke:#181818;stroke-width:1.0;"/><path d="M1137.5469,105.375 L1139,105.375 L1139,105.4844 C1139,105.8906 1139.0313,106.0469 1139.1094,106.2031 C1139.2656,106.4531 1139.5469,106.6094 1139.8438,106.6094 C1140.0938,106.6094 1140.3594,106.4688 1140.5156,106.25 C1140.6406,106.0938 1140.6719,105.9375 1140.6719,105.4844 L1140.6719,103.5625 C1140.6719,103.4063 1140.6719,103.3594 1140.6563,103.2031 C1140.5938,102.7344 1140.2813,102.4219 1139.8281,102.4219 C1139.5781,102.4219 1139.3125,102.5625 1139.1406,102.7813 C1139.0313,102.9531 1139,103.1094 1139,103.5625 L1139,103.6875 L1137.5469,103.6875 L1137.5469,101.2813 L1141.5313,101.2813 L1141.5313,102.1406 C1141.5313,102.5469 1141.5625,102.7188 1141.6406,102.875 C1141.8125,103.125 1142.0938,103.2813 1142.375,103.2813 C1142.6406,103.2813 1142.9063,103.1406 1143.0781,102.9219 C1143.1875,102.75 1143.2188,102.6094 1143.2188,102.1406 L1143.2188,99.5938 L1135.5938,99.5938 C1135.1563,99.5938 1135.0313,99.6094 1134.875,99.7031 C1134.625,99.8594 1134.4688,100.1563 1134.4688,100.4375 C1134.4688,100.7188 1134.6094,100.9688 1134.8281,101.1406 C1134.9844,101.25 1135.1719,101.2813 1135.5938,101.2813 L1135.8438,101.2813 L1135.8438,107.7969 L1135.5938,107.7969 C1135.1875,107.7969 1135.0313,107.8125 1134.875,107.9219 C1134.625,108.0938 1134.4688,108.3594 1134.4688,108.6563 C1134.4688,108.9219 1134.6094,109.1719 1134.8281,109.3281 C1134.9688,109.4531 1135.2031,109.5 1135.5938,109.5 L1143.5938,109.5 L1143.5938,106.9219 C1143.5938,106.4844 1143.5625,106.3438 1143.4844,106.1875 C1143.3125,105.9375 1143.0313,105.7813 1142.75,105.7813 C1142.4844,105.7813 1142.2188,105.8906 1142.0469,106.1406 C1141.9375,106.2969 1141.9063,106.4375 1141.9063,106.9219 L1141.9063,107.7969 L1137.5469,107.7969 L1137.5469,105.375 Z " fill="#000000"/><text fill="#000000" font-family="sans-serif" font-size="14" lengthAdjust="spacing" textLength="54" x="1159.25" y="109.3467">Session</text><line style="stroke:#181818;stroke-width:0.5;" x1="1083" x2="1257" y1="120.5" y2="120.5"/><ellipse cx="1093" cy="134.1484" fill="#000000" rx="3" ry="3" style="stroke:#000000;stroke-width:1.0;"/><text fill="#000000" font-family="sans-serif" font-size="14" lengthAdjust="spacing" textLength="66" x="1102" y="137.4951">id: String</text><ellipse cx="1093" cy="150.4453" fill="#000000" rx="3" ry="3" style="stroke:#000000;stroke-width:1.0;"/><text fill="#000000" font-family="sans-serif" font-size="14" lengthAdjust="spacing" textLength="150" x="1102" y="153.792">sessionToken: String</text><ellipse cx="1093" cy="166.7422" fill="#000000" rx="3" ry="3" style="stroke:#000000;stroke-width:1.0;"/><text fill="#000000" font-family="sans-serif" font-size="14" lengthAdjust="spacing" textLength="96" x="1102" y="170.0889">userId: String</text><ellipse cx="1093" cy="183.0391" fill="#000000" rx="3" ry="3" style="stroke:#000000;stroke-width:1.0;"/><text fill="#000000" font-family="sans-serif" font-size="14" lengthAdjust="spacing" textLength="133" x="1102" y="186.3857">expires: DateTime</text><ellipse cx="1093" cy="199.3359" fill="#000000" rx="3" ry="3" style="stroke:#000000;stroke-width:1.0;"/><text fill="#000000" font-family="sans-serif" font-size="14" lengthAdjust="spacing" textLength="70" x="1102" y="202.6826">user: User</text><line style="stroke:#181818;stroke-width:0.5;" x1="1083" x2="1257" y1="209.9844" y2="209.9844"/></g><!--class User--><g id="elem_User"><rect codeLine="125" fill="#F1F1F1" height="341.3438" id="User" rx="2.5" ry="2.5" style="stroke:#181818;stroke-width:0.5;" width="254" x="867" y="359"/><ellipse cx="974.25" cy="375" fill="#ADD1B2" rx="11" ry="11" style="stroke:#181818;stroke-width:1.0;"/><path d="M973.0469,375.875 L974.5,375.875 L974.5,375.9844 C974.5,376.3906 974.5313,376.5469 974.6094,376.7031 C974.7656,376.9531 975.0469,377.1094 975.3438,377.1094 C975.5938,377.1094 975.8594,376.9688 976.0156,376.75 C976.1406,376.5938 976.1719,376.4375 976.1719,375.9844 L976.1719,374.0625 C976.1719,373.9063 976.1719,373.8594 976.1563,373.7031 C976.0938,373.2344 975.7813,372.9219 975.3281,372.9219 C975.0781,372.9219 974.8125,373.0625 974.6406,373.2813 C974.5313,373.4531 974.5,373.6094 974.5,374.0625 L974.5,374.1875 L973.0469,374.1875 L973.0469,371.7813 L977.0313,371.7813 L977.0313,372.6406 C977.0313,373.0469 977.0625,373.2188 977.1406,373.375 C977.3125,373.625 977.5938,373.7813 977.875,373.7813 C978.1406,373.7813 978.4063,373.6406 978.5781,373.4219 C978.6875,373.25 978.7188,373.1094 978.7188,372.6406 L978.7188,370.0938 L971.0938,370.0938 C970.6563,370.0938 970.5313,370.1094 970.375,370.2031 C970.125,370.3594 969.9688,370.6563 969.9688,370.9375 C969.9688,371.2188 970.1094,371.4688 970.3281,371.6406 C970.4844,371.75 970.6719,371.7813 971.0938,371.7813 L971.3438,371.7813 L971.3438,378.2969 L971.0938,378.2969 C970.6875,378.2969 970.5313,378.3125 970.375,378.4219 C970.125,378.5938 969.9688,378.8594 969.9688,379.1563 C969.9688,379.4219 970.1094,379.6719 970.3281,379.8281 C970.4688,379.9531 970.7031,380 971.0938,380 L979.0938,380 L979.0938,377.4219 C979.0938,376.9844 979.0625,376.8438 978.9844,376.6875 C978.8125,376.4375 978.5313,376.2813 978.25,376.2813 C977.9844,376.2813 977.7188,376.3906 977.5469,376.6406 C977.4375,376.7969 977.4063,376.9375 977.4063,377.4219 L977.4063,378.2969 L973.0469,378.2969 L973.0469,375.875 Z " fill="#000000"/><text fill="#000000" font-family="sans-serif" font-size="14" lengthAdjust="spacing" textLength="31" x="994.75" y="379.8467">User</text><line style="stroke:#181818;stroke-width:0.5;" x1="868" x2="1120" y1="391" y2="391"/><ellipse cx="878" cy="404.6484" fill="#000000" rx="3" ry="3" style="stroke:#000000;stroke-width:1.0;"/><text fill="#000000" font-family="sans-serif" font-size="14" lengthAdjust="spacing" textLength="66" x="887" y="407.9951">id: String</text><ellipse cx="878" cy="420.9453" fill="#000000" rx="3" ry="3" style="stroke:#000000;stroke-width:1.0;"/><text fill="#000000" font-family="sans-serif" font-size="14" lengthAdjust="spacing" textLength="93" x="887" y="424.292">name: String</text><ellipse cx="878" cy="437.2422" fill="#000000" rx="3" ry="3" style="stroke:#000000;stroke-width:1.0;"/><text fill="#000000" font-family="sans-serif" font-size="14" lengthAdjust="spacing" textLength="92" x="887" y="440.5889">email: String</text><ellipse cx="878" cy="453.5391" fill="#000000" rx="3" ry="3" style="stroke:#000000;stroke-width:1.0;"/><text fill="#000000" font-family="sans-serif" font-size="14" lengthAdjust="spacing" textLength="153" x="887" y="456.8857">createdAt: DateTime</text><text fill="#000000" font-family="sans-serif" font-size="14" lengthAdjust="spacing" textLength="183" x="887" y="473.1826">emailVerified: DateTime?</text><text fill="#000000" font-family="sans-serif" font-size="14" lengthAdjust="spacing" textLength="127" x="887" y="489.4795">password: String?</text><text fill="#000000" font-family="sans-serif" font-size="14" lengthAdjust="spacing" textLength="104" x="887" y="505.7764">image: String?</text><text fill="#000000" font-family="sans-serif" font-size="14" lengthAdjust="spacing" textLength="83" x="887" y="522.0732">bio: String?</text><ellipse cx="878" cy="535.0234" fill="#000000" rx="3" ry="3" style="stroke:#000000;stroke-width:1.0;"/><text fill="#000000" font-family="sans-serif" font-size="14" lengthAdjust="spacing" textLength="182" x="887" y="538.3701">expressions: Expression[]</text><ellipse cx="878" cy="551.3203" fill="#000000" rx="3" ry="3" style="stroke:#000000;stroke-width:1.0;"/><text fill="#000000" font-family="sans-serif" font-size="14" lengthAdjust="spacing" textLength="142" x="887" y="554.667">accounts: Account[]</text><ellipse cx="878" cy="567.6172" fill="#000000" rx="3" ry="3" style="stroke:#000000;stroke-width:1.0;"/><text fill="#000000" font-family="sans-serif" font-size="14" lengthAdjust="spacing" textLength="132" x="887" y="570.9639">sessions: Session[]</text><ellipse cx="878" cy="583.9141" fill="#000000" rx="3" ry="3" style="stroke:#000000;stroke-width:1.0;"/><text fill="#000000" font-family="sans-serif" font-size="14" lengthAdjust="spacing" textLength="69" x="887" y="587.2607">role: Role</text><ellipse cx="878" cy="600.2109" fill="#000000" rx="3" ry="3" style="stroke:#000000;stroke-width:1.0;"/><text fill="#000000" font-family="sans-serif" font-size="14" lengthAdjust="spacing" textLength="82" x="887" y="603.5576">likes: Like[]</text><ellipse cx="878" cy="616.5078" fill="#000000" rx="3" ry="3" style="stroke:#000000;stroke-width:1.0;"/><text fill="#000000" font-family="sans-serif" font-size="14" lengthAdjust="spacing" textLength="120" x="887" y="619.8545">dislikes: Dislike[]</text><text fill="#000000" font-family="sans-serif" font-size="14" lengthAdjust="spacing" textLength="115" x="887" y="636.1514">country: String?</text><text fill="#000000" font-family="sans-serif" font-size="14" lengthAdjust="spacing" textLength="110" x="887" y="652.4482">canton: String?</text><ellipse cx="878" cy="665.3984" fill="#000000" rx="3" ry="3" style="stroke:#000000;stroke-width:1.0;"/><text fill="#000000" font-family="sans-serif" font-size="14" lengthAdjust="spacing" textLength="82" x="887" y="668.7451">flags: Flag[]</text><ellipse cx="878" cy="681.6953" fill="#000000" rx="3" ry="3" style="stroke:#000000;stroke-width:1.0;"/><text fill="#000000" font-family="sans-serif" font-size="14" lengthAdjust="spacing" textLength="228" x="887" y="685.042">examples: ExpressionExample[]</text><line style="stroke:#181818;stroke-width:0.5;" x1="868" x2="1120" y1="692.3438" y2="692.3438"/></g><!--class VerificationToken--><g id="elem_VerificationToken"><rect codeLine="146" fill="#F1F1F1" height="113.1875" id="VerificationToken" rx="2.5" ry="2.5" style="stroke:#181818;stroke-width:0.5;" width="161" x="1293.5" y="96.5"/><ellipse cx="1308.5" cy="112.5" fill="#ADD1B2" rx="11" ry="11" style="stroke:#181818;stroke-width:1.0;"/><path d="M1307.2969,113.375 L1308.75,113.375 L1308.75,113.4844 C1308.75,113.8906 1308.7813,114.0469 1308.8594,114.2031 C1309.0156,114.4531 1309.2969,114.6094 1309.5938,114.6094 C1309.8438,114.6094 1310.1094,114.4688 1310.2656,114.25 C1310.3906,114.0938 1310.4219,113.9375 1310.4219,113.4844 L1310.4219,111.5625 C1310.4219,111.4063 1310.4219,111.3594 1310.4063,111.2031 C1310.3438,110.7344 1310.0313,110.4219 1309.5781,110.4219 C1309.3281,110.4219 1309.0625,110.5625 1308.8906,110.7813 C1308.7813,110.9531 1308.75,111.1094 1308.75,111.5625 L1308.75,111.6875 L1307.2969,111.6875 L1307.2969,109.2813 L1311.2813,109.2813 L1311.2813,110.1406 C1311.2813,110.5469 1311.3125,110.7188 1311.3906,110.875 C1311.5625,111.125 1311.8438,111.2813 1312.125,111.2813 C1312.3906,111.2813 1312.6563,111.1406 1312.8281,110.9219 C1312.9375,110.75 1312.9688,110.6094 1312.9688,110.1406 L1312.9688,107.5938 L1305.3438,107.5938 C1304.9063,107.5938 1304.7813,107.6094 1304.625,107.7031 C1304.375,107.8594 1304.2188,108.1563 1304.2188,108.4375 C1304.2188,108.7188 1304.3594,108.9688 1304.5781,109.1406 C1304.7344,109.25 1304.9219,109.2813 1305.3438,109.2813 L1305.5938,109.2813 L1305.5938,115.7969 L1305.3438,115.7969 C1304.9375,115.7969 1304.7813,115.8125 1304.625,115.9219 C1304.375,116.0938 1304.2188,116.3594 1304.2188,116.6563 C1304.2188,116.9219 1304.3594,117.1719 1304.5781,117.3281 C1304.7188,117.4531 1304.9531,117.5 1305.3438,117.5 L1313.3438,117.5 L1313.3438,114.9219 C1313.3438,114.4844 1313.3125,114.3438 1313.2344,114.1875 C1313.0625,113.9375 1312.7813,113.7813 1312.5,113.7813 C1312.2344,113.7813 1311.9688,113.8906 1311.7969,114.1406 C1311.6875,114.2969 1311.6563,114.4375 1311.6563,114.9219 L1311.6563,115.7969 L1307.2969,115.7969 L1307.2969,113.375 Z " fill="#000000"/><text fill="#000000" font-family="sans-serif" font-size="14" lengthAdjust="spacing" textLength="129" x="1322.5" y="117.3467">VerificationToken</text><line style="stroke:#181818;stroke-width:0.5;" x1="1294.5" x2="1453.5" y1="128.5" y2="128.5"/><ellipse cx="1304.5" cy="142.1484" fill="#000000" rx="3" ry="3" style="stroke:#000000;stroke-width:1.0;"/><text fill="#000000" font-family="sans-serif" font-size="14" lengthAdjust="spacing" textLength="42" x="1313.5" y="145.4951">id: Int</text><ellipse cx="1304.5" cy="158.4453" fill="#000000" rx="3" ry="3" style="stroke:#000000;stroke-width:1.0;"/><text fill="#000000" font-family="sans-serif" font-size="14" lengthAdjust="spacing" textLength="120" x="1313.5" y="161.792">identifier: String</text><ellipse cx="1304.5" cy="174.7422" fill="#000000" rx="3" ry="3" style="stroke:#000000;stroke-width:1.0;"/><text fill="#000000" font-family="sans-serif" font-size="14" lengthAdjust="spacing" textLength="96" x="1313.5" y="178.0889">token: String</text><ellipse cx="1304.5" cy="191.0391" fill="#000000" rx="3" ry="3" style="stroke:#000000;stroke-width:1.0;"/><text fill="#000000" font-family="sans-serif" font-size="14" lengthAdjust="spacing" textLength="133" x="1313.5" y="194.3857">expires: DateTime</text><line style="stroke:#181818;stroke-width:0.5;" x1="1294.5" x2="1453.5" y1="201.6875" y2="201.6875"/></g><!--link Like to Expression--><g id="link_Like_Expression"><path codeLine="153" d="M567.284,129 C553.027,129 551,129 551,129 C551,129 551,241.85 551,350.781 " fill="none" id="Like-Expression" style="stroke:#181818;stroke-width:1.0;stroke-dasharray:7.0,7.0;"/><line style="stroke:#181818;stroke-width:1.0;" x1="567.284" x2="575.284" y1="129" y2="123"/><line style="stroke:#181818;stroke-width:1.0;" x1="567.284" x2="575.284" y1="129" y2="135"/><line style="stroke:#181818;stroke-width:1.0;" x1="567.284" x2="575.284" y1="129" y2="129"/><line style="stroke:#181818;stroke-width:1.0;" x1="565.284" x2="565.284" y1="125" y2="133"/><line style="stroke:#181818;stroke-width:1.0;" x1="555" x2="547" y1="354.781" y2="354.781"/><line style="stroke:#181818;stroke-width:1.0;" x1="555" x2="547" y1="351.781" y2="351.781"/><line style="stroke:#181818;stroke-width:1.0;" x1="551" x2="551" y1="350.781" y2="358.781"/></g><!--link Like to Expression--><g id="link_Like_Expression"><path codeLine="156" d="M567.368,178 C558.929,178 561.5,178 561.5,178 C561.5,178 561.5,261.341 561.5,350.898 " fill="none" id="Like-Expression-1" style="stroke:#181818;stroke-width:1.0;stroke-dasharray:7.0,7.0;"/><line style="stroke:#181818;stroke-width:1.0;" x1="567.368" x2="575.368" y1="178" y2="172"/><line style="stroke:#181818;stroke-width:1.0;" x1="567.368" x2="575.368" y1="178" y2="184"/><line style="stroke:#181818;stroke-width:1.0;" x1="567.368" x2="575.368" y1="178" y2="178"/><line style="stroke:#181818;stroke-width:1.0;" x1="565.368" x2="565.368" y1="174" y2="182"/><line style="stroke:#181818;stroke-width:1.0;" x1="565.5" x2="557.5" y1="354.898" y2="354.898"/><line style="stroke:#181818;stroke-width:1.0;" x1="565.5" x2="557.5" y1="351.898" y2="351.898"/><line style="stroke:#181818;stroke-width:1.0;" x1="561.5" x2="561.5" y1="350.898" y2="358.898"/></g><!--link Dislike to Expression--><g id="link_Dislike_Expression"><path codeLine="154" d="M322.543,153 C334.007,153 333.75,153 333.75,153 C333.75,153 333.75,251.258 333.75,350.875 " fill="none" id="Dislike-Expression" style="stroke:#181818;stroke-width:1.0;stroke-dasharray:7.0,7.0;"/><line style="stroke:#181818;stroke-width:1.0;" x1="322.543" x2="314.543" y1="153" y2="159"/><line style="stroke:#181818;stroke-width:1.0;" x1="322.543" x2="314.543" y1="153" y2="147"/><line style="stroke:#181818;stroke-width:1.0;" x1="322.543" x2="314.543" y1="153" y2="153"/><line style="stroke:#181818;stroke-width:1.0;" x1="324.543" x2="324.543" y1="157" y2="149"/><line style="stroke:#181818;stroke-width:1.0;" x1="337.75" x2="329.75" y1="354.875" y2="354.875"/><line style="stroke:#181818;stroke-width:1.0;" x1="337.75" x2="329.75" y1="351.875" y2="351.875"/><line style="stroke:#181818;stroke-width:1.0;" x1="333.75" x2="333.75" y1="350.875" y2="358.875"/></g><!--link Flag to Expression--><g id="link_Flag_Expression"><path codeLine="155" d="M445,234.039 C445,271.997 445,304.108 445,350.771 " fill="none" id="Flag-Expression" style="stroke:#181818;stroke-width:1.0;stroke-dasharray:7.0,7.0;"/><line style="stroke:#181818;stroke-width:1.0;" x1="445" x2="439" y1="234.039" y2="226.039"/><line style="stroke:#181818;stroke-width:1.0;" x1="445" x2="451" y1="234.039" y2="226.039"/><line style="stroke:#181818;stroke-width:1.0;" x1="445" x2="445" y1="234.039" y2="226.039"/><line style="stroke:#181818;stroke-width:1.0;" x1="441" x2="449" y1="236.039" y2="236.039"/><line style="stroke:#181818;stroke-width:1.0;" x1="449" x2="441" y1="354.771" y2="354.771"/><line style="stroke:#181818;stroke-width:1.0;" x1="449" x2="441" y1="351.771" y2="351.771"/><line style="stroke:#181818;stroke-width:1.0;" x1="445" x2="445" y1="350.771" y2="358.771"/></g><!--link Expression to ExpressionExample--><g id="link_Expression_ExpressionExample"><path codeLine="157" d="M547.25,708.225 C547.25,728.616 547.25,732.869 547.25,751.719 " fill="none" id="Expression-ExpressionExample" style="stroke:#181818;stroke-width:1.0;stroke-dasharray:7.0,7.0;"/><line style="stroke:#181818;stroke-width:1.0;" x1="543.25" x2="551.25" y1="704.225" y2="704.225"/><line style="stroke:#181818;stroke-width:1.0;" x1="543.25" x2="551.25" y1="707.225" y2="707.225"/><line style="stroke:#181818;stroke-width:1.0;" x1="547.25" x2="547.25" y1="708.225" y2="700.225"/><line style="stroke:#181818;stroke-width:1.0;" x1="547.25" x2="553.25" y1="751.719" y2="759.719"/><line style="stroke:#181818;stroke-width:1.0;" x1="547.25" x2="541.25" y1="751.719" y2="759.719"/><line style="stroke:#181818;stroke-width:1.0;" x1="547.25" x2="547.25" y1="751.719" y2="759.719"/><line style="stroke:#181818;stroke-width:1.0;" x1="551.25" x2="543.25" y1="749.719" y2="749.719"/></g><!--link Expression to Synonym--><g id="link_Expression_Synonym"><path codeLine="158" d="M580.362,587 C665.819,587 754.833,587 754.833,587 C754.833,587 754.833,713.475 754.833,792.794 " fill="none" id="Expression-Synonym" style="stroke:#181818;stroke-width:1.0;stroke-dasharray:7.0,7.0;"/><line style="stroke:#181818;stroke-width:1.0;" x1="576.362" x2="576.362" y1="591" y2="583"/><line style="stroke:#181818;stroke-width:1.0;" x1="579.362" x2="579.362" y1="591" y2="583"/><line style="stroke:#181818;stroke-width:1.0;" x1="580.362" x2="572.362" y1="587" y2="587"/><line style="stroke:#181818;stroke-width:1.0;" x1="754.833" x2="760.833" y1="792.794" y2="800.794"/><line style="stroke:#181818;stroke-width:1.0;" x1="754.833" x2="748.833" y1="792.794" y2="800.794"/><line style="stroke:#181818;stroke-width:1.0;" x1="754.833" x2="754.833" y1="792.794" y2="800.794"/><line style="stroke:#181818;stroke-width:1.0;" x1="758.833" x2="750.833" y1="790.794" y2="790.794"/></g><!--link Account to User--><g id="link_Account_User"><path codeLine="159" d="M957,307.104 C957,326.637 957,330.808 957,350.717 " fill="none" id="Account-User" style="stroke:#181818;stroke-width:1.0;stroke-dasharray:7.0,7.0;"/><line style="stroke:#181818;stroke-width:1.0;" x1="957" x2="951" y1="307.104" y2="299.104"/><line style="stroke:#181818;stroke-width:1.0;" x1="957" x2="963" y1="307.104" y2="299.104"/><line style="stroke:#181818;stroke-width:1.0;" x1="957" x2="957" y1="307.104" y2="299.104"/><line style="stroke:#181818;stroke-width:1.0;" x1="953" x2="961" y1="309.104" y2="309.104"/><line style="stroke:#181818;stroke-width:1.0;" x1="961" x2="953" y1="354.717" y2="354.717"/><line style="stroke:#181818;stroke-width:1.0;" x1="961" x2="953" y1="351.717" y2="351.717"/><line style="stroke:#181818;stroke-width:1.0;" x1="957" x2="957" y1="350.717" y2="358.717"/></g><!--link Session to User--><g id="link_Session_User"><path codeLine="160" d="M1101.5,225.723 C1101.5,264.829 1101.5,300.668 1101.5,350.828 " fill="none" id="Session-User" style="stroke:#181818;stroke-width:1.0;stroke-dasharray:7.0,7.0;"/><line style="stroke:#181818;stroke-width:1.0;" x1="1101.5" x2="1095.5" y1="225.723" y2="217.723"/><line style="stroke:#181818;stroke-width:1.0;" x1="1101.5" x2="1107.5" y1="225.723" y2="217.723"/><line style="stroke:#181818;stroke-width:1.0;" x1="1101.5" x2="1101.5" y1="225.723" y2="217.723"/><line style="stroke:#181818;stroke-width:1.0;" x1="1097.5" x2="1105.5" y1="227.723" y2="227.723"/><line style="stroke:#181818;stroke-width:1.0;" x1="1105.5" x2="1097.5" y1="354.828" y2="354.828"/><line style="stroke:#181818;stroke-width:1.0;" x1="1105.5" x2="1097.5" y1="351.828" y2="351.828"/><line style="stroke:#181818;stroke-width:1.0;" x1="1101.5" x2="1101.5" y1="350.828" y2="358.828"/></g><!--link Like to User--><g id="link_Like_User"><path codeLine="161" d="M760.667,234.013 C760.667,328.458 760.667,473 760.667,473 C760.667,473 804.15,473 858.751,473 " fill="none" id="Like-User" style="stroke:#181818;stroke-width:1.0;stroke-dasharray:7.0,7.0;"/><line style="stroke:#181818;stroke-width:1.0;" x1="760.667" x2="754.667" y1="234.013" y2="226.013"/><line style="stroke:#181818;stroke-width:1.0;" x1="760.667" x2="766.667" y1="234.013" y2="226.013"/><line style="stroke:#181818;stroke-width:1.0;" x1="760.667" x2="760.667" y1="234.013" y2="226.013"/><line style="stroke:#181818;stroke-width:1.0;" x1="756.667" x2="764.667" y1="236.013" y2="236.013"/><line style="stroke:#181818;stroke-width:1.0;" x1="862.751" x2="862.751" y1="469" y2="477"/><line style="stroke:#181818;stroke-width:1.0;" x1="859.751" x2="859.751" y1="469" y2="477"/><line style="stroke:#181818;stroke-width:1.0;" x1="858.751" x2="866.751" y1="473" y2="473"/></g><!--link Expression to Language--><g id="link_Expression_Language"><path codeLine="162" d="M309.954,530 C196.797,530 57,530 57,530 C57,530 57,709.592 57,800.824 " fill="none" id="Expression-Language" style="stroke:#181818;stroke-width:1.0;stroke-dasharray:7.0,7.0;"/><line style="stroke:#181818;stroke-width:1.0;" x1="313.954" x2="313.954" y1="526" y2="534"/><line style="stroke:#181818;stroke-width:1.0;" x1="310.954" x2="310.954" y1="526" y2="534"/><line style="stroke:#181818;stroke-width:1.0;" x1="309.954" x2="317.954" y1="530" y2="530"/><line style="stroke:#181818;stroke-width:1.0;" x1="61" x2="53" y1="804.824" y2="804.824"/><line style="stroke:#181818;stroke-width:1.0;" x1="61" x2="53" y1="801.824" y2="801.824"/><line style="stroke:#181818;stroke-width:1.0;" x1="57" x2="57" y1="800.824" y2="808.824"/></g><!--link Expression to ExpressionGender--><g id="link_Expression_ExpressionGender"><path codeLine="163" d="M329.5,708.004 C329.5,787.992 329.5,858 329.5,858 C329.5,858 334.453,858 320.56,858 " fill="none" id="Expression-ExpressionGender" style="stroke:#181818;stroke-width:1.0;stroke-dasharray:7.0,7.0;"/><line style="stroke:#181818;stroke-width:1.0;" x1="325.5" x2="333.5" y1="704.004" y2="704.004"/><line style="stroke:#181818;stroke-width:1.0;" x1="325.5" x2="333.5" y1="707.004" y2="707.004"/><line style="stroke:#181818;stroke-width:1.0;" x1="329.5" x2="329.5" y1="708.004" y2="700.004"/><line style="stroke:#181818;stroke-width:1.0;" x1="316.56" x2="305.56" y1="858" y2="858"/><ellipse cx="316.56" cy="858" fill="none" rx="4" ry="4" style="stroke:#181818;stroke-width:1.0;"/><line style="stroke:#181818;stroke-width:1.0;" x1="309.56" x2="309.56" y1="862" y2="854"/></g><!--link Expression to ExpressionType--><g id="link_Expression_ExpressionType"><path codeLine="164" d="M414,708.225 C414,728.616 414,725.869 414,744.719 " fill="none" id="Expression-ExpressionType" style="stroke:#181818;stroke-width:1.0;stroke-dasharray:7.0,7.0;"/><line style="stroke:#181818;stroke-width:1.0;" x1="410" x2="418" y1="704.225" y2="704.225"/><line style="stroke:#181818;stroke-width:1.0;" x1="410" x2="418" y1="707.225" y2="707.225"/><line style="stroke:#181818;stroke-width:1.0;" x1="414" x2="414" y1="708.225" y2="700.225"/><line style="stroke:#181818;stroke-width:1.0;" x1="414" x2="414" y1="748.719" y2="759.719"/><ellipse cx="414" cy="748.719" fill="none" rx="4" ry="4" style="stroke:#181818;stroke-width:1.0;"/><line style="stroke:#181818;stroke-width:1.0;" x1="418" x2="410" y1="755.719" y2="755.719"/></g><!--link User to Role--><g id="link_User_Role"><path codeLine="165" d="M1010,708.225 C1010,751.81 1010,778.76 1010,808.735 " fill="none" id="User-Role" style="stroke:#181818;stroke-width:1.0;stroke-dasharray:7.0,7.0;"/><line style="stroke:#181818;stroke-width:1.0;" x1="1006" x2="1014" y1="704.225" y2="704.225"/><line style="stroke:#181818;stroke-width:1.0;" x1="1006" x2="1014" y1="707.225" y2="707.225"/><line style="stroke:#181818;stroke-width:1.0;" x1="1010" x2="1010" y1="708.225" y2="700.225"/><line style="stroke:#181818;stroke-width:1.0;" x1="1014" x2="1006" y1="812.735" y2="812.735"/><line style="stroke:#181818;stroke-width:1.0;" x1="1014" x2="1006" y1="809.735" y2="809.735"/><line style="stroke:#181818;stroke-width:1.0;" x1="1010" x2="1010" y1="808.735" y2="816.735"/></g><!--SRC=[pLPDR-8m4BtpAtBUGtz0BeX2kahL0Wg1osg5tCHGguaTsSvkKUb_tx4p8NOIgdPFFG39c-VnytmPzS9uHIGfWu9ngayL3OJKps8oeRmkWmV2ZpKvqk1j4WIB2Bxk4lYAqyaxCgBNIbAbcE0_AS-fjCn7GuJFSeIMcZqCQRdQBk5d5oMty3DRt4VpDDv5zXd1TR92rZg9rgjDdCOhypPVBU-topc-nSiqIkng-xgU9MayVuWkUoUYQ7RSRgB4kd-CKPbc-XGyi9V6_YEW5vcX8xbdYlCms6Z9-D4QI0tnac6mLLGwG8-LIKeqpMSw31RmaBAI0bvNUH-TEieMJ1NVLjnTGOxVKrad0VKntocG2keWEJqmphILtu1JowlgfuAfPmghRmKK4J57SdLFB- -Tx6QfIPiARMdz-csHlCabW9XLnBzmGaC_GDIFHf49V-k2S2suQXKWMc3lXfSkjh0wSS5FvUe0zEOH-MXGVPo-ah8gZF0khb63MSRHzdquc0H6hnaeOQ_vnpE57iSJziKO_Kyv3clWqxaUXhyx88OIZ-N4lgVhOkd9GlmQts5tUywoJDHSZuUoXgFqzcYIv02L57-OpUa8YDuz7v8UGDppNeiNwlKGoJ8GFSGX3GnMx0daBkRQbehXx5qj1bMPy06M3xsf9Z1xfQ4CN8Cm2MluUqMXYlGLgvzG4oCSJ4ucFveeg21rVLqBDvxTA-KhUvhNyGqvAVsSqPAmuXDDOtaxAjc1cIdYDav5bFehf5VThBGJf0EUcF23rNMKDo5mU92cMi24TTCEcykIZSUNmancSsD_QOnQr_BaAckwqjTgXgVoHkV7mwtBH1EnZEWsoqvQe83nsP0XhdxZw45H32i0DhB_GjxFDpVdizlixL-0eSNUlqFuYX_dJZmRuzlmm2CS75-JTgIWNrkcRKEucBkv1Vekpzrbr3E9y-06-P1YhfA9RH1qR8hc7m00]--></g></svg>