<?xml version="1.0" encoding="us-ascii" standalone="no"?><svg xmlns="http://www.w3.org/2000/svg" xmlns:xlink="http://www.w3.org/1999/xlink" contentStyleType="text/css" height="961px" preserveAspectRatio="none" style="width:1330px;height:961px;background:#FFFFFF;" version="1.1" viewBox="0 0 1330 961" width="1330px" zoomAndPan="magnify"><defs/><g><!--class Language--><g id="elem_Language"><rect codeLine="3" fill="#F1F1F1" height="96.8906" id="Language" rx="2.5" ry="2.5" style="stroke:#181818;stroke-width:0.5;" width="100" x="137.5" y="809"/><ellipse cx="152.5" cy="825" fill="#EB937F" rx="11" ry="11" style="stroke:#181818;stroke-width:1.0;"/><path d="M151.2969,825.875 L152.75,825.875 L152.75,825.9844 C152.75,826.3906 152.7813,826.5469 152.8594,826.7031 C153.0156,826.9531 153.2969,827.1094 153.5938,827.1094 C153.8438,827.1094 154.1094,826.9688 154.2656,826.75 C154.3906,826.5938 154.4219,826.4375 154.4219,825.9844 L154.4219,824.0625 C154.4219,823.9063 154.4219,823.8594 154.4063,823.7031 C154.3438,823.2344 154.0313,822.9219 153.5781,822.9219 C153.3281,822.9219 153.0625,823.0625 152.8906,823.2813 C152.7813,823.4531 152.75,823.6094 152.75,824.0625 L152.75,824.1875 L151.2969,824.1875 L151.2969,821.7813 L155.2813,821.7813 L155.2813,822.6406 C155.2813,823.0469 155.3125,823.2188 155.3906,823.375 C155.5625,823.625 155.8438,823.7813 156.125,823.7813 C156.3906,823.7813 156.6563,823.6406 156.8281,823.4219 C156.9375,823.25 156.9688,823.1094 156.9688,822.6406 L156.9688,820.0938 L149.3438,820.0938 C148.9063,820.0938 148.7813,820.1094 148.625,820.2031 C148.375,820.3594 148.2188,820.6563 148.2188,820.9375 C148.2188,821.2188 148.3594,821.4688 148.5781,821.6406 C148.7344,821.75 148.9219,821.7813 149.3438,821.7813 L149.5938,821.7813 L149.5938,828.2969 L149.3438,828.2969 C148.9375,828.2969 148.7813,828.3125 148.625,828.4219 C148.375,828.5938 148.2188,828.8594 148.2188,829.1563 C148.2188,829.4219 148.3594,829.6719 148.5781,829.8281 C148.7188,829.9531 148.9531,830 149.3438,830 L157.3438,830 L157.3438,827.4219 C157.3438,826.9844 157.3125,826.8438 157.2344,826.6875 C157.0625,826.4375 156.7813,826.2813 156.5,826.2813 C156.2344,826.2813 155.9688,826.3906 155.7969,826.6406 C155.6875,826.7969 155.6563,826.9375 155.6563,827.4219 L155.6563,828.2969 L151.2969,828.2969 L151.2969,825.875 Z " fill="#000000"/><text fill="#000000" font-family="sans-serif" font-size="14" lengthAdjust="spacing" textLength="68" x="166.5" y="829.8467">Language</text><line style="stroke:#181818;stroke-width:0.5;" x1="138.5" x2="236.5" y1="841" y2="841"/><text fill="#000000" font-family="sans-serif" font-size="14" lengthAdjust="spacing" textLength="20" x="143.5" y="857.9951">DE</text><text fill="#000000" font-family="sans-serif" font-size="14" lengthAdjust="spacing" textLength="18" x="143.5" y="874.292">FR</text><text fill="#000000" font-family="sans-serif" font-size="14" lengthAdjust="spacing" textLength="13" x="143.5" y="890.5889">IT</text><line style="stroke:#181818;stroke-width:0.5;" x1="138.5" x2="236.5" y1="897.8906" y2="897.8906"/></g><!--class Role--><g id="elem_Role"><rect codeLine="9" fill="#F1F1F1" height="80.5938" id="Role" rx="2.5" ry="2.5" style="stroke:#181818;stroke-width:0.5;" width="64" x="768.5" y="817"/><ellipse cx="783.5" cy="833" fill="#EB937F" rx="11" ry="11" style="stroke:#181818;stroke-width:1.0;"/><path d="M782.2969,833.875 L783.75,833.875 L783.75,833.9844 C783.75,834.3906 783.7813,834.5469 783.8594,834.7031 C784.0156,834.9531 784.2969,835.1094 784.5938,835.1094 C784.8438,835.1094 785.1094,834.9688 785.2656,834.75 C785.3906,834.5938 785.4219,834.4375 785.4219,833.9844 L785.4219,832.0625 C785.4219,831.9063 785.4219,831.8594 785.4063,831.7031 C785.3438,831.2344 785.0313,830.9219 784.5781,830.9219 C784.3281,830.9219 784.0625,831.0625 783.8906,831.2813 C783.7813,831.4531 783.75,831.6094 783.75,832.0625 L783.75,832.1875 L782.2969,832.1875 L782.2969,829.7813 L786.2813,829.7813 L786.2813,830.6406 C786.2813,831.0469 786.3125,831.2188 786.3906,831.375 C786.5625,831.625 786.8438,831.7813 787.125,831.7813 C787.3906,831.7813 787.6563,831.6406 787.8281,831.4219 C787.9375,831.25 787.9688,831.1094 787.9688,830.6406 L787.9688,828.0938 L780.3438,828.0938 C779.9063,828.0938 779.7813,828.1094 779.625,828.2031 C779.375,828.3594 779.2188,828.6563 779.2188,828.9375 C779.2188,829.2188 779.3594,829.4688 779.5781,829.6406 C779.7344,829.75 779.9219,829.7813 780.3438,829.7813 L780.5938,829.7813 L780.5938,836.2969 L780.3438,836.2969 C779.9375,836.2969 779.7813,836.3125 779.625,836.4219 C779.375,836.5938 779.2188,836.8594 779.2188,837.1563 C779.2188,837.4219 779.3594,837.6719 779.5781,837.8281 C779.7188,837.9531 779.9531,838 780.3438,838 L788.3438,838 L788.3438,835.4219 C788.3438,834.9844 788.3125,834.8438 788.2344,834.6875 C788.0625,834.4375 787.7813,834.2813 787.5,834.2813 C787.2344,834.2813 786.9688,834.3906 786.7969,834.6406 C786.6875,834.7969 786.6563,834.9375 786.6563,835.4219 L786.6563,836.2969 L782.2969,836.2969 L782.2969,833.875 Z " fill="#000000"/><text fill="#000000" font-family="sans-serif" font-size="14" lengthAdjust="spacing" textLength="32" x="797.5" y="837.8467">Role</text><line style="stroke:#181818;stroke-width:0.5;" x1="769.5" x2="831.5" y1="849" y2="849"/><text fill="#000000" font-family="sans-serif" font-size="14" lengthAdjust="spacing" textLength="37" x="774.5" y="865.9951">USER</text><text fill="#000000" font-family="sans-serif" font-size="14" lengthAdjust="spacing" textLength="47" x="774.5" y="882.292">ADMIN</text><line style="stroke:#181818;stroke-width:0.5;" x1="769.5" x2="831.5" y1="889.5938" y2="889.5938"/></g><!--class Like--><g id="elem_Like"><rect codeLine="14" fill="#F1F1F1" height="145.7813" id="Like" rx="2.5" ry="2.5" style="stroke:#181818;stroke-width:0.5;" width="191" x="459" y="80"/><ellipse cx="535.25" cy="96" fill="#ADD1B2" rx="11" ry="11" style="stroke:#181818;stroke-width:1.0;"/><path d="M534.0469,96.875 L535.5,96.875 L535.5,96.9844 C535.5,97.3906 535.5313,97.5469 535.6094,97.7031 C535.7656,97.9531 536.0469,98.1094 536.3438,98.1094 C536.5938,98.1094 536.8594,97.9688 537.0156,97.75 C537.1406,97.5938 537.1719,97.4375 537.1719,96.9844 L537.1719,95.0625 C537.1719,94.9063 537.1719,94.8594 537.1563,94.7031 C537.0938,94.2344 536.7813,93.9219 536.3281,93.9219 C536.0781,93.9219 535.8125,94.0625 535.6406,94.2813 C535.5313,94.4531 535.5,94.6094 535.5,95.0625 L535.5,95.1875 L534.0469,95.1875 L534.0469,92.7813 L538.0313,92.7813 L538.0313,93.6406 C538.0313,94.0469 538.0625,94.2188 538.1406,94.375 C538.3125,94.625 538.5938,94.7813 538.875,94.7813 C539.1406,94.7813 539.4063,94.6406 539.5781,94.4219 C539.6875,94.25 539.7188,94.1094 539.7188,93.6406 L539.7188,91.0938 L532.0938,91.0938 C531.6563,91.0938 531.5313,91.1094 531.375,91.2031 C531.125,91.3594 530.9688,91.6563 530.9688,91.9375 C530.9688,92.2188 531.1094,92.4688 531.3281,92.6406 C531.4844,92.75 531.6719,92.7813 532.0938,92.7813 L532.3438,92.7813 L532.3438,99.2969 L532.0938,99.2969 C531.6875,99.2969 531.5313,99.3125 531.375,99.4219 C531.125,99.5938 530.9688,99.8594 530.9688,100.1563 C530.9688,100.4219 531.1094,100.6719 531.3281,100.8281 C531.4688,100.9531 531.7031,101 532.0938,101 L540.0938,101 L540.0938,98.4219 C540.0938,97.9844 540.0625,97.8438 539.9844,97.6875 C539.8125,97.4375 539.5313,97.2813 539.25,97.2813 C538.9844,97.2813 538.7188,97.3906 538.5469,97.6406 C538.4375,97.7969 538.4063,97.9375 538.4063,98.4219 L538.4063,99.2969 L534.0469,99.2969 L534.0469,96.875 Z " fill="#000000"/><text fill="#000000" font-family="sans-serif" font-size="14" lengthAdjust="spacing" textLength="30" x="555.75" y="100.8467">Like</text><line style="stroke:#181818;stroke-width:0.5;" x1="460" x2="649" y1="112" y2="112"/><ellipse cx="470" cy="125.6484" fill="#000000" rx="3" ry="3" style="stroke:#000000;stroke-width:1.0;"/><text fill="#000000" font-family="sans-serif" font-size="14" lengthAdjust="spacing" textLength="165" x="479" y="128.9951">expression: Expression</text><ellipse cx="470" cy="141.9453" fill="#000000" rx="3" ry="3" style="stroke:#000000;stroke-width:1.0;"/><text fill="#000000" font-family="sans-serif" font-size="14" lengthAdjust="spacing" textLength="144" x="479" y="145.292">expressionId: String</text><ellipse cx="470" cy="158.2422" fill="#000000" rx="3" ry="3" style="stroke:#000000;stroke-width:1.0;"/><text fill="#000000" font-family="sans-serif" font-size="14" lengthAdjust="spacing" textLength="87" x="479" y="161.5889">author: User</text><ellipse cx="470" cy="174.5391" fill="#000000" rx="3" ry="3" style="stroke:#000000;stroke-width:1.0;"/><text fill="#000000" font-family="sans-serif" font-size="14" lengthAdjust="spacing" textLength="113" x="479" y="177.8857">authorId: String</text><ellipse cx="470" cy="190.8359" fill="#000000" rx="3" ry="3" style="stroke:#000000;stroke-width:1.0;"/><text fill="#000000" font-family="sans-serif" font-size="14" lengthAdjust="spacing" textLength="153" x="479" y="194.1826">createdAt: DateTime</text><text fill="#000000" font-family="sans-serif" font-size="14" lengthAdjust="spacing" textLength="164" x="479" y="210.4795">updatedAt: DateTime?</text><line style="stroke:#181818;stroke-width:0.5;" x1="460" x2="649" y1="217.7813" y2="217.7813"/></g><!--class Dislike--><g id="elem_Dislike"><rect codeLine="23" fill="#F1F1F1" height="145.7813" id="Dislike" rx="2.5" ry="2.5" style="stroke:#181818;stroke-width:0.5;" width="191" x="7" y="80"/><ellipse cx="74.25" cy="96" fill="#ADD1B2" rx="11" ry="11" style="stroke:#181818;stroke-width:1.0;"/><path d="M73.0469,96.875 L74.5,96.875 L74.5,96.9844 C74.5,97.3906 74.5313,97.5469 74.6094,97.7031 C74.7656,97.9531 75.0469,98.1094 75.3438,98.1094 C75.5938,98.1094 75.8594,97.9688 76.0156,97.75 C76.1406,97.5938 76.1719,97.4375 76.1719,96.9844 L76.1719,95.0625 C76.1719,94.9063 76.1719,94.8594 76.1563,94.7031 C76.0938,94.2344 75.7813,93.9219 75.3281,93.9219 C75.0781,93.9219 74.8125,94.0625 74.6406,94.2813 C74.5313,94.4531 74.5,94.6094 74.5,95.0625 L74.5,95.1875 L73.0469,95.1875 L73.0469,92.7813 L77.0313,92.7813 L77.0313,93.6406 C77.0313,94.0469 77.0625,94.2188 77.1406,94.375 C77.3125,94.625 77.5938,94.7813 77.875,94.7813 C78.1406,94.7813 78.4063,94.6406 78.5781,94.4219 C78.6875,94.25 78.7188,94.1094 78.7188,93.6406 L78.7188,91.0938 L71.0938,91.0938 C70.6563,91.0938 70.5313,91.1094 70.375,91.2031 C70.125,91.3594 69.9688,91.6563 69.9688,91.9375 C69.9688,92.2188 70.1094,92.4688 70.3281,92.6406 C70.4844,92.75 70.6719,92.7813 71.0938,92.7813 L71.3438,92.7813 L71.3438,99.2969 L71.0938,99.2969 C70.6875,99.2969 70.5313,99.3125 70.375,99.4219 C70.125,99.5938 69.9688,99.8594 69.9688,100.1563 C69.9688,100.4219 70.1094,100.6719 70.3281,100.8281 C70.4688,100.9531 70.7031,101 71.0938,101 L79.0938,101 L79.0938,98.4219 C79.0938,97.9844 79.0625,97.8438 78.9844,97.6875 C78.8125,97.4375 78.5313,97.2813 78.25,97.2813 C77.9844,97.2813 77.7188,97.3906 77.5469,97.6406 C77.4375,97.7969 77.4063,97.9375 77.4063,98.4219 L77.4063,99.2969 L73.0469,99.2969 L73.0469,96.875 Z " fill="#000000"/><text fill="#000000" font-family="sans-serif" font-size="14" lengthAdjust="spacing" textLength="48" x="94.75" y="100.8467">Dislike</text><line style="stroke:#181818;stroke-width:0.5;" x1="8" x2="197" y1="112" y2="112"/><ellipse cx="18" cy="125.6484" fill="#000000" rx="3" ry="3" style="stroke:#000000;stroke-width:1.0;"/><text fill="#000000" font-family="sans-serif" font-size="14" lengthAdjust="spacing" textLength="165" x="27" y="128.9951">expression: Expression</text><ellipse cx="18" cy="141.9453" fill="#000000" rx="3" ry="3" style="stroke:#000000;stroke-width:1.0;"/><text fill="#000000" font-family="sans-serif" font-size="14" lengthAdjust="spacing" textLength="144" x="27" y="145.292">expressionId: String</text><ellipse cx="18" cy="158.2422" fill="#000000" rx="3" ry="3" style="stroke:#000000;stroke-width:1.0;"/><text fill="#000000" font-family="sans-serif" font-size="14" lengthAdjust="spacing" textLength="87" x="27" y="161.5889">author: User</text><ellipse cx="18" cy="174.5391" fill="#000000" rx="3" ry="3" style="stroke:#000000;stroke-width:1.0;"/><text fill="#000000" font-family="sans-serif" font-size="14" lengthAdjust="spacing" textLength="113" x="27" y="177.8857">authorId: String</text><ellipse cx="18" cy="190.8359" fill="#000000" rx="3" ry="3" style="stroke:#000000;stroke-width:1.0;"/><text fill="#000000" font-family="sans-serif" font-size="14" lengthAdjust="spacing" textLength="153" x="27" y="194.1826">createdAt: DateTime</text><text fill="#000000" font-family="sans-serif" font-size="14" lengthAdjust="spacing" textLength="164" x="27" y="210.4795">updatedAt: DateTime?</text><line style="stroke:#181818;stroke-width:0.5;" x1="8" x2="197" y1="217.7813" y2="217.7813"/></g><!--class Flag--><g id="elem_Flag"><rect codeLine="32" fill="#F1F1F1" height="145.7813" id="Flag" rx="2.5" ry="2.5" style="stroke:#181818;stroke-width:0.5;" width="191" x="233" y="80"/><ellipse cx="309.75" cy="96" fill="#ADD1B2" rx="11" ry="11" style="stroke:#181818;stroke-width:1.0;"/><path d="M308.5469,96.875 L310,96.875 L310,96.9844 C310,97.3906 310.0313,97.5469 310.1094,97.7031 C310.2656,97.9531 310.5469,98.1094 310.8438,98.1094 C311.0938,98.1094 311.3594,97.9688 311.5156,97.75 C311.6406,97.5938 311.6719,97.4375 311.6719,96.9844 L311.6719,95.0625 C311.6719,94.9063 311.6719,94.8594 311.6563,94.7031 C311.5938,94.2344 311.2813,93.9219 310.8281,93.9219 C310.5781,93.9219 310.3125,94.0625 310.1406,94.2813 C310.0313,94.4531 310,94.6094 310,95.0625 L310,95.1875 L308.5469,95.1875 L308.5469,92.7813 L312.5313,92.7813 L312.5313,93.6406 C312.5313,94.0469 312.5625,94.2188 312.6406,94.375 C312.8125,94.625 313.0938,94.7813 313.375,94.7813 C313.6406,94.7813 313.9063,94.6406 314.0781,94.4219 C314.1875,94.25 314.2188,94.1094 314.2188,93.6406 L314.2188,91.0938 L306.5938,91.0938 C306.1563,91.0938 306.0313,91.1094 305.875,91.2031 C305.625,91.3594 305.4688,91.6563 305.4688,91.9375 C305.4688,92.2188 305.6094,92.4688 305.8281,92.6406 C305.9844,92.75 306.1719,92.7813 306.5938,92.7813 L306.8438,92.7813 L306.8438,99.2969 L306.5938,99.2969 C306.1875,99.2969 306.0313,99.3125 305.875,99.4219 C305.625,99.5938 305.4688,99.8594 305.4688,100.1563 C305.4688,100.4219 305.6094,100.6719 305.8281,100.8281 C305.9688,100.9531 306.2031,101 306.5938,101 L314.5938,101 L314.5938,98.4219 C314.5938,97.9844 314.5625,97.8438 314.4844,97.6875 C314.3125,97.4375 314.0313,97.2813 313.75,97.2813 C313.4844,97.2813 313.2188,97.3906 313.0469,97.6406 C312.9375,97.7969 312.9063,97.9375 312.9063,98.4219 L312.9063,99.2969 L308.5469,99.2969 L308.5469,96.875 Z " fill="#000000"/><text fill="#000000" font-family="sans-serif" font-size="14" lengthAdjust="spacing" textLength="29" x="330.25" y="100.8467">Flag</text><line style="stroke:#181818;stroke-width:0.5;" x1="234" x2="423" y1="112" y2="112"/><ellipse cx="244" cy="125.6484" fill="#000000" rx="3" ry="3" style="stroke:#000000;stroke-width:1.0;"/><text fill="#000000" font-family="sans-serif" font-size="14" lengthAdjust="spacing" textLength="165" x="253" y="128.9951">expression: Expression</text><ellipse cx="244" cy="141.9453" fill="#000000" rx="3" ry="3" style="stroke:#000000;stroke-width:1.0;"/><text fill="#000000" font-family="sans-serif" font-size="14" lengthAdjust="spacing" textLength="144" x="253" y="145.292">expressionId: String</text><ellipse cx="244" cy="158.2422" fill="#000000" rx="3" ry="3" style="stroke:#000000;stroke-width:1.0;"/><text fill="#000000" font-family="sans-serif" font-size="14" lengthAdjust="spacing" textLength="87" x="253" y="161.5889">author: User</text><ellipse cx="244" cy="174.5391" fill="#000000" rx="3" ry="3" style="stroke:#000000;stroke-width:1.0;"/><text fill="#000000" font-family="sans-serif" font-size="14" lengthAdjust="spacing" textLength="113" x="253" y="177.8857">authorId: String</text><ellipse cx="244" cy="190.8359" fill="#000000" rx="3" ry="3" style="stroke:#000000;stroke-width:1.0;"/><text fill="#000000" font-family="sans-serif" font-size="14" lengthAdjust="spacing" textLength="153" x="253" y="194.1826">createdAt: DateTime</text><text fill="#000000" font-family="sans-serif" font-size="14" lengthAdjust="spacing" textLength="164" x="253" y="210.4795">updatedAt: DateTime?</text><line style="stroke:#181818;stroke-width:0.5;" x1="234" x2="423" y1="217.7813" y2="217.7813"/></g><!--class Expression--><g id="elem_Expression"><rect codeLine="41" fill="#F1F1F1" height="308.75" id="Expression" rx="2.5" ry="2.5" style="stroke:#181818;stroke-width:0.5;" width="254" x="241.5" y="375"/><ellipse cx="325.25" cy="391" fill="#ADD1B2" rx="11" ry="11" style="stroke:#181818;stroke-width:1.0;"/><path d="M324.0469,391.875 L325.5,391.875 L325.5,391.9844 C325.5,392.3906 325.5313,392.5469 325.6094,392.7031 C325.7656,392.9531 326.0469,393.1094 326.3438,393.1094 C326.5938,393.1094 326.8594,392.9688 327.0156,392.75 C327.1406,392.5938 327.1719,392.4375 327.1719,391.9844 L327.1719,390.0625 C327.1719,389.9063 327.1719,389.8594 327.1563,389.7031 C327.0938,389.2344 326.7813,388.9219 326.3281,388.9219 C326.0781,388.9219 325.8125,389.0625 325.6406,389.2813 C325.5313,389.4531 325.5,389.6094 325.5,390.0625 L325.5,390.1875 L324.0469,390.1875 L324.0469,387.7813 L328.0313,387.7813 L328.0313,388.6406 C328.0313,389.0469 328.0625,389.2188 328.1406,389.375 C328.3125,389.625 328.5938,389.7813 328.875,389.7813 C329.1406,389.7813 329.4063,389.6406 329.5781,389.4219 C329.6875,389.25 329.7188,389.1094 329.7188,388.6406 L329.7188,386.0938 L322.0938,386.0938 C321.6563,386.0938 321.5313,386.1094 321.375,386.2031 C321.125,386.3594 320.9688,386.6563 320.9688,386.9375 C320.9688,387.2188 321.1094,387.4688 321.3281,387.6406 C321.4844,387.75 321.6719,387.7813 322.0938,387.7813 L322.3438,387.7813 L322.3438,394.2969 L322.0938,394.2969 C321.6875,394.2969 321.5313,394.3125 321.375,394.4219 C321.125,394.5938 320.9688,394.8594 320.9688,395.1563 C320.9688,395.4219 321.1094,395.6719 321.3281,395.8281 C321.4688,395.9531 321.7031,396 322.0938,396 L330.0938,396 L330.0938,393.4219 C330.0938,392.9844 330.0625,392.8438 329.9844,392.6875 C329.8125,392.4375 329.5313,392.2813 329.25,392.2813 C328.9844,392.2813 328.7188,392.3906 328.5469,392.6406 C328.4375,392.7969 328.4063,392.9375 328.4063,393.4219 L328.4063,394.2969 L324.0469,394.2969 L324.0469,391.875 Z " fill="#000000"/><text fill="#000000" font-family="sans-serif" font-size="14" lengthAdjust="spacing" textLength="78" x="345.75" y="395.8467">Expression</text><line style="stroke:#181818;stroke-width:0.5;" x1="242.5" x2="494.5" y1="407" y2="407"/><ellipse cx="252.5" cy="420.6484" fill="#000000" rx="3" ry="3" style="stroke:#000000;stroke-width:1.0;"/><text fill="#000000" font-family="sans-serif" font-size="14" lengthAdjust="spacing" textLength="66" x="261.5" y="423.9951">id: String</text><ellipse cx="252.5" cy="436.9453" fill="#000000" rx="3" ry="3" style="stroke:#000000;stroke-width:1.0;"/><text fill="#000000" font-family="sans-serif" font-size="14" lengthAdjust="spacing" textLength="84" x="261.5" y="440.292">title: String</text><text fill="#000000" font-family="sans-serif" font-size="14" lengthAdjust="spacing" textLength="130" x="261.5" y="456.5889">definition: String?</text><ellipse cx="252.5" cy="469.5391" fill="#000000" rx="3" ry="3" style="stroke:#000000;stroke-width:1.0;"/><text fill="#000000" font-family="sans-serif" font-size="14" lengthAdjust="spacing" textLength="137" x="261.5" y="472.8857">published: Boolean</text><text fill="#000000" font-family="sans-serif" font-size="14" lengthAdjust="spacing" textLength="94" x="261.5" y="489.1826">author: User?</text><text fill="#000000" font-family="sans-serif" font-size="14" lengthAdjust="spacing" textLength="120" x="261.5" y="505.4795">authorId: String?</text><ellipse cx="252.5" cy="518.4297" fill="#000000" rx="3" ry="3" style="stroke:#000000;stroke-width:1.0;"/><text fill="#000000" font-family="sans-serif" font-size="14" lengthAdjust="spacing" textLength="82" x="261.5" y="521.7764">likes: Like[]</text><ellipse cx="252.5" cy="534.7266" fill="#000000" rx="3" ry="3" style="stroke:#000000;stroke-width:1.0;"/><text fill="#000000" font-family="sans-serif" font-size="14" lengthAdjust="spacing" textLength="120" x="261.5" y="538.0732">dislikes: Dislike[]</text><ellipse cx="252.5" cy="551.0234" fill="#000000" rx="3" ry="3" style="stroke:#000000;stroke-width:1.0;"/><text fill="#000000" font-family="sans-serif" font-size="14" lengthAdjust="spacing" textLength="153" x="261.5" y="554.3701">createdAt: DateTime</text><text fill="#000000" font-family="sans-serif" font-size="14" lengthAdjust="spacing" textLength="164" x="261.5" y="570.667">updatedAt: DateTime?</text><ellipse cx="252.5" cy="583.6172" fill="#000000" rx="3" ry="3" style="stroke:#000000;stroke-width:1.0;"/><text fill="#000000" font-family="sans-serif" font-size="14" lengthAdjust="spacing" textLength="102" x="261.5" y="586.9639">flagged: Flag[]</text><ellipse cx="252.5" cy="599.9141" fill="#000000" rx="3" ry="3" style="stroke:#000000;stroke-width:1.0;"/><text fill="#000000" font-family="sans-serif" font-size="14" lengthAdjust="spacing" textLength="120" x="261.5" y="603.2607">cantons: String[]</text><ellipse cx="252.5" cy="616.2109" fill="#000000" rx="3" ry="3" style="stroke:#000000;stroke-width:1.0;"/><text fill="#000000" font-family="sans-serif" font-size="14" lengthAdjust="spacing" textLength="141" x="261.5" y="619.5576">language: Language</text><ellipse cx="252.5" cy="632.5078" fill="#000000" rx="3" ry="3" style="stroke:#000000;stroke-width:1.0;"/><text fill="#000000" font-family="sans-serif" font-size="14" lengthAdjust="spacing" textLength="166" x="261.5" y="635.8545">synonymOf: Synonym[]</text><ellipse cx="252.5" cy="648.8047" fill="#000000" rx="3" ry="3" style="stroke:#000000;stroke-width:1.0;"/><text fill="#000000" font-family="sans-serif" font-size="14" lengthAdjust="spacing" textLength="156" x="261.5" y="652.1514">synonyms: Synonym[]</text><ellipse cx="252.5" cy="665.1016" fill="#000000" rx="3" ry="3" style="stroke:#000000;stroke-width:1.0;"/><text fill="#000000" font-family="sans-serif" font-size="14" lengthAdjust="spacing" textLength="228" x="261.5" y="668.4482">examples: ExpressionExample[]</text><line style="stroke:#181818;stroke-width:0.5;" x1="242.5" x2="494.5" y1="675.75" y2="675.75"/></g><!--class ExpressionExample--><g id="elem_ExpressionExample"><rect codeLine="60" fill="#F1F1F1" height="194.6719" id="ExpressionExample" rx="2.5" ry="2.5" style="stroke:#181818;stroke-width:0.5;" width="191" x="273" y="760"/><ellipse cx="296.55" cy="776" fill="#ADD1B2" rx="11" ry="11" style="stroke:#181818;stroke-width:1.0;"/><path d="M295.3469,776.875 L296.8,776.875 L296.8,776.9844 C296.8,777.3906 296.8313,777.5469 296.9094,777.7031 C297.0656,777.9531 297.3469,778.1094 297.6438,778.1094 C297.8938,778.1094 298.1594,777.9688 298.3156,777.75 C298.4406,777.5938 298.4719,777.4375 298.4719,776.9844 L298.4719,775.0625 C298.4719,774.9063 298.4719,774.8594 298.4563,774.7031 C298.3938,774.2344 298.0813,773.9219 297.6281,773.9219 C297.3781,773.9219 297.1125,774.0625 296.9406,774.2813 C296.8313,774.4531 296.8,774.6094 296.8,775.0625 L296.8,775.1875 L295.3469,775.1875 L295.3469,772.7813 L299.3313,772.7813 L299.3313,773.6406 C299.3313,774.0469 299.3625,774.2188 299.4406,774.375 C299.6125,774.625 299.8938,774.7813 300.175,774.7813 C300.4406,774.7813 300.7063,774.6406 300.8781,774.4219 C300.9875,774.25 301.0188,774.1094 301.0188,773.6406 L301.0188,771.0938 L293.3938,771.0938 C292.9563,771.0938 292.8313,771.1094 292.675,771.2031 C292.425,771.3594 292.2688,771.6563 292.2688,771.9375 C292.2688,772.2188 292.4094,772.4688 292.6281,772.6406 C292.7844,772.75 292.9719,772.7813 293.3938,772.7813 L293.6438,772.7813 L293.6438,779.2969 L293.3938,779.2969 C292.9875,779.2969 292.8313,779.3125 292.675,779.4219 C292.425,779.5938 292.2688,779.8594 292.2688,780.1563 C292.2688,780.4219 292.4094,780.6719 292.6281,780.8281 C292.7688,780.9531 293.0031,781 293.3938,781 L301.3938,781 L301.3938,778.4219 C301.3938,777.9844 301.3625,777.8438 301.2844,777.6875 C301.1125,777.4375 300.8313,777.2813 300.55,777.2813 C300.2844,777.2813 300.0188,777.3906 299.8469,777.6406 C299.7375,777.7969 299.7063,777.9375 299.7063,778.4219 L299.7063,779.2969 L295.3469,779.2969 L295.3469,776.875 Z " fill="#000000"/><text fill="#000000" font-family="sans-serif" font-size="14" lengthAdjust="spacing" textLength="140" x="312.45" y="780.8467">ExpressionExample</text><line style="stroke:#181818;stroke-width:0.5;" x1="274" x2="463" y1="792" y2="792"/><ellipse cx="284" cy="805.6484" fill="#000000" rx="3" ry="3" style="stroke:#000000;stroke-width:1.0;"/><text fill="#000000" font-family="sans-serif" font-size="14" lengthAdjust="spacing" textLength="66" x="293" y="808.9951">id: String</text><ellipse cx="284" cy="821.9453" fill="#000000" rx="3" ry="3" style="stroke:#000000;stroke-width:1.0;"/><text fill="#000000" font-family="sans-serif" font-size="14" lengthAdjust="spacing" textLength="153" x="293" y="825.292">createdAt: DateTime</text><text fill="#000000" font-family="sans-serif" font-size="14" lengthAdjust="spacing" textLength="164" x="293" y="841.5889">updatedAt: DateTime?</text><ellipse cx="284" cy="854.5391" fill="#000000" rx="3" ry="3" style="stroke:#000000;stroke-width:1.0;"/><text fill="#000000" font-family="sans-serif" font-size="14" lengthAdjust="spacing" textLength="165" x="293" y="857.8857">expression: Expression</text><ellipse cx="284" cy="870.8359" fill="#000000" rx="3" ry="3" style="stroke:#000000;stroke-width:1.0;"/><text fill="#000000" font-family="sans-serif" font-size="14" lengthAdjust="spacing" textLength="144" x="293" y="874.1826">expressionId: String</text><ellipse cx="284" cy="887.1328" fill="#000000" rx="3" ry="3" style="stroke:#000000;stroke-width:1.0;"/><text fill="#000000" font-family="sans-serif" font-size="14" lengthAdjust="spacing" textLength="123" x="293" y="890.4795">definition: String</text><text fill="#000000" font-family="sans-serif" font-size="14" lengthAdjust="spacing" textLength="94" x="293" y="906.7764">author: User?</text><text fill="#000000" font-family="sans-serif" font-size="14" lengthAdjust="spacing" textLength="120" x="293" y="923.0732">authorId: String?</text><ellipse cx="284" cy="936.0234" fill="#000000" rx="3" ry="3" style="stroke:#000000;stroke-width:1.0;"/><text fill="#000000" font-family="sans-serif" font-size="14" lengthAdjust="spacing" textLength="120" x="293" y="939.3701">cantons: String[]</text><line style="stroke:#181818;stroke-width:0.5;" x1="274" x2="463" y1="946.6719" y2="946.6719"/></g><!--class Synonym--><g id="elem_Synonym"><rect codeLine="72" fill="#F1F1F1" height="113.1875" id="Synonym" rx="2.5" ry="2.5" style="stroke:#181818;stroke-width:0.5;" width="194" x="499.5" y="801"/><ellipse cx="559.25" cy="817" fill="#ADD1B2" rx="11" ry="11" style="stroke:#181818;stroke-width:1.0;"/><path d="M558.0469,817.875 L559.5,817.875 L559.5,817.9844 C559.5,818.3906 559.5313,818.5469 559.6094,818.7031 C559.7656,818.9531 560.0469,819.1094 560.3438,819.1094 C560.5938,819.1094 560.8594,818.9688 561.0156,818.75 C561.1406,818.5938 561.1719,818.4375 561.1719,817.9844 L561.1719,816.0625 C561.1719,815.9063 561.1719,815.8594 561.1563,815.7031 C561.0938,815.2344 560.7813,814.9219 560.3281,814.9219 C560.0781,814.9219 559.8125,815.0625 559.6406,815.2813 C559.5313,815.4531 559.5,815.6094 559.5,816.0625 L559.5,816.1875 L558.0469,816.1875 L558.0469,813.7813 L562.0313,813.7813 L562.0313,814.6406 C562.0313,815.0469 562.0625,815.2188 562.1406,815.375 C562.3125,815.625 562.5938,815.7813 562.875,815.7813 C563.1406,815.7813 563.4063,815.6406 563.5781,815.4219 C563.6875,815.25 563.7188,815.1094 563.7188,814.6406 L563.7188,812.0938 L556.0938,812.0938 C555.6563,812.0938 555.5313,812.1094 555.375,812.2031 C555.125,812.3594 554.9688,812.6563 554.9688,812.9375 C554.9688,813.2188 555.1094,813.4688 555.3281,813.6406 C555.4844,813.75 555.6719,813.7813 556.0938,813.7813 L556.3438,813.7813 L556.3438,820.2969 L556.0938,820.2969 C555.6875,820.2969 555.5313,820.3125 555.375,820.4219 C555.125,820.5938 554.9688,820.8594 554.9688,821.1563 C554.9688,821.4219 555.1094,821.6719 555.3281,821.8281 C555.4688,821.9531 555.7031,822 556.0938,822 L564.0938,822 L564.0938,819.4219 C564.0938,818.9844 564.0625,818.8438 563.9844,818.6875 C563.8125,818.4375 563.5313,818.2813 563.25,818.2813 C562.9844,818.2813 562.7188,818.3906 562.5469,818.6406 C562.4375,818.7969 562.4063,818.9375 562.4063,819.4219 L562.4063,820.2969 L558.0469,820.2969 L558.0469,817.875 Z " fill="#000000"/><text fill="#000000" font-family="sans-serif" font-size="14" lengthAdjust="spacing" textLength="66" x="579.75" y="821.8467">Synonym</text><line style="stroke:#181818;stroke-width:0.5;" x1="500.5" x2="692.5" y1="833" y2="833"/><ellipse cx="510.5" cy="846.6484" fill="#000000" rx="3" ry="3" style="stroke:#000000;stroke-width:1.0;"/><text fill="#000000" font-family="sans-serif" font-size="14" lengthAdjust="spacing" textLength="168" x="519.5" y="849.9951">synonymOf: Expression</text><ellipse cx="510.5" cy="862.9453" fill="#000000" rx="3" ry="3" style="stroke:#000000;stroke-width:1.0;"/><text fill="#000000" font-family="sans-serif" font-size="14" lengthAdjust="spacing" textLength="147" x="519.5" y="866.292">synonymOfId: String</text><ellipse cx="510.5" cy="879.2422" fill="#000000" rx="3" ry="3" style="stroke:#000000;stroke-width:1.0;"/><text fill="#000000" font-family="sans-serif" font-size="14" lengthAdjust="spacing" textLength="151" x="519.5" y="882.5889">synonym: Expression</text><ellipse cx="510.5" cy="895.5391" fill="#000000" rx="3" ry="3" style="stroke:#000000;stroke-width:1.0;"/><text fill="#000000" font-family="sans-serif" font-size="14" lengthAdjust="spacing" textLength="130" x="519.5" y="898.8857">synonymId: String</text><line style="stroke:#181818;stroke-width:0.5;" x1="500.5" x2="692.5" y1="906.1875" y2="906.1875"/></g><!--class Account--><g id="elem_Account"><rect codeLine="79" fill="#F1F1F1" height="292.4531" id="Account" rx="2.5" ry="2.5" style="stroke:#181818;stroke-width:0.5;" width="230" x="685.5" y="7"/><ellipse cx="766.75" cy="23" fill="#ADD1B2" rx="11" ry="11" style="stroke:#181818;stroke-width:1.0;"/><path d="M765.5469,23.875 L767,23.875 L767,23.9844 C767,24.3906 767.0313,24.5469 767.1094,24.7031 C767.2656,24.9531 767.5469,25.1094 767.8438,25.1094 C768.0938,25.1094 768.3594,24.9688 768.5156,24.75 C768.6406,24.5938 768.6719,24.4375 768.6719,23.9844 L768.6719,22.0625 C768.6719,21.9063 768.6719,21.8594 768.6563,21.7031 C768.5938,21.2344 768.2813,20.9219 767.8281,20.9219 C767.5781,20.9219 767.3125,21.0625 767.1406,21.2813 C767.0313,21.4531 767,21.6094 767,22.0625 L767,22.1875 L765.5469,22.1875 L765.5469,19.7813 L769.5313,19.7813 L769.5313,20.6406 C769.5313,21.0469 769.5625,21.2188 769.6406,21.375 C769.8125,21.625 770.0938,21.7813 770.375,21.7813 C770.6406,21.7813 770.9063,21.6406 771.0781,21.4219 C771.1875,21.25 771.2188,21.1094 771.2188,20.6406 L771.2188,18.0938 L763.5938,18.0938 C763.1563,18.0938 763.0313,18.1094 762.875,18.2031 C762.625,18.3594 762.4688,18.6563 762.4688,18.9375 C762.4688,19.2188 762.6094,19.4688 762.8281,19.6406 C762.9844,19.75 763.1719,19.7813 763.5938,19.7813 L763.8438,19.7813 L763.8438,26.2969 L763.5938,26.2969 C763.1875,26.2969 763.0313,26.3125 762.875,26.4219 C762.625,26.5938 762.4688,26.8594 762.4688,27.1563 C762.4688,27.4219 762.6094,27.6719 762.8281,27.8281 C762.9688,27.9531 763.2031,28 763.5938,28 L771.5938,28 L771.5938,25.4219 C771.5938,24.9844 771.5625,24.8438 771.4844,24.6875 C771.3125,24.4375 771.0313,24.2813 770.75,24.2813 C770.4844,24.2813 770.2188,24.3906 770.0469,24.6406 C769.9375,24.7969 769.9063,24.9375 769.9063,25.4219 L769.9063,26.2969 L765.5469,26.2969 L765.5469,23.875 Z " fill="#000000"/><text fill="#000000" font-family="sans-serif" font-size="14" lengthAdjust="spacing" textLength="59" x="787.25" y="27.8467">Account</text><line style="stroke:#181818;stroke-width:0.5;" x1="686.5" x2="914.5" y1="39" y2="39"/><ellipse cx="696.5" cy="52.6484" fill="#000000" rx="3" ry="3" style="stroke:#000000;stroke-width:1.0;"/><text fill="#000000" font-family="sans-serif" font-size="14" lengthAdjust="spacing" textLength="66" x="705.5" y="55.9951">id: String</text><ellipse cx="696.5" cy="68.9453" fill="#000000" rx="3" ry="3" style="stroke:#000000;stroke-width:1.0;"/><text fill="#000000" font-family="sans-serif" font-size="14" lengthAdjust="spacing" textLength="96" x="705.5" y="72.292">userId: String</text><ellipse cx="696.5" cy="85.2422" fill="#000000" rx="3" ry="3" style="stroke:#000000;stroke-width:1.0;"/><text fill="#000000" font-family="sans-serif" font-size="14" lengthAdjust="spacing" textLength="87" x="705.5" y="88.5889">type: String</text><ellipse cx="696.5" cy="101.5391" fill="#000000" rx="3" ry="3" style="stroke:#000000;stroke-width:1.0;"/><text fill="#000000" font-family="sans-serif" font-size="14" lengthAdjust="spacing" textLength="114" x="705.5" y="104.8857">provider: String</text><ellipse cx="696.5" cy="117.8359" fill="#000000" rx="3" ry="3" style="stroke:#000000;stroke-width:1.0;"/><text fill="#000000" font-family="sans-serif" font-size="14" lengthAdjust="spacing" textLength="186" x="705.5" y="121.1826">providerAccountId: String</text><text fill="#000000" font-family="sans-serif" font-size="14" lengthAdjust="spacing" textLength="162" x="705.5" y="137.4795">refresh_token: String?</text><text fill="#000000" font-family="sans-serif" font-size="14" lengthAdjust="spacing" textLength="157" x="705.5" y="153.7764">access_token: String?</text><text fill="#000000" font-family="sans-serif" font-size="14" lengthAdjust="spacing" textLength="111" x="705.5" y="170.0732">expires_at: Int?</text><text fill="#000000" font-family="sans-serif" font-size="14" lengthAdjust="spacing" textLength="144" x="705.5" y="186.3701">token_type: String?</text><text fill="#000000" font-family="sans-serif" font-size="14" lengthAdjust="spacing" textLength="103" x="705.5" y="202.667">scope: String?</text><text fill="#000000" font-family="sans-serif" font-size="14" lengthAdjust="spacing" textLength="123" x="705.5" y="218.9639">id_token: String?</text><text fill="#000000" font-family="sans-serif" font-size="14" lengthAdjust="spacing" textLength="157" x="705.5" y="235.2607">session_state: String?</text><text fill="#000000" font-family="sans-serif" font-size="14" lengthAdjust="spacing" textLength="204" x="705.5" y="251.5576">oauth_token_secret: String?</text><text fill="#000000" font-family="sans-serif" font-size="14" lengthAdjust="spacing" textLength="151" x="705.5" y="267.8545">oauth_token: String?</text><ellipse cx="696.5" cy="280.8047" fill="#000000" rx="3" ry="3" style="stroke:#000000;stroke-width:1.0;"/><text fill="#000000" font-family="sans-serif" font-size="14" lengthAdjust="spacing" textLength="70" x="705.5" y="284.1514">user: User</text><line style="stroke:#181818;stroke-width:0.5;" x1="686.5" x2="914.5" y1="291.4531" y2="291.4531"/></g><!--class Session--><g id="elem_Session"><rect codeLine="97" fill="#F1F1F1" height="129.4844" id="Session" rx="2.5" ry="2.5" style="stroke:#181818;stroke-width:0.5;" width="176" x="950.5" y="88.5"/><ellipse cx="1007.25" cy="104.5" fill="#ADD1B2" rx="11" ry="11" style="stroke:#181818;stroke-width:1.0;"/><path d="M1006.0469,105.375 L1007.5,105.375 L1007.5,105.4844 C1007.5,105.8906 1007.5313,106.0469 1007.6094,106.2031 C1007.7656,106.4531 1008.0469,106.6094 1008.3438,106.6094 C1008.5938,106.6094 1008.8594,106.4688 1009.0156,106.25 C1009.1406,106.0938 1009.1719,105.9375 1009.1719,105.4844 L1009.1719,103.5625 C1009.1719,103.4063 1009.1719,103.3594 1009.1563,103.2031 C1009.0938,102.7344 1008.7813,102.4219 1008.3281,102.4219 C1008.0781,102.4219 1007.8125,102.5625 1007.6406,102.7813 C1007.5313,102.9531 1007.5,103.1094 1007.5,103.5625 L1007.5,103.6875 L1006.0469,103.6875 L1006.0469,101.2813 L1010.0313,101.2813 L1010.0313,102.1406 C1010.0313,102.5469 1010.0625,102.7188 1010.1406,102.875 C1010.3125,103.125 1010.5938,103.2813 1010.875,103.2813 C1011.1406,103.2813 1011.4063,103.1406 1011.5781,102.9219 C1011.6875,102.75 1011.7188,102.6094 1011.7188,102.1406 L1011.7188,99.5938 L1004.0938,99.5938 C1003.6563,99.5938 1003.5313,99.6094 1003.375,99.7031 C1003.125,99.8594 1002.9688,100.1563 1002.9688,100.4375 C1002.9688,100.7188 1003.1094,100.9688 1003.3281,101.1406 C1003.4844,101.25 1003.6719,101.2813 1004.0938,101.2813 L1004.3438,101.2813 L1004.3438,107.7969 L1004.0938,107.7969 C1003.6875,107.7969 1003.5313,107.8125 1003.375,107.9219 C1003.125,108.0938 1002.9688,108.3594 1002.9688,108.6563 C1002.9688,108.9219 1003.1094,109.1719 1003.3281,109.3281 C1003.4688,109.4531 1003.7031,109.5 1004.0938,109.5 L1012.0938,109.5 L1012.0938,106.9219 C1012.0938,106.4844 1012.0625,106.3438 1011.9844,106.1875 C1011.8125,105.9375 1011.5313,105.7813 1011.25,105.7813 C1010.9844,105.7813 1010.7188,105.8906 1010.5469,106.1406 C1010.4375,106.2969 1010.4063,106.4375 1010.4063,106.9219 L1010.4063,107.7969 L1006.0469,107.7969 L1006.0469,105.375 Z " fill="#000000"/><text fill="#000000" font-family="sans-serif" font-size="14" lengthAdjust="spacing" textLength="54" x="1027.75" y="109.3467">Session</text><line style="stroke:#181818;stroke-width:0.5;" x1="951.5" x2="1125.5" y1="120.5" y2="120.5"/><ellipse cx="961.5" cy="134.1484" fill="#000000" rx="3" ry="3" style="stroke:#000000;stroke-width:1.0;"/><text fill="#000000" font-family="sans-serif" font-size="14" lengthAdjust="spacing" textLength="66" x="970.5" y="137.4951">id: String</text><ellipse cx="961.5" cy="150.4453" fill="#000000" rx="3" ry="3" style="stroke:#000000;stroke-width:1.0;"/><text fill="#000000" font-family="sans-serif" font-size="14" lengthAdjust="spacing" textLength="150" x="970.5" y="153.792">sessionToken: String</text><ellipse cx="961.5" cy="166.7422" fill="#000000" rx="3" ry="3" style="stroke:#000000;stroke-width:1.0;"/><text fill="#000000" font-family="sans-serif" font-size="14" lengthAdjust="spacing" textLength="96" x="970.5" y="170.0889">userId: String</text><ellipse cx="961.5" cy="183.0391" fill="#000000" rx="3" ry="3" style="stroke:#000000;stroke-width:1.0;"/><text fill="#000000" font-family="sans-serif" font-size="14" lengthAdjust="spacing" textLength="133" x="970.5" y="186.3857">expires: DateTime</text><ellipse cx="961.5" cy="199.3359" fill="#000000" rx="3" ry="3" style="stroke:#000000;stroke-width:1.0;"/><text fill="#000000" font-family="sans-serif" font-size="14" lengthAdjust="spacing" textLength="70" x="970.5" y="202.6826">user: User</text><line style="stroke:#181818;stroke-width:0.5;" x1="951.5" x2="1125.5" y1="209.9844" y2="209.9844"/></g><!--class User--><g id="elem_User"><rect codeLine="105" fill="#F1F1F1" height="341.3438" id="User" rx="2.5" ry="2.5" style="stroke:#181818;stroke-width:0.5;" width="254" x="673.5" y="359"/><ellipse cx="780.75" cy="375" fill="#ADD1B2" rx="11" ry="11" style="stroke:#181818;stroke-width:1.0;"/><path d="M779.5469,375.875 L781,375.875 L781,375.9844 C781,376.3906 781.0313,376.5469 781.1094,376.7031 C781.2656,376.9531 781.5469,377.1094 781.8438,377.1094 C782.0938,377.1094 782.3594,376.9688 782.5156,376.75 C782.6406,376.5938 782.6719,376.4375 782.6719,375.9844 L782.6719,374.0625 C782.6719,373.9063 782.6719,373.8594 782.6563,373.7031 C782.5938,373.2344 782.2813,372.9219 781.8281,372.9219 C781.5781,372.9219 781.3125,373.0625 781.1406,373.2813 C781.0313,373.4531 781,373.6094 781,374.0625 L781,374.1875 L779.5469,374.1875 L779.5469,371.7813 L783.5313,371.7813 L783.5313,372.6406 C783.5313,373.0469 783.5625,373.2188 783.6406,373.375 C783.8125,373.625 784.0938,373.7813 784.375,373.7813 C784.6406,373.7813 784.9063,373.6406 785.0781,373.4219 C785.1875,373.25 785.2188,373.1094 785.2188,372.6406 L785.2188,370.0938 L777.5938,370.0938 C777.1563,370.0938 777.0313,370.1094 776.875,370.2031 C776.625,370.3594 776.4688,370.6563 776.4688,370.9375 C776.4688,371.2188 776.6094,371.4688 776.8281,371.6406 C776.9844,371.75 777.1719,371.7813 777.5938,371.7813 L777.8438,371.7813 L777.8438,378.2969 L777.5938,378.2969 C777.1875,378.2969 777.0313,378.3125 776.875,378.4219 C776.625,378.5938 776.4688,378.8594 776.4688,379.1563 C776.4688,379.4219 776.6094,379.6719 776.8281,379.8281 C776.9688,379.9531 777.2031,380 777.5938,380 L785.5938,380 L785.5938,377.4219 C785.5938,376.9844 785.5625,376.8438 785.4844,376.6875 C785.3125,376.4375 785.0313,376.2813 784.75,376.2813 C784.4844,376.2813 784.2188,376.3906 784.0469,376.6406 C783.9375,376.7969 783.9063,376.9375 783.9063,377.4219 L783.9063,378.2969 L779.5469,378.2969 L779.5469,375.875 Z " fill="#000000"/><text fill="#000000" font-family="sans-serif" font-size="14" lengthAdjust="spacing" textLength="31" x="801.25" y="379.8467">User</text><line style="stroke:#181818;stroke-width:0.5;" x1="674.5" x2="926.5" y1="391" y2="391"/><ellipse cx="684.5" cy="404.6484" fill="#000000" rx="3" ry="3" style="stroke:#000000;stroke-width:1.0;"/><text fill="#000000" font-family="sans-serif" font-size="14" lengthAdjust="spacing" textLength="66" x="693.5" y="407.9951">id: String</text><ellipse cx="684.5" cy="420.9453" fill="#000000" rx="3" ry="3" style="stroke:#000000;stroke-width:1.0;"/><text fill="#000000" font-family="sans-serif" font-size="14" lengthAdjust="spacing" textLength="93" x="693.5" y="424.292">name: String</text><ellipse cx="684.5" cy="437.2422" fill="#000000" rx="3" ry="3" style="stroke:#000000;stroke-width:1.0;"/><text fill="#000000" font-family="sans-serif" font-size="14" lengthAdjust="spacing" textLength="92" x="693.5" y="440.5889">email: String</text><ellipse cx="684.5" cy="453.5391" fill="#000000" rx="3" ry="3" style="stroke:#000000;stroke-width:1.0;"/><text fill="#000000" font-family="sans-serif" font-size="14" lengthAdjust="spacing" textLength="153" x="693.5" y="456.8857">createdAt: DateTime</text><text fill="#000000" font-family="sans-serif" font-size="14" lengthAdjust="spacing" textLength="183" x="693.5" y="473.1826">emailVerified: DateTime?</text><text fill="#000000" font-family="sans-serif" font-size="14" lengthAdjust="spacing" textLength="127" x="693.5" y="489.4795">password: String?</text><text fill="#000000" font-family="sans-serif" font-size="14" lengthAdjust="spacing" textLength="104" x="693.5" y="505.7764">image: String?</text><text fill="#000000" font-family="sans-serif" font-size="14" lengthAdjust="spacing" textLength="83" x="693.5" y="522.0732">bio: String?</text><ellipse cx="684.5" cy="535.0234" fill="#000000" rx="3" ry="3" style="stroke:#000000;stroke-width:1.0;"/><text fill="#000000" font-family="sans-serif" font-size="14" lengthAdjust="spacing" textLength="182" x="693.5" y="538.3701">expressions: Expression[]</text><ellipse cx="684.5" cy="551.3203" fill="#000000" rx="3" ry="3" style="stroke:#000000;stroke-width:1.0;"/><text fill="#000000" font-family="sans-serif" font-size="14" lengthAdjust="spacing" textLength="142" x="693.5" y="554.667">accounts: Account[]</text><ellipse cx="684.5" cy="567.6172" fill="#000000" rx="3" ry="3" style="stroke:#000000;stroke-width:1.0;"/><text fill="#000000" font-family="sans-serif" font-size="14" lengthAdjust="spacing" textLength="132" x="693.5" y="570.9639">sessions: Session[]</text><ellipse cx="684.5" cy="583.9141" fill="#000000" rx="3" ry="3" style="stroke:#000000;stroke-width:1.0;"/><text fill="#000000" font-family="sans-serif" font-size="14" lengthAdjust="spacing" textLength="69" x="693.5" y="587.2607">role: Role</text><ellipse cx="684.5" cy="600.2109" fill="#000000" rx="3" ry="3" style="stroke:#000000;stroke-width:1.0;"/><text fill="#000000" font-family="sans-serif" font-size="14" lengthAdjust="spacing" textLength="82" x="693.5" y="603.5576">likes: Like[]</text><ellipse cx="684.5" cy="616.5078" fill="#000000" rx="3" ry="3" style="stroke:#000000;stroke-width:1.0;"/><text fill="#000000" font-family="sans-serif" font-size="14" lengthAdjust="spacing" textLength="120" x="693.5" y="619.8545">dislikes: Dislike[]</text><text fill="#000000" font-family="sans-serif" font-size="14" lengthAdjust="spacing" textLength="115" x="693.5" y="636.1514">country: String?</text><text fill="#000000" font-family="sans-serif" font-size="14" lengthAdjust="spacing" textLength="110" x="693.5" y="652.4482">canton: String?</text><ellipse cx="684.5" cy="665.3984" fill="#000000" rx="3" ry="3" style="stroke:#000000;stroke-width:1.0;"/><text fill="#000000" font-family="sans-serif" font-size="14" lengthAdjust="spacing" textLength="82" x="693.5" y="668.7451">flags: Flag[]</text><ellipse cx="684.5" cy="681.6953" fill="#000000" rx="3" ry="3" style="stroke:#000000;stroke-width:1.0;"/><text fill="#000000" font-family="sans-serif" font-size="14" lengthAdjust="spacing" textLength="228" x="693.5" y="685.042">examples: ExpressionExample[]</text><line style="stroke:#181818;stroke-width:0.5;" x1="674.5" x2="926.5" y1="692.3438" y2="692.3438"/></g><!--class VerificationToken--><g id="elem_VerificationToken"><rect codeLine="126" fill="#F1F1F1" height="113.1875" id="VerificationToken" rx="2.5" ry="2.5" style="stroke:#181818;stroke-width:0.5;" width="161" x="1162" y="96.5"/><ellipse cx="1177" cy="112.5" fill="#ADD1B2" rx="11" ry="11" style="stroke:#181818;stroke-width:1.0;"/><path d="M1175.7969,113.375 L1177.25,113.375 L1177.25,113.4844 C1177.25,113.8906 1177.2813,114.0469 1177.3594,114.2031 C1177.5156,114.4531 1177.7969,114.6094 1178.0938,114.6094 C1178.3438,114.6094 1178.6094,114.4688 1178.7656,114.25 C1178.8906,114.0938 1178.9219,113.9375 1178.9219,113.4844 L1178.9219,111.5625 C1178.9219,111.4063 1178.9219,111.3594 1178.9063,111.2031 C1178.8438,110.7344 1178.5313,110.4219 1178.0781,110.4219 C1177.8281,110.4219 1177.5625,110.5625 1177.3906,110.7813 C1177.2813,110.9531 1177.25,111.1094 1177.25,111.5625 L1177.25,111.6875 L1175.7969,111.6875 L1175.7969,109.2813 L1179.7813,109.2813 L1179.7813,110.1406 C1179.7813,110.5469 1179.8125,110.7188 1179.8906,110.875 C1180.0625,111.125 1180.3438,111.2813 1180.625,111.2813 C1180.8906,111.2813 1181.1563,111.1406 1181.3281,110.9219 C1181.4375,110.75 1181.4688,110.6094 1181.4688,110.1406 L1181.4688,107.5938 L1173.8438,107.5938 C1173.4063,107.5938 1173.2813,107.6094 1173.125,107.7031 C1172.875,107.8594 1172.7188,108.1563 1172.7188,108.4375 C1172.7188,108.7188 1172.8594,108.9688 1173.0781,109.1406 C1173.2344,109.25 1173.4219,109.2813 1173.8438,109.2813 L1174.0938,109.2813 L1174.0938,115.7969 L1173.8438,115.7969 C1173.4375,115.7969 1173.2813,115.8125 1173.125,115.9219 C1172.875,116.0938 1172.7188,116.3594 1172.7188,116.6563 C1172.7188,116.9219 1172.8594,117.1719 1173.0781,117.3281 C1173.2188,117.4531 1173.4531,117.5 1173.8438,117.5 L1181.8438,117.5 L1181.8438,114.9219 C1181.8438,114.4844 1181.8125,114.3438 1181.7344,114.1875 C1181.5625,113.9375 1181.2813,113.7813 1181,113.7813 C1180.7344,113.7813 1180.4688,113.8906 1180.2969,114.1406 C1180.1875,114.2969 1180.1563,114.4375 1180.1563,114.9219 L1180.1563,115.7969 L1175.7969,115.7969 L1175.7969,113.375 Z " fill="#000000"/><text fill="#000000" font-family="sans-serif" font-size="14" lengthAdjust="spacing" textLength="129" x="1191" y="117.3467">VerificationToken</text><line style="stroke:#181818;stroke-width:0.5;" x1="1163" x2="1322" y1="128.5" y2="128.5"/><ellipse cx="1173" cy="142.1484" fill="#000000" rx="3" ry="3" style="stroke:#000000;stroke-width:1.0;"/><text fill="#000000" font-family="sans-serif" font-size="14" lengthAdjust="spacing" textLength="42" x="1182" y="145.4951">id: Int</text><ellipse cx="1173" cy="158.4453" fill="#000000" rx="3" ry="3" style="stroke:#000000;stroke-width:1.0;"/><text fill="#000000" font-family="sans-serif" font-size="14" lengthAdjust="spacing" textLength="120" x="1182" y="161.792">identifier: String</text><ellipse cx="1173" cy="174.7422" fill="#000000" rx="3" ry="3" style="stroke:#000000;stroke-width:1.0;"/><text fill="#000000" font-family="sans-serif" font-size="14" lengthAdjust="spacing" textLength="96" x="1182" y="178.0889">token: String</text><ellipse cx="1173" cy="191.0391" fill="#000000" rx="3" ry="3" style="stroke:#000000;stroke-width:1.0;"/><text fill="#000000" font-family="sans-serif" font-size="14" lengthAdjust="spacing" textLength="133" x="1182" y="194.3857">expires: DateTime</text><line style="stroke:#181818;stroke-width:0.5;" x1="1163" x2="1322" y1="201.6875" y2="201.6875"/></g><!--link Like to Expression--><g id="link_Like_Expression"><path codeLine="133" d="M471.167,234.039 C471.167,276.381 471.167,315.356 471.167,366.863 " fill="none" id="Like-Expression" style="stroke:#181818;stroke-width:1.0;stroke-dasharray:7.0,7.0;"/><line style="stroke:#181818;stroke-width:1.0;" x1="471.167" x2="465.167" y1="234.039" y2="226.039"/><line style="stroke:#181818;stroke-width:1.0;" x1="471.167" x2="477.167" y1="234.039" y2="226.039"/><line style="stroke:#181818;stroke-width:1.0;" x1="471.167" x2="471.167" y1="234.039" y2="226.039"/><line style="stroke:#181818;stroke-width:1.0;" x1="467.167" x2="475.167" y1="236.039" y2="236.039"/><line style="stroke:#181818;stroke-width:1.0;" x1="475.167" x2="467.167" y1="370.863" y2="370.863"/><line style="stroke:#181818;stroke-width:1.0;" x1="475.167" x2="467.167" y1="367.863" y2="367.863"/><line style="stroke:#181818;stroke-width:1.0;" x1="471.167" x2="471.167" y1="366.863" y2="374.863"/></g><!--link Like to Expression--><g id="link_Like_Expression"><path codeLine="136" d="M483.333,234.039 C483.333,276.381 483.333,315.356 483.333,366.863 " fill="none" id="Like-Expression-1" style="stroke:#181818;stroke-width:1.0;stroke-dasharray:7.0,7.0;"/><line style="stroke:#181818;stroke-width:1.0;" x1="483.333" x2="477.333" y1="234.039" y2="226.039"/><line style="stroke:#181818;stroke-width:1.0;" x1="483.333" x2="489.333" y1="234.039" y2="226.039"/><line style="stroke:#181818;stroke-width:1.0;" x1="483.333" x2="483.333" y1="234.039" y2="226.039"/><line style="stroke:#181818;stroke-width:1.0;" x1="479.333" x2="487.333" y1="236.039" y2="236.039"/><line style="stroke:#181818;stroke-width:1.0;" x1="487.333" x2="479.333" y1="370.863" y2="370.863"/><line style="stroke:#181818;stroke-width:1.0;" x1="487.333" x2="479.333" y1="367.863" y2="367.863"/><line style="stroke:#181818;stroke-width:1.0;" x1="483.333" x2="483.333" y1="366.863" y2="374.863"/></g><!--link Dislike to Expression--><g id="link_Dislike_Expression"><path codeLine="134" d="M167.75,234.136 C167.75,343.77 167.75,530 167.75,530 C167.75,530 193.522,530 233.362,530 " fill="none" id="Dislike-Expression" style="stroke:#181818;stroke-width:1.0;stroke-dasharray:7.0,7.0;"/><line style="stroke:#181818;stroke-width:1.0;" x1="167.75" x2="161.75" y1="234.136" y2="226.136"/><line style="stroke:#181818;stroke-width:1.0;" x1="167.75" x2="173.75" y1="234.136" y2="226.136"/><line style="stroke:#181818;stroke-width:1.0;" x1="167.75" x2="167.75" y1="234.136" y2="226.136"/><line style="stroke:#181818;stroke-width:1.0;" x1="163.75" x2="171.75" y1="236.136" y2="236.136"/><line style="stroke:#181818;stroke-width:1.0;" x1="237.362" x2="237.362" y1="526" y2="534"/><line style="stroke:#181818;stroke-width:1.0;" x1="234.362" x2="234.362" y1="526" y2="534"/><line style="stroke:#181818;stroke-width:1.0;" x1="233.362" x2="241.362" y1="530" y2="530"/></g><!--link Flag to Expression--><g id="link_Flag_Expression"><path codeLine="135" d="M332.75,234.039 C332.75,276.381 332.75,315.356 332.75,366.863 " fill="none" id="Flag-Expression" style="stroke:#181818;stroke-width:1.0;stroke-dasharray:7.0,7.0;"/><line style="stroke:#181818;stroke-width:1.0;" x1="332.75" x2="326.75" y1="234.039" y2="226.039"/><line style="stroke:#181818;stroke-width:1.0;" x1="332.75" x2="338.75" y1="234.039" y2="226.039"/><line style="stroke:#181818;stroke-width:1.0;" x1="332.75" x2="332.75" y1="234.039" y2="226.039"/><line style="stroke:#181818;stroke-width:1.0;" x1="328.75" x2="336.75" y1="236.039" y2="236.039"/><line style="stroke:#181818;stroke-width:1.0;" x1="336.75" x2="328.75" y1="370.863" y2="370.863"/><line style="stroke:#181818;stroke-width:1.0;" x1="336.75" x2="328.75" y1="367.863" y2="367.863"/><line style="stroke:#181818;stroke-width:1.0;" x1="332.75" x2="332.75" y1="366.863" y2="374.863"/></g><!--link Expression to ExpressionExample--><g id="link_Expression_ExpressionExample"><path codeLine="137" d="M368.5,692.375 C368.5,718.085 368.5,728.095 368.5,751.867 " fill="none" id="Expression-ExpressionExample" style="stroke:#181818;stroke-width:1.0;stroke-dasharray:7.0,7.0;"/><line style="stroke:#181818;stroke-width:1.0;" x1="364.5" x2="372.5" y1="688.375" y2="688.375"/><line style="stroke:#181818;stroke-width:1.0;" x1="364.5" x2="372.5" y1="691.375" y2="691.375"/><line style="stroke:#181818;stroke-width:1.0;" x1="368.5" x2="368.5" y1="692.375" y2="684.375"/><line style="stroke:#181818;stroke-width:1.0;" x1="368.5" x2="374.5" y1="751.867" y2="759.867"/><line style="stroke:#181818;stroke-width:1.0;" x1="368.5" x2="362.5" y1="751.867" y2="759.867"/><line style="stroke:#181818;stroke-width:1.0;" x1="368.5" x2="368.5" y1="751.867" y2="759.867"/><line style="stroke:#181818;stroke-width:1.0;" x1="372.5" x2="364.5" y1="749.867" y2="749.867"/></g><!--link Expression to Synonym--><g id="link_Expression_Synonym"><path codeLine="138" d="M479.75,692.131 C479.75,777.334 479.75,858 479.75,858 C479.75,858 479.628,858 491.291,858 " fill="none" id="Expression-Synonym" style="stroke:#181818;stroke-width:1.0;stroke-dasharray:7.0,7.0;"/><line style="stroke:#181818;stroke-width:1.0;" x1="475.75" x2="483.75" y1="688.131" y2="688.131"/><line style="stroke:#181818;stroke-width:1.0;" x1="475.75" x2="483.75" y1="691.131" y2="691.131"/><line style="stroke:#181818;stroke-width:1.0;" x1="479.75" x2="479.75" y1="692.131" y2="684.131"/><line style="stroke:#181818;stroke-width:1.0;" x1="491.291" x2="499.291" y1="858" y2="852"/><line style="stroke:#181818;stroke-width:1.0;" x1="491.291" x2="499.291" y1="858" y2="864"/><line style="stroke:#181818;stroke-width:1.0;" x1="491.291" x2="499.291" y1="858" y2="858"/><line style="stroke:#181818;stroke-width:1.0;" x1="489.291" x2="489.291" y1="854" y2="862"/></g><!--link Account to User--><g id="link_Account_User"><path codeLine="139" d="M800.5,307.104 C800.5,326.637 800.5,330.808 800.5,350.717 " fill="none" id="Account-User" style="stroke:#181818;stroke-width:1.0;stroke-dasharray:7.0,7.0;"/><line style="stroke:#181818;stroke-width:1.0;" x1="800.5" x2="794.5" y1="307.104" y2="299.104"/><line style="stroke:#181818;stroke-width:1.0;" x1="800.5" x2="806.5" y1="307.104" y2="299.104"/><line style="stroke:#181818;stroke-width:1.0;" x1="800.5" x2="800.5" y1="307.104" y2="299.104"/><line style="stroke:#181818;stroke-width:1.0;" x1="796.5" x2="804.5" y1="309.104" y2="309.104"/><line style="stroke:#181818;stroke-width:1.0;" x1="804.5" x2="796.5" y1="354.717" y2="354.717"/><line style="stroke:#181818;stroke-width:1.0;" x1="804.5" x2="796.5" y1="351.717" y2="351.717"/><line style="stroke:#181818;stroke-width:1.0;" x1="800.5" x2="800.5" y1="350.717" y2="358.717"/></g><!--link Session to User--><g id="link_Session_User"><path codeLine="140" d="M942.421,153 C925.799,153 921.5,153 921.5,153 C921.5,153 921.5,251.258 921.5,350.875 " fill="none" id="Session-User" style="stroke:#181818;stroke-width:1.0;stroke-dasharray:7.0,7.0;"/><line style="stroke:#181818;stroke-width:1.0;" x1="942.421" x2="950.421" y1="153" y2="147"/><line style="stroke:#181818;stroke-width:1.0;" x1="942.421" x2="950.421" y1="153" y2="159"/><line style="stroke:#181818;stroke-width:1.0;" x1="942.421" x2="950.421" y1="153" y2="153"/><line style="stroke:#181818;stroke-width:1.0;" x1="940.421" x2="940.421" y1="149" y2="157"/><line style="stroke:#181818;stroke-width:1.0;" x1="925.5" x2="917.5" y1="354.875" y2="354.875"/><line style="stroke:#181818;stroke-width:1.0;" x1="925.5" x2="917.5" y1="351.875" y2="351.875"/><line style="stroke:#181818;stroke-width:1.0;" x1="921.5" x2="921.5" y1="350.875" y2="358.875"/></g><!--link Like to User--><g id="link_Like_User"><path codeLine="141" d="M658.193,153 C675.14,153 679.5,153 679.5,153 C679.5,153 679.5,251.258 679.5,350.875 " fill="none" id="Like-User" style="stroke:#181818;stroke-width:1.0;stroke-dasharray:7.0,7.0;"/><line style="stroke:#181818;stroke-width:1.0;" x1="658.193" x2="650.193" y1="153" y2="159"/><line style="stroke:#181818;stroke-width:1.0;" x1="658.193" x2="650.193" y1="153" y2="147"/><line style="stroke:#181818;stroke-width:1.0;" x1="658.193" x2="650.193" y1="153" y2="153"/><line style="stroke:#181818;stroke-width:1.0;" x1="660.193" x2="660.193" y1="157" y2="149"/><line style="stroke:#181818;stroke-width:1.0;" x1="683.5" x2="675.5" y1="354.875" y2="354.875"/><line style="stroke:#181818;stroke-width:1.0;" x1="683.5" x2="675.5" y1="351.875" y2="351.875"/><line style="stroke:#181818;stroke-width:1.0;" x1="679.5" x2="679.5" y1="350.875" y2="358.875"/></g><!--link Expression to Language--><g id="link_Expression_Language"><path codeLine="142" d="M257.25,692.131 C257.25,777.334 257.25,858 257.25,858 C257.25,858 256.82,858 245.821,858 " fill="none" id="Expression-Language" style="stroke:#181818;stroke-width:1.0;stroke-dasharray:7.0,7.0;"/><line style="stroke:#181818;stroke-width:1.0;" x1="253.25" x2="261.25" y1="688.131" y2="688.131"/><line style="stroke:#181818;stroke-width:1.0;" x1="253.25" x2="261.25" y1="691.131" y2="691.131"/><line style="stroke:#181818;stroke-width:1.0;" x1="257.25" x2="257.25" y1="692.131" y2="684.131"/><line style="stroke:#181818;stroke-width:1.0;" x1="241.821" x2="241.821" y1="862" y2="854"/><line style="stroke:#181818;stroke-width:1.0;" x1="244.821" x2="244.821" y1="862" y2="854"/><line style="stroke:#181818;stroke-width:1.0;" x1="245.821" x2="237.821" y1="858" y2="858"/></g><!--link User to Role--><g id="link_User_Role"><path codeLine="143" d="M800.5,708.225 C800.5,751.81 800.5,778.76 800.5,808.735 " fill="none" id="User-Role" style="stroke:#181818;stroke-width:1.0;stroke-dasharray:7.0,7.0;"/><line style="stroke:#181818;stroke-width:1.0;" x1="796.5" x2="804.5" y1="704.225" y2="704.225"/><line style="stroke:#181818;stroke-width:1.0;" x1="796.5" x2="804.5" y1="707.225" y2="707.225"/><line style="stroke:#181818;stroke-width:1.0;" x1="800.5" x2="800.5" y1="708.225" y2="700.225"/><line style="stroke:#181818;stroke-width:1.0;" x1="804.5" x2="796.5" y1="812.735" y2="812.735"/><line style="stroke:#181818;stroke-width:1.0;" x1="804.5" x2="796.5" y1="809.735" y2="809.735"/><line style="stroke:#181818;stroke-width:1.0;" x1="800.5" x2="800.5" y1="808.735" y2="816.735"/></g><!--SRC=[pLPDR-CW4BtxLt3UGt-0Br5MIQL8tLsfIVUoMbdK9WcA3HRWjb7T_xu3Z6smdIhPKoyMUVCO7lD5z8cBcYfQaP8BPiur8rAPeqmI9fgAF51nQEY1aVU4aDKQFlUFyDdiaWzaFChIMv-sQsjQhdviVdghuUPC7lZ9sxyHzbOhfZMN8YNhVZqoROgKR8tYuk0Cj04nAYLFcga06B5onQXXnTAaP0MB7QyOu4rTZD55e6p5TVbbnTsNzF0rbGqIK1-FdGAfP05Ii3qNt3Zv7bmuNjqybrmV6Up-Bg68gBrIg7lH_nva-wqsRJfrfVNdhqCAdqi0CQk8tt13Izz3r0zMaGr_vu8A8uNk521QOcEaVOiuM9-55EVgrnxeVebyDEWnpjveLPTM-13NjSU0CHTrjCu7_yRx_azfJVDvTTwceHmkY671QmLn7EdgBIDPY5_Y1-pXp6MUoqQO-L0sS9NH6NOyHa2jv0ilc9e5qNlaGx4zY3jcHfvOr0yqpq7q58SqSDYHKSZTHXWBEKuMQh6epcKCy6BgJVl0PDf06OG6QHFc-PbcK4NcWZLEg8qH3faWavzD1rIm2trT2ZVUFIhb2sVQd_C72bh5EMCLvUKLJUDulvdYUsudGjWuDTNwLQgekddbfi40F7CP1slegAZRSH1GNorWmhhf1aU_PHlnbRHJrhw-Dur4vrgTGsM-AsEjTX3gQ0nUEwXyn79gkYm7QO42nhKbGrpZnZ6JefXM01pa_b5yj7TtRHisU_USJotkBPt25_m4xrjhZU_J2yzmS7mbtKX1lwvCkuO8iV1m1unTjiF3ueeRGPlmVm00]--></g></svg>