<?xml version="1.0" encoding="us-ascii" standalone="no"?><svg xmlns="http://www.w3.org/2000/svg" xmlns:xlink="http://www.w3.org/1999/xlink" contentStyleType="text/css" height="961px" preserveAspectRatio="none" style="width:1326px;height:961px;background:#FFFFFF;" version="1.1" viewBox="0 0 1326 961" width="1326px" zoomAndPan="magnify"><defs/><g><!--class Language--><g id="elem_Language"><rect codeLine="3" fill="#F1F1F1" height="96.8906" id="Language" rx="2.5" ry="2.5" style="stroke:#181818;stroke-width:0.5;" width="100" x="147" y="809"/><ellipse cx="162" cy="825" fill="#EB937F" rx="11" ry="11" style="stroke:#181818;stroke-width:1.0;"/><path d="M160.7969,825.875 L162.25,825.875 L162.25,825.9844 C162.25,826.3906 162.2813,826.5469 162.3594,826.7031 C162.5156,826.9531 162.7969,827.1094 163.0938,827.1094 C163.3438,827.1094 163.6094,826.9688 163.7656,826.75 C163.8906,826.5938 163.9219,826.4375 163.9219,825.9844 L163.9219,824.0625 C163.9219,823.9063 163.9219,823.8594 163.9063,823.7031 C163.8438,823.2344 163.5313,822.9219 163.0781,822.9219 C162.8281,822.9219 162.5625,823.0625 162.3906,823.2813 C162.2813,823.4531 162.25,823.6094 162.25,824.0625 L162.25,824.1875 L160.7969,824.1875 L160.7969,821.7813 L164.7813,821.7813 L164.7813,822.6406 C164.7813,823.0469 164.8125,823.2188 164.8906,823.375 C165.0625,823.625 165.3438,823.7813 165.625,823.7813 C165.8906,823.7813 166.1563,823.6406 166.3281,823.4219 C166.4375,823.25 166.4688,823.1094 166.4688,822.6406 L166.4688,820.0938 L158.8438,820.0938 C158.4063,820.0938 158.2813,820.1094 158.125,820.2031 C157.875,820.3594 157.7188,820.6563 157.7188,820.9375 C157.7188,821.2188 157.8594,821.4688 158.0781,821.6406 C158.2344,821.75 158.4219,821.7813 158.8438,821.7813 L159.0938,821.7813 L159.0938,828.2969 L158.8438,828.2969 C158.4375,828.2969 158.2813,828.3125 158.125,828.4219 C157.875,828.5938 157.7188,828.8594 157.7188,829.1563 C157.7188,829.4219 157.8594,829.6719 158.0781,829.8281 C158.2188,829.9531 158.4531,830 158.8438,830 L166.8438,830 L166.8438,827.4219 C166.8438,826.9844 166.8125,826.8438 166.7344,826.6875 C166.5625,826.4375 166.2813,826.2813 166,826.2813 C165.7344,826.2813 165.4688,826.3906 165.2969,826.6406 C165.1875,826.7969 165.1563,826.9375 165.1563,827.4219 L165.1563,828.2969 L160.7969,828.2969 L160.7969,825.875 Z " fill="#000000"/><text fill="#000000" font-family="sans-serif" font-size="14" lengthAdjust="spacing" textLength="68" x="176" y="829.8467">Language</text><line style="stroke:#181818;stroke-width:0.5;" x1="148" x2="246" y1="841" y2="841"/><text fill="#000000" font-family="sans-serif" font-size="14" lengthAdjust="spacing" textLength="20" x="153" y="857.9951">DE</text><text fill="#000000" font-family="sans-serif" font-size="14" lengthAdjust="spacing" textLength="18" x="153" y="874.292">FR</text><text fill="#000000" font-family="sans-serif" font-size="14" lengthAdjust="spacing" textLength="13" x="153" y="890.5889">IT</text><line style="stroke:#181818;stroke-width:0.5;" x1="148" x2="246" y1="897.8906" y2="897.8906"/></g><!--class Role--><g id="elem_Role"><rect codeLine="9" fill="#F1F1F1" height="80.5938" id="Role" rx="2.5" ry="2.5" style="stroke:#181818;stroke-width:0.5;" width="64" x="765" y="817"/><ellipse cx="780" cy="833" fill="#EB937F" rx="11" ry="11" style="stroke:#181818;stroke-width:1.0;"/><path d="M778.7969,833.875 L780.25,833.875 L780.25,833.9844 C780.25,834.3906 780.2813,834.5469 780.3594,834.7031 C780.5156,834.9531 780.7969,835.1094 781.0938,835.1094 C781.3438,835.1094 781.6094,834.9688 781.7656,834.75 C781.8906,834.5938 781.9219,834.4375 781.9219,833.9844 L781.9219,832.0625 C781.9219,831.9063 781.9219,831.8594 781.9063,831.7031 C781.8438,831.2344 781.5313,830.9219 781.0781,830.9219 C780.8281,830.9219 780.5625,831.0625 780.3906,831.2813 C780.2813,831.4531 780.25,831.6094 780.25,832.0625 L780.25,832.1875 L778.7969,832.1875 L778.7969,829.7813 L782.7813,829.7813 L782.7813,830.6406 C782.7813,831.0469 782.8125,831.2188 782.8906,831.375 C783.0625,831.625 783.3438,831.7813 783.625,831.7813 C783.8906,831.7813 784.1563,831.6406 784.3281,831.4219 C784.4375,831.25 784.4688,831.1094 784.4688,830.6406 L784.4688,828.0938 L776.8438,828.0938 C776.4063,828.0938 776.2813,828.1094 776.125,828.2031 C775.875,828.3594 775.7188,828.6563 775.7188,828.9375 C775.7188,829.2188 775.8594,829.4688 776.0781,829.6406 C776.2344,829.75 776.4219,829.7813 776.8438,829.7813 L777.0938,829.7813 L777.0938,836.2969 L776.8438,836.2969 C776.4375,836.2969 776.2813,836.3125 776.125,836.4219 C775.875,836.5938 775.7188,836.8594 775.7188,837.1563 C775.7188,837.4219 775.8594,837.6719 776.0781,837.8281 C776.2188,837.9531 776.4531,838 776.8438,838 L784.8438,838 L784.8438,835.4219 C784.8438,834.9844 784.8125,834.8438 784.7344,834.6875 C784.5625,834.4375 784.2813,834.2813 784,834.2813 C783.7344,834.2813 783.4688,834.3906 783.2969,834.6406 C783.1875,834.7969 783.1563,834.9375 783.1563,835.4219 L783.1563,836.2969 L778.7969,836.2969 L778.7969,833.875 Z " fill="#000000"/><text fill="#000000" font-family="sans-serif" font-size="14" lengthAdjust="spacing" textLength="32" x="794" y="837.8467">Role</text><line style="stroke:#181818;stroke-width:0.5;" x1="766" x2="828" y1="849" y2="849"/><text fill="#000000" font-family="sans-serif" font-size="14" lengthAdjust="spacing" textLength="37" x="771" y="865.9951">USER</text><text fill="#000000" font-family="sans-serif" font-size="14" lengthAdjust="spacing" textLength="47" x="771" y="882.292">ADMIN</text><line style="stroke:#181818;stroke-width:0.5;" x1="766" x2="828" y1="889.5938" y2="889.5938"/></g><!--class Like--><g id="elem_Like"><rect codeLine="14" fill="#F1F1F1" height="145.7813" id="Like" rx="2.5" ry="2.5" style="stroke:#181818;stroke-width:0.5;" width="190" x="457" y="80"/><ellipse cx="532.75" cy="96" fill="#ADD1B2" rx="11" ry="11" style="stroke:#181818;stroke-width:1.0;"/><path d="M531.5469,96.875 L533,96.875 L533,96.9844 C533,97.3906 533.0313,97.5469 533.1094,97.7031 C533.2656,97.9531 533.5469,98.1094 533.8438,98.1094 C534.0938,98.1094 534.3594,97.9688 534.5156,97.75 C534.6406,97.5938 534.6719,97.4375 534.6719,96.9844 L534.6719,95.0625 C534.6719,94.9063 534.6719,94.8594 534.6563,94.7031 C534.5938,94.2344 534.2813,93.9219 533.8281,93.9219 C533.5781,93.9219 533.3125,94.0625 533.1406,94.2813 C533.0313,94.4531 533,94.6094 533,95.0625 L533,95.1875 L531.5469,95.1875 L531.5469,92.7813 L535.5313,92.7813 L535.5313,93.6406 C535.5313,94.0469 535.5625,94.2188 535.6406,94.375 C535.8125,94.625 536.0938,94.7813 536.375,94.7813 C536.6406,94.7813 536.9063,94.6406 537.0781,94.4219 C537.1875,94.25 537.2188,94.1094 537.2188,93.6406 L537.2188,91.0938 L529.5938,91.0938 C529.1563,91.0938 529.0313,91.1094 528.875,91.2031 C528.625,91.3594 528.4688,91.6563 528.4688,91.9375 C528.4688,92.2188 528.6094,92.4688 528.8281,92.6406 C528.9844,92.75 529.1719,92.7813 529.5938,92.7813 L529.8438,92.7813 L529.8438,99.2969 L529.5938,99.2969 C529.1875,99.2969 529.0313,99.3125 528.875,99.4219 C528.625,99.5938 528.4688,99.8594 528.4688,100.1563 C528.4688,100.4219 528.6094,100.6719 528.8281,100.8281 C528.9688,100.9531 529.2031,101 529.5938,101 L537.5938,101 L537.5938,98.4219 C537.5938,97.9844 537.5625,97.8438 537.4844,97.6875 C537.3125,97.4375 537.0313,97.2813 536.75,97.2813 C536.4844,97.2813 536.2188,97.3906 536.0469,97.6406 C535.9375,97.7969 535.9063,97.9375 535.9063,98.4219 L535.9063,99.2969 L531.5469,99.2969 L531.5469,96.875 Z " fill="#000000"/><text fill="#000000" font-family="sans-serif" font-size="14" lengthAdjust="spacing" textLength="30" x="553.25" y="100.8467">Like</text><line style="stroke:#181818;stroke-width:0.5;" x1="458" x2="646" y1="112" y2="112"/><ellipse cx="468" cy="125.6484" fill="#000000" rx="3" ry="3" style="stroke:#000000;stroke-width:1.0;"/><text fill="#000000" font-family="sans-serif" font-size="14" lengthAdjust="spacing" textLength="83" x="477" y="128.9951">term: Term</text><ellipse cx="468" cy="141.9453" fill="#000000" rx="3" ry="3" style="stroke:#000000;stroke-width:1.0;"/><text fill="#000000" font-family="sans-serif" font-size="14" lengthAdjust="spacing" textLength="102" x="477" y="145.292">termId: String</text><ellipse cx="468" cy="158.2422" fill="#000000" rx="3" ry="3" style="stroke:#000000;stroke-width:1.0;"/><text fill="#000000" font-family="sans-serif" font-size="14" lengthAdjust="spacing" textLength="87" x="477" y="161.5889">author: User</text><ellipse cx="468" cy="174.5391" fill="#000000" rx="3" ry="3" style="stroke:#000000;stroke-width:1.0;"/><text fill="#000000" font-family="sans-serif" font-size="14" lengthAdjust="spacing" textLength="113" x="477" y="177.8857">authorId: String</text><ellipse cx="468" cy="190.8359" fill="#000000" rx="3" ry="3" style="stroke:#000000;stroke-width:1.0;"/><text fill="#000000" font-family="sans-serif" font-size="14" lengthAdjust="spacing" textLength="153" x="477" y="194.1826">createdAt: DateTime</text><text fill="#000000" font-family="sans-serif" font-size="14" lengthAdjust="spacing" textLength="164" x="477" y="210.4795">updatedAt: DateTime?</text><line style="stroke:#181818;stroke-width:0.5;" x1="458" x2="646" y1="217.7813" y2="217.7813"/></g><!--class Dislike--><g id="elem_Dislike"><rect codeLine="23" fill="#F1F1F1" height="145.7813" id="Dislike" rx="2.5" ry="2.5" style="stroke:#181818;stroke-width:0.5;" width="190" x="7" y="80"/><ellipse cx="73.75" cy="96" fill="#ADD1B2" rx="11" ry="11" style="stroke:#181818;stroke-width:1.0;"/><path d="M72.5469,96.875 L74,96.875 L74,96.9844 C74,97.3906 74.0313,97.5469 74.1094,97.7031 C74.2656,97.9531 74.5469,98.1094 74.8438,98.1094 C75.0938,98.1094 75.3594,97.9688 75.5156,97.75 C75.6406,97.5938 75.6719,97.4375 75.6719,96.9844 L75.6719,95.0625 C75.6719,94.9063 75.6719,94.8594 75.6563,94.7031 C75.5938,94.2344 75.2813,93.9219 74.8281,93.9219 C74.5781,93.9219 74.3125,94.0625 74.1406,94.2813 C74.0313,94.4531 74,94.6094 74,95.0625 L74,95.1875 L72.5469,95.1875 L72.5469,92.7813 L76.5313,92.7813 L76.5313,93.6406 C76.5313,94.0469 76.5625,94.2188 76.6406,94.375 C76.8125,94.625 77.0938,94.7813 77.375,94.7813 C77.6406,94.7813 77.9063,94.6406 78.0781,94.4219 C78.1875,94.25 78.2188,94.1094 78.2188,93.6406 L78.2188,91.0938 L70.5938,91.0938 C70.1563,91.0938 70.0313,91.1094 69.875,91.2031 C69.625,91.3594 69.4688,91.6563 69.4688,91.9375 C69.4688,92.2188 69.6094,92.4688 69.8281,92.6406 C69.9844,92.75 70.1719,92.7813 70.5938,92.7813 L70.8438,92.7813 L70.8438,99.2969 L70.5938,99.2969 C70.1875,99.2969 70.0313,99.3125 69.875,99.4219 C69.625,99.5938 69.4688,99.8594 69.4688,100.1563 C69.4688,100.4219 69.6094,100.6719 69.8281,100.8281 C69.9688,100.9531 70.2031,101 70.5938,101 L78.5938,101 L78.5938,98.4219 C78.5938,97.9844 78.5625,97.8438 78.4844,97.6875 C78.3125,97.4375 78.0313,97.2813 77.75,97.2813 C77.4844,97.2813 77.2188,97.3906 77.0469,97.6406 C76.9375,97.7969 76.9063,97.9375 76.9063,98.4219 L76.9063,99.2969 L72.5469,99.2969 L72.5469,96.875 Z " fill="#000000"/><text fill="#000000" font-family="sans-serif" font-size="14" lengthAdjust="spacing" textLength="48" x="94.25" y="100.8467">Dislike</text><line style="stroke:#181818;stroke-width:0.5;" x1="8" x2="196" y1="112" y2="112"/><ellipse cx="18" cy="125.6484" fill="#000000" rx="3" ry="3" style="stroke:#000000;stroke-width:1.0;"/><text fill="#000000" font-family="sans-serif" font-size="14" lengthAdjust="spacing" textLength="83" x="27" y="128.9951">term: Term</text><ellipse cx="18" cy="141.9453" fill="#000000" rx="3" ry="3" style="stroke:#000000;stroke-width:1.0;"/><text fill="#000000" font-family="sans-serif" font-size="14" lengthAdjust="spacing" textLength="102" x="27" y="145.292">termId: String</text><ellipse cx="18" cy="158.2422" fill="#000000" rx="3" ry="3" style="stroke:#000000;stroke-width:1.0;"/><text fill="#000000" font-family="sans-serif" font-size="14" lengthAdjust="spacing" textLength="87" x="27" y="161.5889">author: User</text><ellipse cx="18" cy="174.5391" fill="#000000" rx="3" ry="3" style="stroke:#000000;stroke-width:1.0;"/><text fill="#000000" font-family="sans-serif" font-size="14" lengthAdjust="spacing" textLength="113" x="27" y="177.8857">authorId: String</text><ellipse cx="18" cy="190.8359" fill="#000000" rx="3" ry="3" style="stroke:#000000;stroke-width:1.0;"/><text fill="#000000" font-family="sans-serif" font-size="14" lengthAdjust="spacing" textLength="153" x="27" y="194.1826">createdAt: DateTime</text><text fill="#000000" font-family="sans-serif" font-size="14" lengthAdjust="spacing" textLength="164" x="27" y="210.4795">updatedAt: DateTime?</text><line style="stroke:#181818;stroke-width:0.5;" x1="8" x2="196" y1="217.7813" y2="217.7813"/></g><!--class Flag--><g id="elem_Flag"><rect codeLine="32" fill="#F1F1F1" height="145.7813" id="Flag" rx="2.5" ry="2.5" style="stroke:#181818;stroke-width:0.5;" width="190" x="232" y="80"/><ellipse cx="308.25" cy="96" fill="#ADD1B2" rx="11" ry="11" style="stroke:#181818;stroke-width:1.0;"/><path d="M307.0469,96.875 L308.5,96.875 L308.5,96.9844 C308.5,97.3906 308.5313,97.5469 308.6094,97.7031 C308.7656,97.9531 309.0469,98.1094 309.3438,98.1094 C309.5938,98.1094 309.8594,97.9688 310.0156,97.75 C310.1406,97.5938 310.1719,97.4375 310.1719,96.9844 L310.1719,95.0625 C310.1719,94.9063 310.1719,94.8594 310.1563,94.7031 C310.0938,94.2344 309.7813,93.9219 309.3281,93.9219 C309.0781,93.9219 308.8125,94.0625 308.6406,94.2813 C308.5313,94.4531 308.5,94.6094 308.5,95.0625 L308.5,95.1875 L307.0469,95.1875 L307.0469,92.7813 L311.0313,92.7813 L311.0313,93.6406 C311.0313,94.0469 311.0625,94.2188 311.1406,94.375 C311.3125,94.625 311.5938,94.7813 311.875,94.7813 C312.1406,94.7813 312.4063,94.6406 312.5781,94.4219 C312.6875,94.25 312.7188,94.1094 312.7188,93.6406 L312.7188,91.0938 L305.0938,91.0938 C304.6563,91.0938 304.5313,91.1094 304.375,91.2031 C304.125,91.3594 303.9688,91.6563 303.9688,91.9375 C303.9688,92.2188 304.1094,92.4688 304.3281,92.6406 C304.4844,92.75 304.6719,92.7813 305.0938,92.7813 L305.3438,92.7813 L305.3438,99.2969 L305.0938,99.2969 C304.6875,99.2969 304.5313,99.3125 304.375,99.4219 C304.125,99.5938 303.9688,99.8594 303.9688,100.1563 C303.9688,100.4219 304.1094,100.6719 304.3281,100.8281 C304.4688,100.9531 304.7031,101 305.0938,101 L313.0938,101 L313.0938,98.4219 C313.0938,97.9844 313.0625,97.8438 312.9844,97.6875 C312.8125,97.4375 312.5313,97.2813 312.25,97.2813 C311.9844,97.2813 311.7188,97.3906 311.5469,97.6406 C311.4375,97.7969 311.4063,97.9375 311.4063,98.4219 L311.4063,99.2969 L307.0469,99.2969 L307.0469,96.875 Z " fill="#000000"/><text fill="#000000" font-family="sans-serif" font-size="14" lengthAdjust="spacing" textLength="29" x="328.75" y="100.8467">Flag</text><line style="stroke:#181818;stroke-width:0.5;" x1="233" x2="421" y1="112" y2="112"/><ellipse cx="243" cy="125.6484" fill="#000000" rx="3" ry="3" style="stroke:#000000;stroke-width:1.0;"/><text fill="#000000" font-family="sans-serif" font-size="14" lengthAdjust="spacing" textLength="83" x="252" y="128.9951">term: Term</text><ellipse cx="243" cy="141.9453" fill="#000000" rx="3" ry="3" style="stroke:#000000;stroke-width:1.0;"/><text fill="#000000" font-family="sans-serif" font-size="14" lengthAdjust="spacing" textLength="102" x="252" y="145.292">termId: String</text><ellipse cx="243" cy="158.2422" fill="#000000" rx="3" ry="3" style="stroke:#000000;stroke-width:1.0;"/><text fill="#000000" font-family="sans-serif" font-size="14" lengthAdjust="spacing" textLength="87" x="252" y="161.5889">author: User</text><ellipse cx="243" cy="174.5391" fill="#000000" rx="3" ry="3" style="stroke:#000000;stroke-width:1.0;"/><text fill="#000000" font-family="sans-serif" font-size="14" lengthAdjust="spacing" textLength="113" x="252" y="177.8857">authorId: String</text><ellipse cx="243" cy="190.8359" fill="#000000" rx="3" ry="3" style="stroke:#000000;stroke-width:1.0;"/><text fill="#000000" font-family="sans-serif" font-size="14" lengthAdjust="spacing" textLength="153" x="252" y="194.1826">createdAt: DateTime</text><text fill="#000000" font-family="sans-serif" font-size="14" lengthAdjust="spacing" textLength="164" x="252" y="210.4795">updatedAt: DateTime?</text><line style="stroke:#181818;stroke-width:0.5;" x1="233" x2="421" y1="217.7813" y2="217.7813"/></g><!--class Term--><g id="elem_Term"><rect codeLine="41" fill="#F1F1F1" height="308.75" id="Term" rx="2.5" ry="2.5" style="stroke:#181818;stroke-width:0.5;" width="214" x="270" y="375"/><ellipse cx="353.75" cy="391" fill="#ADD1B2" rx="11" ry="11" style="stroke:#181818;stroke-width:1.0;"/><path d="M352.5469,391.875 L354,391.875 L354,391.9844 C354,392.3906 354.0313,392.5469 354.1094,392.7031 C354.2656,392.9531 354.5469,393.1094 354.8438,393.1094 C355.0938,393.1094 355.3594,392.9688 355.5156,392.75 C355.6406,392.5938 355.6719,392.4375 355.6719,391.9844 L355.6719,390.0625 C355.6719,389.9063 355.6719,389.8594 355.6563,389.7031 C355.5938,389.2344 355.2813,388.9219 354.8281,388.9219 C354.5781,388.9219 354.3125,389.0625 354.1406,389.2813 C354.0313,389.4531 354,389.6094 354,390.0625 L354,390.1875 L352.5469,390.1875 L352.5469,387.7813 L356.5313,387.7813 L356.5313,388.6406 C356.5313,389.0469 356.5625,389.2188 356.6406,389.375 C356.8125,389.625 357.0938,389.7813 357.375,389.7813 C357.6406,389.7813 357.9063,389.6406 358.0781,389.4219 C358.1875,389.25 358.2188,389.1094 358.2188,388.6406 L358.2188,386.0938 L350.5938,386.0938 C350.1563,386.0938 350.0313,386.1094 349.875,386.2031 C349.625,386.3594 349.4688,386.6563 349.4688,386.9375 C349.4688,387.2188 349.6094,387.4688 349.8281,387.6406 C349.9844,387.75 350.1719,387.7813 350.5938,387.7813 L350.8438,387.7813 L350.8438,394.2969 L350.5938,394.2969 C350.1875,394.2969 350.0313,394.3125 349.875,394.4219 C349.625,394.5938 349.4688,394.8594 349.4688,395.1563 C349.4688,395.4219 349.6094,395.6719 349.8281,395.8281 C349.9688,395.9531 350.2031,396 350.5938,396 L358.5938,396 L358.5938,393.4219 C358.5938,392.9844 358.5625,392.8438 358.4844,392.6875 C358.3125,392.4375 358.0313,392.2813 357.75,392.2813 C357.4844,392.2813 357.2188,392.3906 357.0469,392.6406 C356.9375,392.7969 356.9063,392.9375 356.9063,393.4219 L356.9063,394.2969 L352.5469,394.2969 L352.5469,391.875 Z " fill="#000000"/><text fill="#000000" font-family="sans-serif" font-size="14" lengthAdjust="spacing" textLength="38" x="374.25" y="395.8467">Term</text><line style="stroke:#181818;stroke-width:0.5;" x1="271" x2="483" y1="407" y2="407"/><ellipse cx="281" cy="420.6484" fill="#000000" rx="3" ry="3" style="stroke:#000000;stroke-width:1.0;"/><text fill="#000000" font-family="sans-serif" font-size="14" lengthAdjust="spacing" textLength="66" x="290" y="423.9951">id: String</text><ellipse cx="281" cy="436.9453" fill="#000000" rx="3" ry="3" style="stroke:#000000;stroke-width:1.0;"/><text fill="#000000" font-family="sans-serif" font-size="14" lengthAdjust="spacing" textLength="84" x="290" y="440.292">title: String</text><text fill="#000000" font-family="sans-serif" font-size="14" lengthAdjust="spacing" textLength="118" x="290" y="456.5889">content: String?</text><ellipse cx="281" cy="469.5391" fill="#000000" rx="3" ry="3" style="stroke:#000000;stroke-width:1.0;"/><text fill="#000000" font-family="sans-serif" font-size="14" lengthAdjust="spacing" textLength="137" x="290" y="472.8857">published: Boolean</text><text fill="#000000" font-family="sans-serif" font-size="14" lengthAdjust="spacing" textLength="94" x="290" y="489.1826">author: User?</text><text fill="#000000" font-family="sans-serif" font-size="14" lengthAdjust="spacing" textLength="120" x="290" y="505.4795">authorId: String?</text><ellipse cx="281" cy="518.4297" fill="#000000" rx="3" ry="3" style="stroke:#000000;stroke-width:1.0;"/><text fill="#000000" font-family="sans-serif" font-size="14" lengthAdjust="spacing" textLength="82" x="290" y="521.7764">likes: Like[]</text><ellipse cx="281" cy="534.7266" fill="#000000" rx="3" ry="3" style="stroke:#000000;stroke-width:1.0;"/><text fill="#000000" font-family="sans-serif" font-size="14" lengthAdjust="spacing" textLength="120" x="290" y="538.0732">dislikes: Dislike[]</text><ellipse cx="281" cy="551.0234" fill="#000000" rx="3" ry="3" style="stroke:#000000;stroke-width:1.0;"/><text fill="#000000" font-family="sans-serif" font-size="14" lengthAdjust="spacing" textLength="153" x="290" y="554.3701">createdAt: DateTime</text><text fill="#000000" font-family="sans-serif" font-size="14" lengthAdjust="spacing" textLength="164" x="290" y="570.667">updatedAt: DateTime?</text><ellipse cx="281" cy="583.6172" fill="#000000" rx="3" ry="3" style="stroke:#000000;stroke-width:1.0;"/><text fill="#000000" font-family="sans-serif" font-size="14" lengthAdjust="spacing" textLength="102" x="290" y="586.9639">flagged: Flag[]</text><ellipse cx="281" cy="599.9141" fill="#000000" rx="3" ry="3" style="stroke:#000000;stroke-width:1.0;"/><text fill="#000000" font-family="sans-serif" font-size="14" lengthAdjust="spacing" textLength="120" x="290" y="603.2607">cantons: String[]</text><ellipse cx="281" cy="616.2109" fill="#000000" rx="3" ry="3" style="stroke:#000000;stroke-width:1.0;"/><text fill="#000000" font-family="sans-serif" font-size="14" lengthAdjust="spacing" textLength="141" x="290" y="619.5576">language: Language</text><ellipse cx="281" cy="632.5078" fill="#000000" rx="3" ry="3" style="stroke:#000000;stroke-width:1.0;"/><text fill="#000000" font-family="sans-serif" font-size="14" lengthAdjust="spacing" textLength="166" x="290" y="635.8545">synonymOf: Synonym[]</text><ellipse cx="281" cy="648.8047" fill="#000000" rx="3" ry="3" style="stroke:#000000;stroke-width:1.0;"/><text fill="#000000" font-family="sans-serif" font-size="14" lengthAdjust="spacing" textLength="156" x="290" y="652.1514">synonyms: Synonym[]</text><ellipse cx="281" cy="665.1016" fill="#000000" rx="3" ry="3" style="stroke:#000000;stroke-width:1.0;"/><text fill="#000000" font-family="sans-serif" font-size="14" lengthAdjust="spacing" textLength="188" x="290" y="668.4482">examples: TermExample[]</text><line style="stroke:#181818;stroke-width:0.5;" x1="271" x2="483" y1="675.75" y2="675.75"/></g><!--class TermExample--><g id="elem_TermExample"><rect codeLine="60" fill="#F1F1F1" height="194.6719" id="TermExample" rx="2.5" ry="2.5" style="stroke:#181818;stroke-width:0.5;" width="190" x="282" y="760"/><ellipse cx="323.1" cy="776" fill="#ADD1B2" rx="11" ry="11" style="stroke:#181818;stroke-width:1.0;"/><path d="M321.8969,776.875 L323.35,776.875 L323.35,776.9844 C323.35,777.3906 323.3813,777.5469 323.4594,777.7031 C323.6156,777.9531 323.8969,778.1094 324.1938,778.1094 C324.4438,778.1094 324.7094,777.9688 324.8656,777.75 C324.9906,777.5938 325.0219,777.4375 325.0219,776.9844 L325.0219,775.0625 C325.0219,774.9063 325.0219,774.8594 325.0063,774.7031 C324.9438,774.2344 324.6313,773.9219 324.1781,773.9219 C323.9281,773.9219 323.6625,774.0625 323.4906,774.2813 C323.3813,774.4531 323.35,774.6094 323.35,775.0625 L323.35,775.1875 L321.8969,775.1875 L321.8969,772.7813 L325.8813,772.7813 L325.8813,773.6406 C325.8813,774.0469 325.9125,774.2188 325.9906,774.375 C326.1625,774.625 326.4438,774.7813 326.725,774.7813 C326.9906,774.7813 327.2563,774.6406 327.4281,774.4219 C327.5375,774.25 327.5688,774.1094 327.5688,773.6406 L327.5688,771.0938 L319.9438,771.0938 C319.5063,771.0938 319.3813,771.1094 319.225,771.2031 C318.975,771.3594 318.8188,771.6563 318.8188,771.9375 C318.8188,772.2188 318.9594,772.4688 319.1781,772.6406 C319.3344,772.75 319.5219,772.7813 319.9438,772.7813 L320.1938,772.7813 L320.1938,779.2969 L319.9438,779.2969 C319.5375,779.2969 319.3813,779.3125 319.225,779.4219 C318.975,779.5938 318.8188,779.8594 318.8188,780.1563 C318.8188,780.4219 318.9594,780.6719 319.1781,780.8281 C319.3188,780.9531 319.5531,781 319.9438,781 L327.9438,781 L327.9438,778.4219 C327.9438,777.9844 327.9125,777.8438 327.8344,777.6875 C327.6625,777.4375 327.3813,777.2813 327.1,777.2813 C326.8344,777.2813 326.5688,777.3906 326.3969,777.6406 C326.2875,777.7969 326.2563,777.9375 326.2563,778.4219 L326.2563,779.2969 L321.8969,779.2969 L321.8969,776.875 Z " fill="#000000"/><text fill="#000000" font-family="sans-serif" font-size="14" lengthAdjust="spacing" textLength="100" x="342.9" y="780.8467">TermExample</text><line style="stroke:#181818;stroke-width:0.5;" x1="283" x2="471" y1="792" y2="792"/><ellipse cx="293" cy="805.6484" fill="#000000" rx="3" ry="3" style="stroke:#000000;stroke-width:1.0;"/><text fill="#000000" font-family="sans-serif" font-size="14" lengthAdjust="spacing" textLength="66" x="302" y="808.9951">id: String</text><ellipse cx="293" cy="821.9453" fill="#000000" rx="3" ry="3" style="stroke:#000000;stroke-width:1.0;"/><text fill="#000000" font-family="sans-serif" font-size="14" lengthAdjust="spacing" textLength="153" x="302" y="825.292">createdAt: DateTime</text><text fill="#000000" font-family="sans-serif" font-size="14" lengthAdjust="spacing" textLength="164" x="302" y="841.5889">updatedAt: DateTime?</text><ellipse cx="293" cy="854.5391" fill="#000000" rx="3" ry="3" style="stroke:#000000;stroke-width:1.0;"/><text fill="#000000" font-family="sans-serif" font-size="14" lengthAdjust="spacing" textLength="83" x="302" y="857.8857">term: Term</text><ellipse cx="293" cy="870.8359" fill="#000000" rx="3" ry="3" style="stroke:#000000;stroke-width:1.0;"/><text fill="#000000" font-family="sans-serif" font-size="14" lengthAdjust="spacing" textLength="102" x="302" y="874.1826">termId: String</text><ellipse cx="293" cy="887.1328" fill="#000000" rx="3" ry="3" style="stroke:#000000;stroke-width:1.0;"/><text fill="#000000" font-family="sans-serif" font-size="14" lengthAdjust="spacing" textLength="111" x="302" y="890.4795">content: String</text><text fill="#000000" font-family="sans-serif" font-size="14" lengthAdjust="spacing" textLength="94" x="302" y="906.7764">author: User?</text><text fill="#000000" font-family="sans-serif" font-size="14" lengthAdjust="spacing" textLength="120" x="302" y="923.0732">authorId: String?</text><ellipse cx="293" cy="936.0234" fill="#000000" rx="3" ry="3" style="stroke:#000000;stroke-width:1.0;"/><text fill="#000000" font-family="sans-serif" font-size="14" lengthAdjust="spacing" textLength="120" x="302" y="939.3701">cantons: String[]</text><line style="stroke:#181818;stroke-width:0.5;" x1="283" x2="471" y1="946.6719" y2="946.6719"/></g><!--class Synonym--><g id="elem_Synonym"><rect codeLine="72" fill="#F1F1F1" height="113.1875" id="Synonym" rx="2.5" ry="2.5" style="stroke:#181818;stroke-width:0.5;" width="173" x="507.5" y="801"/><ellipse cx="556.75" cy="817" fill="#ADD1B2" rx="11" ry="11" style="stroke:#181818;stroke-width:1.0;"/><path d="M555.5469,817.875 L557,817.875 L557,817.9844 C557,818.3906 557.0313,818.5469 557.1094,818.7031 C557.2656,818.9531 557.5469,819.1094 557.8438,819.1094 C558.0938,819.1094 558.3594,818.9688 558.5156,818.75 C558.6406,818.5938 558.6719,818.4375 558.6719,817.9844 L558.6719,816.0625 C558.6719,815.9063 558.6719,815.8594 558.6563,815.7031 C558.5938,815.2344 558.2813,814.9219 557.8281,814.9219 C557.5781,814.9219 557.3125,815.0625 557.1406,815.2813 C557.0313,815.4531 557,815.6094 557,816.0625 L557,816.1875 L555.5469,816.1875 L555.5469,813.7813 L559.5313,813.7813 L559.5313,814.6406 C559.5313,815.0469 559.5625,815.2188 559.6406,815.375 C559.8125,815.625 560.0938,815.7813 560.375,815.7813 C560.6406,815.7813 560.9063,815.6406 561.0781,815.4219 C561.1875,815.25 561.2188,815.1094 561.2188,814.6406 L561.2188,812.0938 L553.5938,812.0938 C553.1563,812.0938 553.0313,812.1094 552.875,812.2031 C552.625,812.3594 552.4688,812.6563 552.4688,812.9375 C552.4688,813.2188 552.6094,813.4688 552.8281,813.6406 C552.9844,813.75 553.1719,813.7813 553.5938,813.7813 L553.8438,813.7813 L553.8438,820.2969 L553.5938,820.2969 C553.1875,820.2969 553.0313,820.3125 552.875,820.4219 C552.625,820.5938 552.4688,820.8594 552.4688,821.1563 C552.4688,821.4219 552.6094,821.6719 552.8281,821.8281 C552.9688,821.9531 553.2031,822 553.5938,822 L561.5938,822 L561.5938,819.4219 C561.5938,818.9844 561.5625,818.8438 561.4844,818.6875 C561.3125,818.4375 561.0313,818.2813 560.75,818.2813 C560.4844,818.2813 560.2188,818.3906 560.0469,818.6406 C559.9375,818.7969 559.9063,818.9375 559.9063,819.4219 L559.9063,820.2969 L555.5469,820.2969 L555.5469,817.875 Z " fill="#000000"/><text fill="#000000" font-family="sans-serif" font-size="14" lengthAdjust="spacing" textLength="66" x="577.25" y="821.8467">Synonym</text><line style="stroke:#181818;stroke-width:0.5;" x1="508.5" x2="679.5" y1="833" y2="833"/><ellipse cx="518.5" cy="846.6484" fill="#000000" rx="3" ry="3" style="stroke:#000000;stroke-width:1.0;"/><text fill="#000000" font-family="sans-serif" font-size="14" lengthAdjust="spacing" textLength="128" x="527.5" y="849.9951">synonymOf: Term</text><ellipse cx="518.5" cy="862.9453" fill="#000000" rx="3" ry="3" style="stroke:#000000;stroke-width:1.0;"/><text fill="#000000" font-family="sans-serif" font-size="14" lengthAdjust="spacing" textLength="147" x="527.5" y="866.292">synonymOfId: String</text><ellipse cx="518.5" cy="879.2422" fill="#000000" rx="3" ry="3" style="stroke:#000000;stroke-width:1.0;"/><text fill="#000000" font-family="sans-serif" font-size="14" lengthAdjust="spacing" textLength="111" x="527.5" y="882.5889">synonym: Term</text><ellipse cx="518.5" cy="895.5391" fill="#000000" rx="3" ry="3" style="stroke:#000000;stroke-width:1.0;"/><text fill="#000000" font-family="sans-serif" font-size="14" lengthAdjust="spacing" textLength="130" x="527.5" y="898.8857">synonymId: String</text><line style="stroke:#181818;stroke-width:0.5;" x1="508.5" x2="679.5" y1="906.1875" y2="906.1875"/></g><!--class Account--><g id="elem_Account"><rect codeLine="79" fill="#F1F1F1" height="292.4531" id="Account" rx="2.5" ry="2.5" style="stroke:#181818;stroke-width:0.5;" width="230" x="682" y="7"/><ellipse cx="763.25" cy="23" fill="#ADD1B2" rx="11" ry="11" style="stroke:#181818;stroke-width:1.0;"/><path d="M762.0469,23.875 L763.5,23.875 L763.5,23.9844 C763.5,24.3906 763.5313,24.5469 763.6094,24.7031 C763.7656,24.9531 764.0469,25.1094 764.3438,25.1094 C764.5938,25.1094 764.8594,24.9688 765.0156,24.75 C765.1406,24.5938 765.1719,24.4375 765.1719,23.9844 L765.1719,22.0625 C765.1719,21.9063 765.1719,21.8594 765.1563,21.7031 C765.0938,21.2344 764.7813,20.9219 764.3281,20.9219 C764.0781,20.9219 763.8125,21.0625 763.6406,21.2813 C763.5313,21.4531 763.5,21.6094 763.5,22.0625 L763.5,22.1875 L762.0469,22.1875 L762.0469,19.7813 L766.0313,19.7813 L766.0313,20.6406 C766.0313,21.0469 766.0625,21.2188 766.1406,21.375 C766.3125,21.625 766.5938,21.7813 766.875,21.7813 C767.1406,21.7813 767.4063,21.6406 767.5781,21.4219 C767.6875,21.25 767.7188,21.1094 767.7188,20.6406 L767.7188,18.0938 L760.0938,18.0938 C759.6563,18.0938 759.5313,18.1094 759.375,18.2031 C759.125,18.3594 758.9688,18.6563 758.9688,18.9375 C758.9688,19.2188 759.1094,19.4688 759.3281,19.6406 C759.4844,19.75 759.6719,19.7813 760.0938,19.7813 L760.3438,19.7813 L760.3438,26.2969 L760.0938,26.2969 C759.6875,26.2969 759.5313,26.3125 759.375,26.4219 C759.125,26.5938 758.9688,26.8594 758.9688,27.1563 C758.9688,27.4219 759.1094,27.6719 759.3281,27.8281 C759.4688,27.9531 759.7031,28 760.0938,28 L768.0938,28 L768.0938,25.4219 C768.0938,24.9844 768.0625,24.8438 767.9844,24.6875 C767.8125,24.4375 767.5313,24.2813 767.25,24.2813 C766.9844,24.2813 766.7188,24.3906 766.5469,24.6406 C766.4375,24.7969 766.4063,24.9375 766.4063,25.4219 L766.4063,26.2969 L762.0469,26.2969 L762.0469,23.875 Z " fill="#000000"/><text fill="#000000" font-family="sans-serif" font-size="14" lengthAdjust="spacing" textLength="59" x="783.75" y="27.8467">Account</text><line style="stroke:#181818;stroke-width:0.5;" x1="683" x2="911" y1="39" y2="39"/><ellipse cx="693" cy="52.6484" fill="#000000" rx="3" ry="3" style="stroke:#000000;stroke-width:1.0;"/><text fill="#000000" font-family="sans-serif" font-size="14" lengthAdjust="spacing" textLength="66" x="702" y="55.9951">id: String</text><ellipse cx="693" cy="68.9453" fill="#000000" rx="3" ry="3" style="stroke:#000000;stroke-width:1.0;"/><text fill="#000000" font-family="sans-serif" font-size="14" lengthAdjust="spacing" textLength="96" x="702" y="72.292">userId: String</text><ellipse cx="693" cy="85.2422" fill="#000000" rx="3" ry="3" style="stroke:#000000;stroke-width:1.0;"/><text fill="#000000" font-family="sans-serif" font-size="14" lengthAdjust="spacing" textLength="87" x="702" y="88.5889">type: String</text><ellipse cx="693" cy="101.5391" fill="#000000" rx="3" ry="3" style="stroke:#000000;stroke-width:1.0;"/><text fill="#000000" font-family="sans-serif" font-size="14" lengthAdjust="spacing" textLength="114" x="702" y="104.8857">provider: String</text><ellipse cx="693" cy="117.8359" fill="#000000" rx="3" ry="3" style="stroke:#000000;stroke-width:1.0;"/><text fill="#000000" font-family="sans-serif" font-size="14" lengthAdjust="spacing" textLength="186" x="702" y="121.1826">providerAccountId: String</text><text fill="#000000" font-family="sans-serif" font-size="14" lengthAdjust="spacing" textLength="162" x="702" y="137.4795">refresh_token: String?</text><text fill="#000000" font-family="sans-serif" font-size="14" lengthAdjust="spacing" textLength="157" x="702" y="153.7764">access_token: String?</text><text fill="#000000" font-family="sans-serif" font-size="14" lengthAdjust="spacing" textLength="111" x="702" y="170.0732">expires_at: Int?</text><text fill="#000000" font-family="sans-serif" font-size="14" lengthAdjust="spacing" textLength="144" x="702" y="186.3701">token_type: String?</text><text fill="#000000" font-family="sans-serif" font-size="14" lengthAdjust="spacing" textLength="103" x="702" y="202.667">scope: String?</text><text fill="#000000" font-family="sans-serif" font-size="14" lengthAdjust="spacing" textLength="123" x="702" y="218.9639">id_token: String?</text><text fill="#000000" font-family="sans-serif" font-size="14" lengthAdjust="spacing" textLength="157" x="702" y="235.2607">session_state: String?</text><text fill="#000000" font-family="sans-serif" font-size="14" lengthAdjust="spacing" textLength="204" x="702" y="251.5576">oauth_token_secret: String?</text><text fill="#000000" font-family="sans-serif" font-size="14" lengthAdjust="spacing" textLength="151" x="702" y="267.8545">oauth_token: String?</text><ellipse cx="693" cy="280.8047" fill="#000000" rx="3" ry="3" style="stroke:#000000;stroke-width:1.0;"/><text fill="#000000" font-family="sans-serif" font-size="14" lengthAdjust="spacing" textLength="70" x="702" y="284.1514">user: User</text><line style="stroke:#181818;stroke-width:0.5;" x1="683" x2="911" y1="291.4531" y2="291.4531"/></g><!--class Session--><g id="elem_Session"><rect codeLine="97" fill="#F1F1F1" height="129.4844" id="Session" rx="2.5" ry="2.5" style="stroke:#181818;stroke-width:0.5;" width="176" x="947" y="88.5"/><ellipse cx="1003.75" cy="104.5" fill="#ADD1B2" rx="11" ry="11" style="stroke:#181818;stroke-width:1.0;"/><path d="M1002.5469,105.375 L1004,105.375 L1004,105.4844 C1004,105.8906 1004.0313,106.0469 1004.1094,106.2031 C1004.2656,106.4531 1004.5469,106.6094 1004.8438,106.6094 C1005.0938,106.6094 1005.3594,106.4688 1005.5156,106.25 C1005.6406,106.0938 1005.6719,105.9375 1005.6719,105.4844 L1005.6719,103.5625 C1005.6719,103.4063 1005.6719,103.3594 1005.6563,103.2031 C1005.5938,102.7344 1005.2813,102.4219 1004.8281,102.4219 C1004.5781,102.4219 1004.3125,102.5625 1004.1406,102.7813 C1004.0313,102.9531 1004,103.1094 1004,103.5625 L1004,103.6875 L1002.5469,103.6875 L1002.5469,101.2813 L1006.5313,101.2813 L1006.5313,102.1406 C1006.5313,102.5469 1006.5625,102.7188 1006.6406,102.875 C1006.8125,103.125 1007.0938,103.2813 1007.375,103.2813 C1007.6406,103.2813 1007.9063,103.1406 1008.0781,102.9219 C1008.1875,102.75 1008.2188,102.6094 1008.2188,102.1406 L1008.2188,99.5938 L1000.5938,99.5938 C1000.1563,99.5938 1000.0313,99.6094 999.875,99.7031 C999.625,99.8594 999.4688,100.1563 999.4688,100.4375 C999.4688,100.7188 999.6094,100.9688 999.8281,101.1406 C999.9844,101.25 1000.1719,101.2813 1000.5938,101.2813 L1000.8438,101.2813 L1000.8438,107.7969 L1000.5938,107.7969 C1000.1875,107.7969 1000.0313,107.8125 999.875,107.9219 C999.625,108.0938 999.4688,108.3594 999.4688,108.6563 C999.4688,108.9219 999.6094,109.1719 999.8281,109.3281 C999.9688,109.4531 1000.2031,109.5 1000.5938,109.5 L1008.5938,109.5 L1008.5938,106.9219 C1008.5938,106.4844 1008.5625,106.3438 1008.4844,106.1875 C1008.3125,105.9375 1008.0313,105.7813 1007.75,105.7813 C1007.4844,105.7813 1007.2188,105.8906 1007.0469,106.1406 C1006.9375,106.2969 1006.9063,106.4375 1006.9063,106.9219 L1006.9063,107.7969 L1002.5469,107.7969 L1002.5469,105.375 Z " fill="#000000"/><text fill="#000000" font-family="sans-serif" font-size="14" lengthAdjust="spacing" textLength="54" x="1024.25" y="109.3467">Session</text><line style="stroke:#181818;stroke-width:0.5;" x1="948" x2="1122" y1="120.5" y2="120.5"/><ellipse cx="958" cy="134.1484" fill="#000000" rx="3" ry="3" style="stroke:#000000;stroke-width:1.0;"/><text fill="#000000" font-family="sans-serif" font-size="14" lengthAdjust="spacing" textLength="66" x="967" y="137.4951">id: String</text><ellipse cx="958" cy="150.4453" fill="#000000" rx="3" ry="3" style="stroke:#000000;stroke-width:1.0;"/><text fill="#000000" font-family="sans-serif" font-size="14" lengthAdjust="spacing" textLength="150" x="967" y="153.792">sessionToken: String</text><ellipse cx="958" cy="166.7422" fill="#000000" rx="3" ry="3" style="stroke:#000000;stroke-width:1.0;"/><text fill="#000000" font-family="sans-serif" font-size="14" lengthAdjust="spacing" textLength="96" x="967" y="170.0889">userId: String</text><ellipse cx="958" cy="183.0391" fill="#000000" rx="3" ry="3" style="stroke:#000000;stroke-width:1.0;"/><text fill="#000000" font-family="sans-serif" font-size="14" lengthAdjust="spacing" textLength="133" x="967" y="186.3857">expires: DateTime</text><ellipse cx="958" cy="199.3359" fill="#000000" rx="3" ry="3" style="stroke:#000000;stroke-width:1.0;"/><text fill="#000000" font-family="sans-serif" font-size="14" lengthAdjust="spacing" textLength="70" x="967" y="202.6826">user: User</text><line style="stroke:#181818;stroke-width:0.5;" x1="948" x2="1122" y1="209.9844" y2="209.9844"/></g><!--class User--><g id="elem_User"><rect codeLine="105" fill="#F1F1F1" height="341.3438" id="User" rx="2.5" ry="2.5" style="stroke:#181818;stroke-width:0.5;" width="214" x="690" y="359"/><ellipse cx="777.25" cy="375" fill="#ADD1B2" rx="11" ry="11" style="stroke:#181818;stroke-width:1.0;"/><path d="M776.0469,375.875 L777.5,375.875 L777.5,375.9844 C777.5,376.3906 777.5313,376.5469 777.6094,376.7031 C777.7656,376.9531 778.0469,377.1094 778.3438,377.1094 C778.5938,377.1094 778.8594,376.9688 779.0156,376.75 C779.1406,376.5938 779.1719,376.4375 779.1719,375.9844 L779.1719,374.0625 C779.1719,373.9063 779.1719,373.8594 779.1563,373.7031 C779.0938,373.2344 778.7813,372.9219 778.3281,372.9219 C778.0781,372.9219 777.8125,373.0625 777.6406,373.2813 C777.5313,373.4531 777.5,373.6094 777.5,374.0625 L777.5,374.1875 L776.0469,374.1875 L776.0469,371.7813 L780.0313,371.7813 L780.0313,372.6406 C780.0313,373.0469 780.0625,373.2188 780.1406,373.375 C780.3125,373.625 780.5938,373.7813 780.875,373.7813 C781.1406,373.7813 781.4063,373.6406 781.5781,373.4219 C781.6875,373.25 781.7188,373.1094 781.7188,372.6406 L781.7188,370.0938 L774.0938,370.0938 C773.6563,370.0938 773.5313,370.1094 773.375,370.2031 C773.125,370.3594 772.9688,370.6563 772.9688,370.9375 C772.9688,371.2188 773.1094,371.4688 773.3281,371.6406 C773.4844,371.75 773.6719,371.7813 774.0938,371.7813 L774.3438,371.7813 L774.3438,378.2969 L774.0938,378.2969 C773.6875,378.2969 773.5313,378.3125 773.375,378.4219 C773.125,378.5938 772.9688,378.8594 772.9688,379.1563 C772.9688,379.4219 773.1094,379.6719 773.3281,379.8281 C773.4688,379.9531 773.7031,380 774.0938,380 L782.0938,380 L782.0938,377.4219 C782.0938,376.9844 782.0625,376.8438 781.9844,376.6875 C781.8125,376.4375 781.5313,376.2813 781.25,376.2813 C780.9844,376.2813 780.7188,376.3906 780.5469,376.6406 C780.4375,376.7969 780.4063,376.9375 780.4063,377.4219 L780.4063,378.2969 L776.0469,378.2969 L776.0469,375.875 Z " fill="#000000"/><text fill="#000000" font-family="sans-serif" font-size="14" lengthAdjust="spacing" textLength="31" x="797.75" y="379.8467">User</text><line style="stroke:#181818;stroke-width:0.5;" x1="691" x2="903" y1="391" y2="391"/><ellipse cx="701" cy="404.6484" fill="#000000" rx="3" ry="3" style="stroke:#000000;stroke-width:1.0;"/><text fill="#000000" font-family="sans-serif" font-size="14" lengthAdjust="spacing" textLength="66" x="710" y="407.9951">id: String</text><ellipse cx="701" cy="420.9453" fill="#000000" rx="3" ry="3" style="stroke:#000000;stroke-width:1.0;"/><text fill="#000000" font-family="sans-serif" font-size="14" lengthAdjust="spacing" textLength="93" x="710" y="424.292">name: String</text><ellipse cx="701" cy="437.2422" fill="#000000" rx="3" ry="3" style="stroke:#000000;stroke-width:1.0;"/><text fill="#000000" font-family="sans-serif" font-size="14" lengthAdjust="spacing" textLength="92" x="710" y="440.5889">email: String</text><ellipse cx="701" cy="453.5391" fill="#000000" rx="3" ry="3" style="stroke:#000000;stroke-width:1.0;"/><text fill="#000000" font-family="sans-serif" font-size="14" lengthAdjust="spacing" textLength="153" x="710" y="456.8857">createdAt: DateTime</text><text fill="#000000" font-family="sans-serif" font-size="14" lengthAdjust="spacing" textLength="183" x="710" y="473.1826">emailVerified: DateTime?</text><text fill="#000000" font-family="sans-serif" font-size="14" lengthAdjust="spacing" textLength="127" x="710" y="489.4795">password: String?</text><text fill="#000000" font-family="sans-serif" font-size="14" lengthAdjust="spacing" textLength="104" x="710" y="505.7764">image: String?</text><text fill="#000000" font-family="sans-serif" font-size="14" lengthAdjust="spacing" textLength="83" x="710" y="522.0732">bio: String?</text><ellipse cx="701" cy="535.0234" fill="#000000" rx="3" ry="3" style="stroke:#000000;stroke-width:1.0;"/><text fill="#000000" font-family="sans-serif" font-size="14" lengthAdjust="spacing" textLength="100" x="710" y="538.3701">terms: Term[]</text><ellipse cx="701" cy="551.3203" fill="#000000" rx="3" ry="3" style="stroke:#000000;stroke-width:1.0;"/><text fill="#000000" font-family="sans-serif" font-size="14" lengthAdjust="spacing" textLength="142" x="710" y="554.667">accounts: Account[]</text><ellipse cx="701" cy="567.6172" fill="#000000" rx="3" ry="3" style="stroke:#000000;stroke-width:1.0;"/><text fill="#000000" font-family="sans-serif" font-size="14" lengthAdjust="spacing" textLength="132" x="710" y="570.9639">sessions: Session[]</text><ellipse cx="701" cy="583.9141" fill="#000000" rx="3" ry="3" style="stroke:#000000;stroke-width:1.0;"/><text fill="#000000" font-family="sans-serif" font-size="14" lengthAdjust="spacing" textLength="69" x="710" y="587.2607">role: Role</text><ellipse cx="701" cy="600.2109" fill="#000000" rx="3" ry="3" style="stroke:#000000;stroke-width:1.0;"/><text fill="#000000" font-family="sans-serif" font-size="14" lengthAdjust="spacing" textLength="82" x="710" y="603.5576">likes: Like[]</text><ellipse cx="701" cy="616.5078" fill="#000000" rx="3" ry="3" style="stroke:#000000;stroke-width:1.0;"/><text fill="#000000" font-family="sans-serif" font-size="14" lengthAdjust="spacing" textLength="120" x="710" y="619.8545">dislikes: Dislike[]</text><text fill="#000000" font-family="sans-serif" font-size="14" lengthAdjust="spacing" textLength="115" x="710" y="636.1514">country: String?</text><text fill="#000000" font-family="sans-serif" font-size="14" lengthAdjust="spacing" textLength="110" x="710" y="652.4482">canton: String?</text><ellipse cx="701" cy="665.3984" fill="#000000" rx="3" ry="3" style="stroke:#000000;stroke-width:1.0;"/><text fill="#000000" font-family="sans-serif" font-size="14" lengthAdjust="spacing" textLength="82" x="710" y="668.7451">flags: Flag[]</text><ellipse cx="701" cy="681.6953" fill="#000000" rx="3" ry="3" style="stroke:#000000;stroke-width:1.0;"/><text fill="#000000" font-family="sans-serif" font-size="14" lengthAdjust="spacing" textLength="188" x="710" y="685.042">examples: TermExample[]</text><line style="stroke:#181818;stroke-width:0.5;" x1="691" x2="903" y1="692.3438" y2="692.3438"/></g><!--class VerificationToken--><g id="elem_VerificationToken"><rect codeLine="126" fill="#F1F1F1" height="113.1875" id="VerificationToken" rx="2.5" ry="2.5" style="stroke:#181818;stroke-width:0.5;" width="161" x="1158.5" y="96.5"/><ellipse cx="1173.5" cy="112.5" fill="#ADD1B2" rx="11" ry="11" style="stroke:#181818;stroke-width:1.0;"/><path d="M1172.2969,113.375 L1173.75,113.375 L1173.75,113.4844 C1173.75,113.8906 1173.7813,114.0469 1173.8594,114.2031 C1174.0156,114.4531 1174.2969,114.6094 1174.5938,114.6094 C1174.8438,114.6094 1175.1094,114.4688 1175.2656,114.25 C1175.3906,114.0938 1175.4219,113.9375 1175.4219,113.4844 L1175.4219,111.5625 C1175.4219,111.4063 1175.4219,111.3594 1175.4063,111.2031 C1175.3438,110.7344 1175.0313,110.4219 1174.5781,110.4219 C1174.3281,110.4219 1174.0625,110.5625 1173.8906,110.7813 C1173.7813,110.9531 1173.75,111.1094 1173.75,111.5625 L1173.75,111.6875 L1172.2969,111.6875 L1172.2969,109.2813 L1176.2813,109.2813 L1176.2813,110.1406 C1176.2813,110.5469 1176.3125,110.7188 1176.3906,110.875 C1176.5625,111.125 1176.8438,111.2813 1177.125,111.2813 C1177.3906,111.2813 1177.6563,111.1406 1177.8281,110.9219 C1177.9375,110.75 1177.9688,110.6094 1177.9688,110.1406 L1177.9688,107.5938 L1170.3438,107.5938 C1169.9063,107.5938 1169.7813,107.6094 1169.625,107.7031 C1169.375,107.8594 1169.2188,108.1563 1169.2188,108.4375 C1169.2188,108.7188 1169.3594,108.9688 1169.5781,109.1406 C1169.7344,109.25 1169.9219,109.2813 1170.3438,109.2813 L1170.5938,109.2813 L1170.5938,115.7969 L1170.3438,115.7969 C1169.9375,115.7969 1169.7813,115.8125 1169.625,115.9219 C1169.375,116.0938 1169.2188,116.3594 1169.2188,116.6563 C1169.2188,116.9219 1169.3594,117.1719 1169.5781,117.3281 C1169.7188,117.4531 1169.9531,117.5 1170.3438,117.5 L1178.3438,117.5 L1178.3438,114.9219 C1178.3438,114.4844 1178.3125,114.3438 1178.2344,114.1875 C1178.0625,113.9375 1177.7813,113.7813 1177.5,113.7813 C1177.2344,113.7813 1176.9688,113.8906 1176.7969,114.1406 C1176.6875,114.2969 1176.6563,114.4375 1176.6563,114.9219 L1176.6563,115.7969 L1172.2969,115.7969 L1172.2969,113.375 Z " fill="#000000"/><text fill="#000000" font-family="sans-serif" font-size="14" lengthAdjust="spacing" textLength="129" x="1187.5" y="117.3467">VerificationToken</text><line style="stroke:#181818;stroke-width:0.5;" x1="1159.5" x2="1318.5" y1="128.5" y2="128.5"/><ellipse cx="1169.5" cy="142.1484" fill="#000000" rx="3" ry="3" style="stroke:#000000;stroke-width:1.0;"/><text fill="#000000" font-family="sans-serif" font-size="14" lengthAdjust="spacing" textLength="42" x="1178.5" y="145.4951">id: Int</text><ellipse cx="1169.5" cy="158.4453" fill="#000000" rx="3" ry="3" style="stroke:#000000;stroke-width:1.0;"/><text fill="#000000" font-family="sans-serif" font-size="14" lengthAdjust="spacing" textLength="120" x="1178.5" y="161.792">identifier: String</text><ellipse cx="1169.5" cy="174.7422" fill="#000000" rx="3" ry="3" style="stroke:#000000;stroke-width:1.0;"/><text fill="#000000" font-family="sans-serif" font-size="14" lengthAdjust="spacing" textLength="96" x="1178.5" y="178.0889">token: String</text><ellipse cx="1169.5" cy="191.0391" fill="#000000" rx="3" ry="3" style="stroke:#000000;stroke-width:1.0;"/><text fill="#000000" font-family="sans-serif" font-size="14" lengthAdjust="spacing" textLength="133" x="1178.5" y="194.3857">expires: DateTime</text><line style="stroke:#181818;stroke-width:0.5;" x1="1159.5" x2="1318.5" y1="201.6875" y2="201.6875"/></g><!--link Like to Term--><g id="link_Like_Term"><path codeLine="133" d="M466,234.039 C466,276.381 466,315.356 466,366.863 " fill="none" id="Like-Term" style="stroke:#181818;stroke-width:1.0;stroke-dasharray:7.0,7.0;"/><line style="stroke:#181818;stroke-width:1.0;" x1="466" x2="460" y1="234.039" y2="226.039"/><line style="stroke:#181818;stroke-width:1.0;" x1="466" x2="472" y1="234.039" y2="226.039"/><line style="stroke:#181818;stroke-width:1.0;" x1="466" x2="466" y1="234.039" y2="226.039"/><line style="stroke:#181818;stroke-width:1.0;" x1="462" x2="470" y1="236.039" y2="236.039"/><line style="stroke:#181818;stroke-width:1.0;" x1="470" x2="462" y1="370.863" y2="370.863"/><line style="stroke:#181818;stroke-width:1.0;" x1="470" x2="462" y1="367.863" y2="367.863"/><line style="stroke:#181818;stroke-width:1.0;" x1="466" x2="466" y1="366.863" y2="374.863"/></g><!--link Like to Term--><g id="link_Like_Term"><path codeLine="136" d="M475,234.039 C475,276.381 475,315.356 475,366.863 " fill="none" id="Like-Term-1" style="stroke:#181818;stroke-width:1.0;stroke-dasharray:7.0,7.0;"/><line style="stroke:#181818;stroke-width:1.0;" x1="475" x2="469" y1="234.039" y2="226.039"/><line style="stroke:#181818;stroke-width:1.0;" x1="475" x2="481" y1="234.039" y2="226.039"/><line style="stroke:#181818;stroke-width:1.0;" x1="475" x2="475" y1="234.039" y2="226.039"/><line style="stroke:#181818;stroke-width:1.0;" x1="471" x2="479" y1="236.039" y2="236.039"/><line style="stroke:#181818;stroke-width:1.0;" x1="479" x2="471" y1="370.863" y2="370.863"/><line style="stroke:#181818;stroke-width:1.0;" x1="479" x2="471" y1="367.863" y2="367.863"/><line style="stroke:#181818;stroke-width:1.0;" x1="475" x2="475" y1="366.863" y2="374.863"/></g><!--link Dislike to Term--><g id="link_Dislike_Term"><path codeLine="134" d="M172,234.136 C172,343.77 172,530 172,530 C172,530 212.291,530 261.997,530 " fill="none" id="Dislike-Term" style="stroke:#181818;stroke-width:1.0;stroke-dasharray:7.0,7.0;"/><line style="stroke:#181818;stroke-width:1.0;" x1="172" x2="166" y1="234.136" y2="226.136"/><line style="stroke:#181818;stroke-width:1.0;" x1="172" x2="178" y1="234.136" y2="226.136"/><line style="stroke:#181818;stroke-width:1.0;" x1="172" x2="172" y1="234.136" y2="226.136"/><line style="stroke:#181818;stroke-width:1.0;" x1="168" x2="176" y1="236.136" y2="236.136"/><line style="stroke:#181818;stroke-width:1.0;" x1="265.997" x2="265.997" y1="526" y2="534"/><line style="stroke:#181818;stroke-width:1.0;" x1="262.997" x2="262.997" y1="526" y2="534"/><line style="stroke:#181818;stroke-width:1.0;" x1="261.997" x2="269.997" y1="530" y2="530"/></g><!--link Flag to Term--><g id="link_Flag_Term"><path codeLine="135" d="M346,234.039 C346,276.381 346,315.356 346,366.863 " fill="none" id="Flag-Term" style="stroke:#181818;stroke-width:1.0;stroke-dasharray:7.0,7.0;"/><line style="stroke:#181818;stroke-width:1.0;" x1="346" x2="340" y1="234.039" y2="226.039"/><line style="stroke:#181818;stroke-width:1.0;" x1="346" x2="352" y1="234.039" y2="226.039"/><line style="stroke:#181818;stroke-width:1.0;" x1="346" x2="346" y1="234.039" y2="226.039"/><line style="stroke:#181818;stroke-width:1.0;" x1="342" x2="350" y1="236.039" y2="236.039"/><line style="stroke:#181818;stroke-width:1.0;" x1="350" x2="342" y1="370.863" y2="370.863"/><line style="stroke:#181818;stroke-width:1.0;" x1="350" x2="342" y1="367.863" y2="367.863"/><line style="stroke:#181818;stroke-width:1.0;" x1="346" x2="346" y1="366.863" y2="374.863"/></g><!--link Term to TermExample--><g id="link_Term_TermExample"><path codeLine="137" d="M377,692.375 C377,718.085 377,728.095 377,751.867 " fill="none" id="Term-TermExample" style="stroke:#181818;stroke-width:1.0;stroke-dasharray:7.0,7.0;"/><line style="stroke:#181818;stroke-width:1.0;" x1="373" x2="381" y1="688.375" y2="688.375"/><line style="stroke:#181818;stroke-width:1.0;" x1="373" x2="381" y1="691.375" y2="691.375"/><line style="stroke:#181818;stroke-width:1.0;" x1="377" x2="377" y1="692.375" y2="684.375"/><line style="stroke:#181818;stroke-width:1.0;" x1="377" x2="383" y1="751.867" y2="759.867"/><line style="stroke:#181818;stroke-width:1.0;" x1="377" x2="371" y1="751.867" y2="759.867"/><line style="stroke:#181818;stroke-width:1.0;" x1="377" x2="377" y1="751.867" y2="759.867"/><line style="stroke:#181818;stroke-width:1.0;" x1="381" x2="373" y1="749.867" y2="749.867"/></g><!--link Term to Synonym--><g id="link_Term_Synonym"><path codeLine="138" d="M478,692.131 C478,777.334 478,858 478,858 C478,858 482.489,858 499.272,858 " fill="none" id="Term-Synonym" style="stroke:#181818;stroke-width:1.0;stroke-dasharray:7.0,7.0;"/><line style="stroke:#181818;stroke-width:1.0;" x1="474" x2="482" y1="688.131" y2="688.131"/><line style="stroke:#181818;stroke-width:1.0;" x1="474" x2="482" y1="691.131" y2="691.131"/><line style="stroke:#181818;stroke-width:1.0;" x1="478" x2="478" y1="692.131" y2="684.131"/><line style="stroke:#181818;stroke-width:1.0;" x1="499.272" x2="507.272" y1="858" y2="852"/><line style="stroke:#181818;stroke-width:1.0;" x1="499.272" x2="507.272" y1="858" y2="864"/><line style="stroke:#181818;stroke-width:1.0;" x1="499.272" x2="507.272" y1="858" y2="858"/><line style="stroke:#181818;stroke-width:1.0;" x1="497.272" x2="497.272" y1="854" y2="862"/></g><!--link Account to User--><g id="link_Account_User"><path codeLine="139" d="M797,307.104 C797,326.637 797,330.808 797,350.717 " fill="none" id="Account-User" style="stroke:#181818;stroke-width:1.0;stroke-dasharray:7.0,7.0;"/><line style="stroke:#181818;stroke-width:1.0;" x1="797" x2="791" y1="307.104" y2="299.104"/><line style="stroke:#181818;stroke-width:1.0;" x1="797" x2="803" y1="307.104" y2="299.104"/><line style="stroke:#181818;stroke-width:1.0;" x1="797" x2="797" y1="307.104" y2="299.104"/><line style="stroke:#181818;stroke-width:1.0;" x1="793" x2="801" y1="309.104" y2="309.104"/><line style="stroke:#181818;stroke-width:1.0;" x1="801" x2="793" y1="354.717" y2="354.717"/><line style="stroke:#181818;stroke-width:1.0;" x1="801" x2="793" y1="351.717" y2="351.717"/><line style="stroke:#181818;stroke-width:1.0;" x1="797" x2="797" y1="350.717" y2="358.717"/></g><!--link Session to User--><g id="link_Session_User"><path codeLine="140" d="M1035,225.809 C1035,333.598 1035,530 1035,530 C1035,530 975.335,530 912.164,530 " fill="none" id="Session-User" style="stroke:#181818;stroke-width:1.0;stroke-dasharray:7.0,7.0;"/><line style="stroke:#181818;stroke-width:1.0;" x1="1035" x2="1029" y1="225.809" y2="217.809"/><line style="stroke:#181818;stroke-width:1.0;" x1="1035" x2="1041" y1="225.809" y2="217.809"/><line style="stroke:#181818;stroke-width:1.0;" x1="1035" x2="1035" y1="225.809" y2="217.809"/><line style="stroke:#181818;stroke-width:1.0;" x1="1031" x2="1039" y1="227.809" y2="227.809"/><line style="stroke:#181818;stroke-width:1.0;" x1="908.164" x2="908.164" y1="534" y2="526"/><line style="stroke:#181818;stroke-width:1.0;" x1="911.164" x2="911.164" y1="534" y2="526"/><line style="stroke:#181818;stroke-width:1.0;" x1="912.164" x2="904.164" y1="530" y2="530"/></g><!--link Like to User--><g id="link_Like_User"><path codeLine="141" d="M577.25,234.048 C577.25,296.042 577.25,367 577.25,367 C577.25,367 625.918,367 681.7,367 " fill="none" id="Like-User" style="stroke:#181818;stroke-width:1.0;stroke-dasharray:7.0,7.0;"/><line style="stroke:#181818;stroke-width:1.0;" x1="577.25" x2="571.25" y1="234.048" y2="226.048"/><line style="stroke:#181818;stroke-width:1.0;" x1="577.25" x2="583.25" y1="234.048" y2="226.048"/><line style="stroke:#181818;stroke-width:1.0;" x1="577.25" x2="577.25" y1="234.048" y2="226.048"/><line style="stroke:#181818;stroke-width:1.0;" x1="573.25" x2="581.25" y1="236.048" y2="236.048"/><line style="stroke:#181818;stroke-width:1.0;" x1="685.7" x2="685.7" y1="363" y2="371"/><line style="stroke:#181818;stroke-width:1.0;" x1="682.7" x2="682.7" y1="363" y2="371"/><line style="stroke:#181818;stroke-width:1.0;" x1="681.7" x2="689.7" y1="367" y2="367"/></g><!--link Term to Language--><g id="link_Term_Language"><path codeLine="142" d="M276,692.131 C276,777.334 276,858 276,858 C276,858 270.71,858 255.032,858 " fill="none" id="Term-Language" style="stroke:#181818;stroke-width:1.0;stroke-dasharray:7.0,7.0;"/><line style="stroke:#181818;stroke-width:1.0;" x1="272" x2="280" y1="688.131" y2="688.131"/><line style="stroke:#181818;stroke-width:1.0;" x1="272" x2="280" y1="691.131" y2="691.131"/><line style="stroke:#181818;stroke-width:1.0;" x1="276" x2="276" y1="692.131" y2="684.131"/><line style="stroke:#181818;stroke-width:1.0;" x1="251.032" x2="251.032" y1="862" y2="854"/><line style="stroke:#181818;stroke-width:1.0;" x1="254.032" x2="254.032" y1="862" y2="854"/><line style="stroke:#181818;stroke-width:1.0;" x1="255.032" x2="247.032" y1="858" y2="858"/></g><!--link User to Role--><g id="link_User_Role"><path codeLine="143" d="M797,708.225 C797,751.81 797,778.76 797,808.735 " fill="none" id="User-Role" style="stroke:#181818;stroke-width:1.0;stroke-dasharray:7.0,7.0;"/><line style="stroke:#181818;stroke-width:1.0;" x1="793" x2="801" y1="704.225" y2="704.225"/><line style="stroke:#181818;stroke-width:1.0;" x1="793" x2="801" y1="707.225" y2="707.225"/><line style="stroke:#181818;stroke-width:1.0;" x1="797" x2="797" y1="708.225" y2="700.225"/><line style="stroke:#181818;stroke-width:1.0;" x1="801" x2="793" y1="812.735" y2="812.735"/><line style="stroke:#181818;stroke-width:1.0;" x1="801" x2="793" y1="809.735" y2="809.735"/><line style="stroke:#181818;stroke-width:1.0;" x1="797" x2="797" y1="808.735" y2="816.735"/></g><!--SRC=[pLNDRkCW4BxxAJZleG_WIvHLKYbITokrwLvMguZQ946nmGBSDchwxZi3OnliH6rklI3uPfWPlld17gHgkE4rgwGIxjW8fetRwomJggtP7LUxbky4UyyOMonXkNs0PRNEFaZZGLT1-lIuHD5yyMlrEqYTT4Ts9mz1_eCvOUgShM7jZwioPu_EIBNp46_1jSdPanKc0aPQXH7SYNBkShQ0pLhM0l2sASVeB8fZ8MtrJKAvhVZkEyI1RYaEcPe3SIKYfD3AmQKEcNcbfdskfDqBkFfJGnLm1N0Sxgm_3z66gvW9c_lQ-FlF8sL83u2KACAlU1YgRu7Q7KQ477Sck79QsIu2GYkgxBolSG_RezBgMDzlGJriIPy4TeoBDrut5GQET2x32MGfpOIVP_lADtvUCwDqVJajKwQ6Lz2hwGKHJNqWFJQAXl2fPgGt-9aNXMwLEyzK2-6FhEF8Ie36w1TP2dCM9Ek93IEsHjZznkc3K34Xl2Y4jLDSl3KIRcmuCBnI3Y6liubZGTGMEWLaERLcmOVKQcCTP3aMQ4nIqDzO0KNYBaZJ9297D2wYx0Kdvrcb2DQnhKjqqzkJIhtW4u_d7IfUfpaJDPVL5th2w_qHHcubDddS5mstzbMRfA9bxHjy09wbJid2vg7MfNxceK80f5hf-Z-GXCqHTeGRZPCIVy6h9fitROvnDA7xqlXmdjbacdq-Rm8_1NTTJgCaGBdI7fM1nRHDtAG4fla6H_vF_pZTt9nEeQcxppN6_2yN0vDR_lyv8V0UFoR1QUnatLYW-xxKkgAEiTY91mPZfs7I-z8a45Ft7m00]--></g></svg>