<svg version="1.0" xmlns="http://www.w3.org/2000/svg"
 width="322pt" height="200pt" viewBox="0 0 322 200"
 >
<g transform="translate(0,200) scale(0.1,-0.1)"
fill="#c41c1c" stroke="none">
<path d="M1271 1851 c-14 -26 8 -43 51 -39 23 2 34 9 36 22 7 37 -69 52 -87
17z"/>
<path d="M1631 1852 c-14 -26 4 -42 46 -42 41 0 64 33 34 50 -31 16 -69 12
-80 -8z"/>
<path d="M1831 1852 c-21 -39 0 -42 306 -42 263 0 294 2 300 16 15 40 -17 44
-314 44 -264 0 -283 -1 -292 -18z"/>
<path d="M911 1742 c-17 -31 6 -42 86 -42 57 0 75 4 79 15 12 31 -15 45 -87
45 -56 0 -70 -3 -78 -18z"/>
<path d="M1214 1745 c-4 -8 -4 -22 0 -30 5 -13 87 -15 655 -15 590 0 649 1
655 16 17 44 19 44 -661 44 -563 0 -644 -2 -649 -15z"/>
<path d="M846 1624 c-3 -9 -4 -20 0 -25 3 -5 361 -9 869 -9 891 0 881 0 868
38 -4 9 -186 12 -868 12 -780 0 -863 -2 -869 -16z"/>
<path d="M866 1514 c-3 -9 -4 -20 0 -25 3 -5 339 -9 814 -9 729 0 808 2 814
16 3 9 4 20 0 25 -3 5 -339 9 -814 9 -729 0 -808 -2 -814 -16z"/>
<path d="M777 1413 c-13 -12 -7 -41 9 -47 9 -3 390 -6 849 -6 725 0 834 2 845
15 7 8 10 22 6 30 -5 13 -106 15 -854 15 -467 0 -852 -3 -855 -7z"/>
<path d="M707 1303 c-13 -12 -7 -41 9 -47 9 -3 462 -6 1009 -6 866 0 994 2
1005 15 7 8 10 22 6 30 -5 13 -123 15 -1014 15 -555 0 -1012 -3 -1015 -7z"/>
<path d="M3010 1294 c-12 -14 -12 -18 5 -31 11 -7 31 -13 45 -11 19 2 25 9 25
28 0 21 -5 26 -31 28 -19 2 -36 -3 -44 -14z"/>
<path d="M563 1184 c-17 -45 -32 -44 1138 -44 971 0 1108 2 1119 15 10 12 10
18 0 30 -11 13 -149 15 -1132 15 -1029 0 -1119 -1 -1125 -16z"/>
<path d="M2936 1183 c-11 -29 21 -43 98 -43 79 0 100 8 94 36 -3 17 -14 19
-94 22 -80 2 -92 0 -98 -15z"/>
<path d="M970 1020 c0 -55 -1 -103 -2 -107 -5 -13 53 -15 82 -3 35 14 50 48
50 109 0 69 -27 101 -86 101 l-44 0 0 -100z m84 39 c17 -40 11 -88 -13 -113
-30 -30 -41 -11 -41 70 0 68 2 74 20 74 14 0 25 -11 34 -31z"/>
<path d="M1160 1010 c0 -103 1 -110 20 -110 19 0 20 7 20 110 0 103 -1 110
-20 110 -19 0 -20 -7 -20 -110z"/>
<path d="M1305 1108 c-5 -18 -45 -194 -45 -202 0 -13 31 -5 36 9 4 8 16 15 29
15 13 0 25 -7 29 -15 3 -8 13 -15 22 -15 12 0 15 6 11 23 -3 12 -13 61 -23
110 -15 71 -21 87 -36 87 -10 0 -20 -6 -23 -12z m34 -125 c1 -7 -6 -13 -15
-13 -11 0 -14 5 -10 16 3 9 6 23 7 32 0 14 2 13 9 -3 5 -11 9 -26 9 -32z"/>
<path d="M1450 1010 l0 -110 45 0 c33 0 45 4 45 15 0 9 -9 15 -25 15 -25 0
-25 0 -25 95 0 88 -1 95 -20 95 -19 0 -20 -7 -20 -110z"/>
<path d="M1600 1010 l0 -110 51 0 c43 0 50 3 47 18 -2 10 -14 18 -31 20 -23 3
-27 8 -27 33 0 24 4 29 25 29 18 0 25 5 25 20 0 15 -7 20 -25 20 -20 0 -25 5
-25 25 0 21 5 25 30 25 20 0 30 5 30 15 0 11 -12 15 -50 15 l-50 0 0 -110z"/>
<path d="M1750 1010 c0 -102 1 -110 19 -110 17 0 20 8 23 53 l3 52 30 -52 c18
-32 37 -53 48 -53 23 0 22 4 -14 66 l-31 54 31 50 c31 50 31 50 8 50 -17 0
-29 -12 -47 -47 l-25 -48 -3 48 c-3 39 -6 47 -23 47 -18 0 -19 -8 -19 -110z"/>
<path d="M1960 1106 c0 -7 9 -16 21 -19 19 -5 21 -12 18 -59 -4 -95 0 -128 16
-128 12 0 15 17 15 95 0 88 1 95 20 95 11 0 20 7 20 15 0 12 -13 15 -55 15
-40 0 -55 -4 -55 -14z"/>
<path d="M2130 1010 l0 -110 45 0 c51 0 66 26 18 32 l-28 3 -3 93 c-2 73 -6
92 -17 92 -12 0 -15 -20 -15 -110z"/>
<path d="M2280 1010 c0 -103 1 -110 20 -110 18 0 19 7 17 110 -2 97 -4 110
-19 110 -16 0 -18 -12 -18 -110z"/>
<path d="M333 854 c-17 -45 -41 -44 1273 -44 1128 0 1244 1 1259 16 12 12 13
19 4 30 -10 12 -206 14 -1271 14 -1159 0 -1259 -1 -1265 -16z"/>
<path d="M2986 853 c-10 -26 20 -43 75 -43 49 0 76 18 65 45 -9 23 -131 21
-140 -2z"/>
<path d="M307 753 c-4 -3 -7 -15 -7 -25 0 -17 29 -18 736 -18 l735 0 -3 23 -3
22 -726 3 c-399 1 -729 -1 -732 -5z"/>
<path d="M1813 744 c-3 -8 -1 -20 4 -25 5 -5 114 -8 269 -7 251 3 259 4 259
23 0 19 -8 20 -263 23 -232 2 -263 0 -269 -14z"/>
<path d="M2467 754 c-4 -4 -7 -16 -7 -26 0 -17 12 -18 233 -16 224 3 232 4
232 23 0 19 -8 20 -226 23 -124 1 -228 -1 -232 -4z"/>
<path d="M334 635 c-10 -26 10 -36 62 -33 41 3 49 6 49 23 0 17 -8 20 -53 23
-41 2 -54 0 -58 -13z"/>
<path d="M750 625 l0 -25 478 2 c469 3 477 3 477 23 0 20 -8 20 -477 23 l-478
2 0 -25z"/>
<path d="M1813 634 c-3 -8 -1 -20 4 -25 5 -5 118 -8 279 -7 261 3 269 4 269
23 0 19 -8 20 -273 23 -241 2 -273 0 -279 -14z"/>
<path d="M2494 635 c-11 -29 11 -36 102 -33 81 3 89 5 89 23 0 18 -8 20 -93
23 -77 2 -93 0 -98 -13z"/>
<path d="M2794 635 c-11 -27 10 -36 72 -33 51 3 59 6 59 23 0 18 -8 20 -63 23
-50 2 -63 0 -68 -13z"/>
<path d="M783 524 c-3 -8 -1 -20 4 -25 5 -5 177 -8 434 -7 416 3 424 3 424 23
0 20 -8 20 -428 23 -382 2 -428 1 -434 -14z"/>
<path d="M1826 524 c-3 -9 -4 -20 0 -25 3 -5 117 -9 259 -9 222 0 254 2 259
16 3 9 4 20 0 25 -3 5 -117 9 -259 9 -222 0 -254 -2 -259 -16z"/>
<path d="M2864 525 c-9 -23 5 -35 41 -35 33 0 46 13 38 38 -6 17 -72 15 -79
-3z"/>
<path d="M802 408 l3 -23 410 0 c403 0 410 0 410 20 0 20 -8 20 -413 23 l-413
2 3 -22z"/>
<path d="M1928 418 c-13 -35 2 -38 167 -38 140 0 164 2 169 16 3 9 4 20 0 25
-9 15 -331 11 -336 -3z"/>
<path d="M893 304 c-3 -8 -1 -20 4 -25 5 -5 141 -8 339 -7 321 3 329 3 329 23
0 20 -8 20 -333 23 -295 2 -333 1 -339 -14z"/>
<path d="M2044 305 c-11 -27 7 -35 82 -35 72 0 74 1 74 25 0 24 -2 25 -75 25
-57 0 -77 -4 -81 -15z"/>
</g>
</svg>
